<svg version="1.1" id="febee1ec-cfd5-4c98-b6b1-99031b43dd2e"
	 xmlns="http://www.w3.org/2000/svg" xmlns:xlink="http://www.w3.org/1999/xlink" x="0px" y="0px" viewBox="0 0 63.3 63.3"
	 style="enable-background:new 0 0 63.3 63.3;" xml:space="preserve">
<style type="text/css">
	.st0iuondcsdkc{fill:#008ECF;stroke:#008ECF;stroke-width:0.5;stroke-miterlimit:10;}
	.st1iuondcsdkc{fill:#09263C;stroke:#09263C;stroke-width:0.5;stroke-miterlimit:10;}
</style>
<path class="st0iuondcsdkc" d="M4,58.9h0.4l6.1-12.5c0.5,0.2,1.1,0.3,1.6,0.3c1.5,0,2.9-0.8,3.6-2.1l13.6,4.8c-0.1,0.3-0.1,0.6-0.1,0.9
	c-0.1,2.3,1.8,4.3,4.1,4.3c2.3,0.1,4.3-1.8,4.3-4.1c0-0.1,0-0.2,0-0.2c0-1.2-0.5-2.4-1.4-3.2l12.2-23.6c0.6,0.3,1.2,0.5,1.9,0.5
	c2.4,0.1,4.4-1.8,4.5-4.2c0.1-2.4-1.8-4.4-4.2-4.5c-2.4-0.1-4.4,1.8-4.5,4.2c0,0,0,0.1,0,0.1c0,1.1,0.4,2.2,1.2,3L35.1,46.3
	c-0.5-0.2-1.1-0.3-1.6-0.3c-1.5,0-2.9,0.8-3.6,2.1l-13.6-4.8c0.1-0.3,0.1-0.6,0.1-0.9c0-2.4-1.9-4.3-4.2-4.3c-2.4,0-4.3,2-4.2,4.3
	c0,1.2,0.5,2.4,1.4,3.2L4,56.4V58.9z M50.4,16.7c1.6-0.1,2.9,1.2,3,2.8c0.1,1.6-1.2,2.9-2.8,3c-1.6,0.1-2.9-1.2-3-2.8
	c0,0,0-0.1,0-0.1C47.6,18,48.8,16.7,50.4,16.7z M33.5,47.4c1.6-0.1,2.9,1.2,3,2.8c0.1,1.6-1.2,2.9-2.8,3c-1.6,0.1-2.9-1.2-3-2.8
	c0,0,0-0.1,0-0.1C30.7,48.7,31.9,47.5,33.5,47.4z M12.2,39.5c1.6,0.1,2.8,1.4,2.8,3c-0.1,1.5-1.3,2.7-2.8,2.8
	c-1.6-0.1-2.8-1.4-2.8-3C9.5,40.8,10.7,39.6,12.2,39.5z"/>
<path class="st1iuondcsdkc" d="M60.9,59.6l-9.9-2.4l1.4,1.7h-4.9H4.5H4v-2.4V16.7v-6.3l1.7,1.4L3.3,2l-2.4,9.9l1.7-1.4v49.2c0,0,0,0.1,0,0.1
	c0,0.1,0,0.1,0,0.2c0,0,0,0.1,0.1,0.1c0,0,0.1,0.1,0.1,0.1c0,0,0.1,0.1,0.1,0.1c0,0,0.1,0,0.1,0.1c0,0,0,0,0,0
	c0.1,0,0.2,0.1,0.3,0.1c0,0,0,0,0,0l0,0h49.2L51.1,62L60.9,59.6z"/>
</svg>
