<svg version="1.1" id="b4499413-ad01-4c2c-b781-4e4f6d227656"
	 xmlns="http://www.w3.org/2000/svg" xmlns:xlink="http://www.w3.org/1999/xlink" x="0px" y="0px" viewBox="0 0 63 63"
	 style="enable-background:new 0 0 63 63;" xml:space="preserve">
<style type="text/css">
	.st0wefcwcs{fill:##09263C;}
	.st1wefcwcs{fill:#008ECF;}
</style>
<title>apihome-governance</title>
<g>
	<g>
		<path class="st0wefcwcs" d="M31.5,63c-0.1,0-0.2,0-0.3-0.1c-4.5-2-8.7-4.5-12.6-7.6C10.3,48.6,5.9,40.6,5.9,32.1V10.6
			C6,7.9,8.3,5.8,11,5.9c0,0,0,0,0.1,0c0,0,0.4,0,1,0c6.7,0,13.3-2,18.9-5.8c0.3-0.2,0.7-0.2,1,0c5.6,3.7,12.2,5.7,18.9,5.8
			c0.7,0,1,0,1,0c0,0,0,0,0.1,0c2.7-0.1,5,2,5,4.7v21.5c0,8.4-4.4,16.4-12.7,23.1c-3.8,3.1-8,5.7-12.6,7.6C31.7,63,31.6,63,31.5,63z
			 M11,7.7C9.3,7.7,7.9,9,7.8,10.6v21.5c0,17.8,20.8,27.6,23.7,28.9c3-1.3,23.7-11.2,23.7-28.9V10.6c-0.1-1.7-1.5-3-3.2-2.9
			c-0.1,0-0.5,0-1.1,0c-6.9,0-13.6-2-19.4-5.7C25.7,5.8,19,7.7,12.1,7.8C11.5,7.8,11.1,7.8,11,7.7z"/>
		<path class="st1wefcwcs" d="M31.5,56c-0.1,0-0.3,0-0.4-0.1C25.4,53,12.2,44.8,12.2,32.1V18.7c0-0.5,0.4-0.9,0.9-0.9
			c0.5,0,0.9,0.4,0.9,0.9c0,0,0,0,0,0v13.5c0,11.3,11.9,19,17.4,21.9c5.6-3,17.4-10.6,17.4-21.9V14c-6.1-0.3-12-1.9-17.4-4.7
			c-3.9,2-8.2,3.4-12.6,4.1c-0.5,0.1-1-0.3-1.1-0.8c-0.1-0.5,0.3-1,0.8-1.1c0,0,0,0,0,0C23,11,27.2,9.6,31.1,7.5
			c0.3-0.1,0.6-0.1,0.9,0c5.5,2.9,11.7,4.5,17.9,4.7c0.5,0,0.9,0.4,0.9,0.9v19c0,12.7-13.2,20.8-18.8,23.8C31.8,56,31.6,56,31.5,56z
			"/>
	</g>
	<g>
		<path class="st0wefcwcs" d="M29.4,39.9c-0.4,0-0.7-0.3-0.7-0.7c0-0.3,0.1-0.5,0.3-0.6c0.1-0.1,3.5-2.1,6.3-1.5c0.4,0.1,0.7,0.5,0.6,0.9
			c-0.1,0.4-0.5,0.6-0.9,0.6c-1.9-0.4-4.4,0.8-5.2,1.4C29.6,39.9,29.5,39.9,29.4,39.9z"/>
		<path class="st0wefcwcs" d="M28.2,46.3c-0.1,0-0.1,0-0.2,0c-0.4-0.1-0.6-0.5-0.5-0.9c0,0,0,0,0,0c0-0.1,3.1-12.6,0.1-17.6
			c-0.1-0.2-0.1-0.5,0-0.7c1-1.6,2.8-2.4,4.7-2.3c3.2,0.1,4.5,1.7,4.6,1.8c0.1,0.1,0.2,0.3,0.2,0.5c-0.1,0.6-1.4,15.3-2.3,18.7
			c-0.1,0.4-0.5,0.6-0.9,0.5c-0.4-0.1-0.6-0.5-0.5-0.9c0.8-3,2-15.8,2.3-18.1c-0.9-0.7-2.1-1.1-3.3-1.1c-1.2-0.1-2.3,0.3-3.1,1.2
			c2.9,5.8,0,17.8-0.2,18.3C28.8,46.1,28.5,46.3,28.2,46.3z"/>
		<path class="st0wefcwcs" d="M41.8,34.9c-0.1,0-0.1,0-0.2,0c-4.5-1.4-6-7.1-6.1-7.3c-0.1-0.4,0.1-0.8,0.5-0.9c0.4-0.1,0.8,0.1,0.9,0.5l0,0
			c0,0.1,1.4,5.1,5.1,6.3c0.4,0.1,0.6,0.5,0.5,0.9C42.4,34.7,42.1,34.9,41.8,34.9L41.8,34.9z"/>
		<path class="st0wefcwcs" d="M32.3,25.6c-1.1,0-3.6-3.3-3.8-5.4c-0.1-0.7,0.1-2.4,2.5-2.8c0.3-0.1,0.6-0.1,0.9-0.1c1-0.1,2,0.4,2.5,1.3
			c1,2-0.6,5.5-1.4,6.6C32.8,25.5,32.6,25.6,32.3,25.6z M31.9,18.8c-0.2,0-0.5,0-0.7,0.1c-1.1,0.2-1.2,0.7-1.3,0.9
			c-0.2,1.2,1.3,3.2,2.1,4.1c0.7-1.3,1.4-3.5,0.9-4.5C33,19.1,32.7,18.8,31.9,18.8L31.9,18.8z"/>
		<path class="st0wefcwcs" d="M25.4,34.9c-0.4,0-0.7-0.3-0.7-0.6c-0.4-2.9,0.8-5.7,3.1-7.5c0.3-0.2,0.8-0.2,1,0.2c0.2,0.3,0.2,0.8-0.2,1
			c-1.9,1.4-2.8,3.7-2.5,6.1c0.1,0.4-0.2,0.8-0.6,0.8C25.4,34.9,25.4,34.9,25.4,34.9z"/>
	</g>
</g>
</svg>
