<svg version="1.1" id="Layer_1" xmlns="http://www.w3.org/2000/svg" xmlns:xlink="http://www.w3.org/1999/xlink" x="0px" y="0px"
	 viewBox="0 0 63 63" style="enable-background:new 0 0 63 63;" xml:space="preserve">
<style type="text/css">
	.st0wretyruyti{fill:none;stroke:#008ECF;stroke-width:2;stroke-linecap:round;stroke-linejoin:round;}
	.st1wretyruyti{fill:none;stroke:#09263C;stroke-width:2;stroke-linecap:round;stroke-linejoin:round;}
</style>
<g id="Layer_2_1_">
	<g id="icons">
		<g>
			<g>
				<g>
					<g>
						<path id="Shape_1054" class="st0wretyruyti" d="M5.9,55.6l-2-3.4c-0.5-0.9-0.2-2.1,0.7-2.7l5.1-3l3.9,6.8l-5.1,3
							C7.7,56.8,6.5,56.5,5.9,55.6C6,55.6,5.9,55.6,5.9,55.6z"/>
						<path id="Shape_1055" class="st0wretyruyti" d="M4.9,53.8L1.2,56"/>
						<path id="Shape_1056" class="st0wretyruyti" d="M10.5,47.6l3.4-2"/>
						<path id="Shape_1057" class="st0wretyruyti" d="M13.1,52.2l3.4-2"/>
					</g>
					<g>
						<path id="Shape_1054-2" class="st0wretyruyti" d="M29.6,8.7h3.9c1.1,0,2,0.9,2,2c0,0,0,0,0,0v5.9h-7.9v-5.9C27.6,9.6,28.5,8.7,29.6,8.7
							L29.6,8.7z"/>
						<path id="Shape_1055-2" class="st0wretyruyti" d="M31.5,8.7V4.3"/>
						<path id="Shape_1056-2" class="st0wretyruyti" d="M34.2,16.6v3.9"/>
						<path id="Shape_1057-2" class="st0wretyruyti" d="M28.9,16.6v3.9"/>
					</g>
					<g>
						<path id="Shape_1054-3" class="st0wretyruyti" d="M57.1,55.6l2-3.4c0.5-0.9,0.2-2.1-0.7-2.7c0,0,0,0,0,0l-5.1-3l-3.9,6.8l5.1,3
							C55.3,56.9,56.5,56.6,57.1,55.6C57.1,55.6,57.1,55.6,57.1,55.6z"/>
						<path id="Shape_1055-3" class="st0wretyruyti" d="M58.1,53.9l3.8,2.2"/>
						<path id="Shape_1056-3" class="st0wretyruyti" d="M52.5,47.7l-3.4-2"/>
						<path id="Shape_1057-3" class="st0wretyruyti" d="M49.9,52.3l-3.4-2"/>
					</g>
				</g>
				<circle class="st0wretyruyti" cx="31.5" cy="39" r="15.9"/>
			</g>
			<g id="Interface-Essential_Paragraphs_paragraph-justified-align">
				<g id="Group_504">
					<g id="paragraph-justified-align">
						<path id="Shape_2492" class="st1wretyruyti" d="M23.5,46h11.9"/>
						<path id="Shape_2493" class="st1wretyruyti" d="M23.5,32h16.1"/>
						<path id="Shape_2494" class="st1wretyruyti" d="M23.5,35.5h16.1"/>
						<path id="Shape_2495" class="st1wretyruyti" d="M23.5,39h16.1"/>
						<path id="Shape_2496" class="st1wretyruyti" d="M23.5,42.5h16.1"/>
					</g>
				</g>
			</g>
		</g>
	</g>
</g>
</svg>
