<svg version="1.1" id="ec746cb8-372a-4e51-9de0-4a706652c9d0"
	 xmlns="http://www.w3.org/2000/svg" xmlns:xlink="http://www.w3.org/1999/xlink" x="0px" y="0px" viewBox="0 0 63 63"
	 style="enable-background:new 0 0 63 63;" xml:space="preserve">
<style type="text/css">
	.st0fdsdcfsdc{fill:##09263C;}
	.st1fdsdcfsdc{fill:#008ECF;}
</style>
<title>apihome-idx</title>
<g>
	<g>
		<path class="st0fdsdcfsdc" d="M10.2,32.1c-0.2,0-0.3,0-0.5-0.1L1,26.3c-0.3-0.2-0.4-0.5-0.4-0.9c0.4-2.1,1-4.2,2-6.2c0.5-1.1,1.2-2.2,2-3.1
			c0.3-0.4,0.9-0.4,1.2-0.1c0.4,0.3,0.4,0.9,0.1,1.2C5.2,18.1,4.6,19,4.1,20c-0.8,1.6-1.3,3.3-1.7,5.1l7.8,5l8.1-5
			c-0.4-1.6-1.6-6.2-4.4-8.6c-0.4-0.3-0.4-0.9-0.1-1.2c0.3-0.4,0.9-0.4,1.2-0.1l0,0c3.9,3.3,5.1,9.9,5.1,10.2
			c0.1,0.4-0.1,0.7-0.4,0.9L10.7,32C10.5,32,10.4,32.1,10.2,32.1z"/>
		<path class="st0fdsdcfsdc" d="M10.2,16.4c-2.9,0-5.1-3.1-6-6.1c-0.1-0.5,0.1-1,0.6-1.1c0.5-0.1,1,0.1,1.1,0.6c0.7,2.3,2.4,4.8,4.3,4.8
			c2.2,0,4.4-3.6,4.6-6.5c0-0.5,0.4-0.9,0.9-0.8c0.5,0,0.9,0.4,0.8,0.9C16.4,11.5,13.8,16.4,10.2,16.4z"/>
		<path class="st0fdsdcfsdc" d="M4,11.1c-0.4,0-0.7-0.2-0.8-0.6C2.9,9.6,2.7,8.6,2.7,7.7C2.7,3.4,6.1,0,10.4,0c4,0,7.4,3.1,7.6,7.1
			c0,0.2,0,0.3-0.1,0.5c-0.8,1.7-4.2,2.1-4.8,2.2c-0.5,0.1-0.9-0.3-1-0.8c0-0.1,0-0.2,0-0.3c0,0,0-0.1,0.1-0.4
			C9.8,9.8,7,10.8,4,11.1L4,11.1z M10.4,1.8c-3.3,0-5.9,2.6-5.9,5.9c0,0.6,0.1,1.1,0.2,1.7c2.6-0.4,5-1.4,7.1-3
			c0.3-0.2,0.5-0.5,0.7-0.8c0.2-0.4,0.7-0.7,1.2-0.5c0.3,0.1,0.5,0.4,0.5,0.8c0,0.5,0,0.9,0,1.4c0,0.2,0,0.4,0,0.6
			c0.8-0.1,1.5-0.4,2.2-0.9C15.9,4,13.4,1.8,10.4,1.8z"/>
	</g>
	<g>
		<path class="st0fdsdcfsdc" d="M52.5,32.1c-0.2,0-0.3,0-0.5-0.1l-8.8-5.6c-0.3-0.2-0.4-0.5-0.4-0.9c0.4-2.1,1-4.2,2-6.2
			c0.5-1.1,1.2-2.2,2-3.1c0.3-0.4,0.9-0.4,1.2-0.1c0.4,0.3,0.4,0.9,0.1,1.2l0,0c-0.7,0.8-1.3,1.7-1.8,2.7c-0.8,1.6-1.3,3.3-1.7,5.1
			l7.8,5l8.1-5c-0.4-1.6-1.6-6.2-4.4-8.6c-0.4-0.3-0.4-0.9-0.1-1.2c0.3-0.4,0.9-0.4,1.2-0.1c3.9,3.3,5.1,9.9,5.1,10.2
			c0.1,0.4-0.1,0.7-0.4,0.9L52.9,32C52.8,32,52.6,32.1,52.5,32.1z"/>
		<path class="st0fdsdcfsdc" d="M52.5,16.4c-2.9,0-5.1-3.1-6-6.1c-0.1-0.5,0.1-1,0.6-1.1c0.5-0.1,1,0.1,1.1,0.6c0.7,2.3,2.4,4.8,4.3,4.8
			c2.2,0,4.4-3.6,4.6-6.5c0-0.5,0.4-0.9,0.9-0.8c0.5,0,0.9,0.4,0.8,0.9C58.6,11.5,56,16.4,52.5,16.4z"/>
		<path class="st0fdsdcfsdc" d="M46.2,11.1c-0.4,0-0.7-0.2-0.8-0.6C45.1,9.6,45,8.6,45,7.7C45,3.4,48.4,0,52.6,0c4,0,7.4,3.1,7.6,7.1
			c0,0.2,0,0.3-0.1,0.5c-0.8,1.7-4.2,2.1-4.8,2.2c-0.5,0.1-0.9-0.3-1-0.8c0-0.1,0-0.2,0-0.3c0,0,0-0.1,0.1-0.4
			C52,9.8,49.2,10.8,46.2,11.1L46.2,11.1z M52.6,1.8c-3.3,0-5.9,2.6-5.9,5.9c0,0.6,0.1,1.1,0.2,1.7c2.6-0.4,5-1.4,7.1-3
			c0.3-0.2,0.5-0.5,0.7-0.8c0.2-0.4,0.7-0.7,1.2-0.5c0.3,0.1,0.5,0.4,0.5,0.8c0,0.5,0,0.9,0,1.4c0,0.2,0,0.4,0,0.6
			c0.8-0.1,1.5-0.4,2.2-0.9C58.1,4,55.6,1.8,52.6,1.8z"/>
	</g>
	<g>
		<path class="st0fdsdcfsdc" d="M30.9,63c-0.2,0-0.3,0-0.5-0.1l-8.8-5.6c-0.3-0.2-0.4-0.5-0.4-0.9c0.4-2.1,1-4.2,2-6.2c0.5-1.1,1.2-2.2,2-3.1
			c0.3-0.4,0.9-0.4,1.2-0.1c0.4,0.3,0.4,0.9,0.1,1.2c-0.7,0.8-1.3,1.7-1.8,2.7c-0.8,1.6-1.3,3.4-1.7,5.1l7.8,5l8.1-5
			c-0.4-1.6-1.6-6.2-4.4-8.6c-0.4-0.3-0.4-0.9-0.1-1.2c0.3-0.4,0.9-0.4,1.2-0.1c0,0,0,0,0,0c3.9,3.3,5.1,9.9,5.1,10.2
			c0.1,0.4-0.1,0.7-0.4,0.9l-9.1,5.6C31.2,62.9,31.1,63,30.9,63z"/>
		<path class="st0fdsdcfsdc" d="M30.9,47.3c-2.9,0-5.1-3.1-6-6.1c-0.1-0.5,0.1-1,0.6-1.1c0.5-0.1,1,0.1,1.1,0.6c0.7,2.3,2.4,4.8,4.3,4.8
			c2.2,0,4.4-3.6,4.6-6.5c0-0.5,0.4-0.9,0.9-0.8s0.9,0.4,0.8,0.9l0,0C37.1,42.4,34.5,47.3,30.9,47.3z"/>
		<path class="st0fdsdcfsdc" d="M24.7,42.1c-0.4,0-0.7-0.2-0.8-0.6c-0.3-0.9-0.4-1.9-0.4-2.9c0-4.2,3.4-7.7,7.7-7.7c4,0,7.4,3.1,7.6,7.1
			c0,0.2,0,0.3-0.1,0.5c-0.8,1.7-4.2,2.1-4.8,2.2c-0.5,0.1-0.9-0.3-1-0.8c0-0.1,0-0.2,0-0.3c0,0,0-0.1,0.1-0.4
			C30.5,40.7,27.7,41.8,24.7,42.1C24.7,42.1,24.7,42.1,24.7,42.1z M31.1,32.7c-3.3,0-5.9,2.6-5.9,5.9c0,0.6,0.1,1.1,0.2,1.7
			c2.6-0.4,5-1.4,7.1-3c0.3-0.2,0.5-0.5,0.7-0.8c0.2-0.4,0.7-0.7,1.2-0.5c0.3,0.1,0.5,0.4,0.5,0.8c0,0.5,0,0.9,0,1.4
			c0,0.2,0,0.4,0,0.6c0.8-0.1,1.5-0.4,2.2-0.9C36.6,34.9,34.1,32.7,31.1,32.7z"/>
	</g>
	<path class="st1fdsdcfsdc" d="M20.1,10.6c-0.5,0-0.9-0.4-0.9-0.9c0-0.3,0.2-0.6,0.4-0.8c6.9-4.1,15.5-4.2,22.5-0.2c0.4,0.2,0.6,0.8,0.3,1.2
		c-0.2,0.4-0.8,0.6-1.2,0.3c0,0,0,0,0,0c-6.4-3.6-14.3-3.6-20.7,0.2C20.4,10.6,20.3,10.6,20.1,10.6z"/>
	<path class="st1fdsdcfsdc" d="M41.3,48.1c-0.5,0-0.9-0.4-0.9-0.9c0-0.3,0.2-0.6,0.5-0.8c4.9-2.6,8.5-7.2,10.1-12.5c0.1-0.5,0.6-0.7,1.1-0.6
		c0.5,0.1,0.7,0.6,0.6,1.1C51,40.3,47,45.2,41.7,48C41.6,48.1,41.4,48.1,41.3,48.1z"/>
	<path class="st1fdsdcfsdc" d="M20.5,48c-0.2,0-0.3,0-0.4-0.1c-5-2.8-8.8-7.4-10.5-12.9c-0.1-0.5,0.1-1,0.6-1.1s1,0.1,1.1,0.6
		c1.6,5.1,5,9.3,9.7,11.9c0.4,0.2,0.6,0.8,0.3,1.2C21.2,47.8,20.9,48,20.5,48z"/>
</g>
</svg>
