<svg version="1.1" id="af5c0924-c193-4d7e-b7f6-0ffd1bf51589"
	 xmlns="http://www.w3.org/2000/svg" xmlns:xlink="http://www.w3.org/1999/xlink" x="0px" y="0px" viewBox="0 0 63 63"
	 style="enable-background:new 0 0 63 63;" xml:space="preserve">
<style type="text/css">
	.st0sdf235rw{fill:#008ECF;}
	.st1sdf235rw{fill:##09263C;}
</style>
<title>apihome-customerintelligenece</title>
<g>
	<g>
		<g>
			<path class="st0sdf235rw" d="M39.4,33.8c-0.5,0-0.9-0.4-0.9-0.9c-0.1-2.6,1.4-4.3,2.8-6c1.6-1.9,3.2-3.8,3.2-7.1c0-5.4-4.4-9.8-9.8-9.8
				c-5.4,0-9.8,4.4-9.8,9.8c0,0,0,0,0,0c0,3.3,1.6,5.2,3.2,7c1.4,1.7,2.9,3.4,3,6c0,0.5-0.4,0.9-0.9,0.9s-0.9-0.4-0.9-0.9
				c0,0,0,0,0,0c0-2-1.2-3.3-2.5-4.8c-1.7-2-3.7-4.2-3.7-8.3c0-6.4,5.2-11.7,11.7-11.7s11.7,5.2,11.7,11.7c0,4-1.9,6.3-3.6,8.3
				c-1.3,1.6-2.4,2.9-2.4,4.7C40.4,33.4,40,33.8,39.4,33.8C39.5,33.8,39.5,33.8,39.4,33.8L39.4,33.8z"/>
			<path class="st0sdf235rw" d="M37.6,46h-5.8c-1.9,0-3.4-1.5-3.4-3.4v-7.8c0-1,0.4-1.9,1.2-2.6c0.4-0.3,1-0.3,1.3,0.1
				c0.3,0.4,0.3,1-0.1,1.3c-0.3,0.3-0.5,0.7-0.5,1.2v7.8c0,0.9,0.7,1.6,1.6,1.6h5.8c0.9,0,1.6-0.7,1.6-1.6v-7.8c0-0.1,0-0.3,0-0.4
				c-0.7,0.7-1.9,0.9-3.7,0.6c-0.5-0.1-0.8-0.6-0.8-1.1c0.1-0.5,0.6-0.8,1.1-0.8c1.4,0.2,1.9,0,2,0c0.1,0,0.1-0.1,0.1-0.3
				c0-0.4,0.3-0.8,0.7-0.9c0.3-0.1,0.7-0.1,1,0.1c1,0.6,1.5,1.7,1.4,2.9v7.8C41.1,44.4,39.5,46,37.6,46z"/>
		</g>
		<path class="st0sdf235rw" d="M29.3,21.9c-0.5,0-0.9-0.4-0.9-0.9c0,0,0,0,0,0c0-4.6,3.7-8.4,8.4-8.4c0.5,0,0.9,0.4,0.9,0.9
			s-0.4,0.9-0.9,0.9l0,0c-3.6,0-6.5,2.9-6.5,6.5C30.2,21.5,29.8,21.9,29.3,21.9C29.3,21.9,29.3,21.9,29.3,21.9z"/>
	</g>
	<path class="st1sdf235rw" d="M23.9,62.3C23.9,62.3,23.9,62.3,23.9,62.3c-0.6-0.1-1-0.5-0.9-1l0.8-7.8c-1.5,0-3,0.3-4.3,0.9
		c-2.4,0.8-5.1,1.8-7.1-0.1c-1.9-1.8-1.9-3.9-1.9-6.8c0-1.1,0-2.4-0.1-3.9c0-0.3-0.1-0.6-0.3-0.8c-0.3-0.3-1.3-0.2-2.1-0.1
		C6.3,42.7,3.7,43,2.8,40c-0.4-1.5,0.7-3.8,2.5-7.5C8,27.4,10.2,22,11.8,16.4c2.2-8,10-14.9,18-15.9C39.7-0.8,47,0.6,52.1,4.8
		c4.8,3.9,7.5,10.2,8.1,19.1c0.7,10.8-3.5,20.6-11.3,26.1l-0.5,8.5c0,0.5-0.5,0.9-1,0.9s-0.9-0.5-0.9-1l0,0l0.6-9
		c0-0.3,0.2-0.5,0.4-0.7C54.9,43.5,59,34.3,58.3,24c-0.6-8.4-3-14.2-7.4-17.8C46.3,2.4,39.2,1.1,30,2.3c-7.3,1-14.4,7.2-16.4,14.6
		C11.9,22.6,9.7,28.1,7,33.3c-1.3,2.8-2.6,5.4-2.4,6.2c0.4,1.3,1.2,1.4,3.2,1.2c1.3-0.1,2.5-0.2,3.5,0.5c0.6,0.5,0.9,1.3,0.9,2.1
		c0.1,1.6,0.1,2.9,0.1,4.1c0,2.6,0,4.2,1.3,5.5c1.1,1,2.7,0.6,5.1-0.3c2.1-0.7,4.2-1.5,6.2-0.8c0.4,0.1,0.7,0.5,0.6,1l-0.9,8.6
		C24.8,61.9,24.4,62.3,23.9,62.3z"/>
	<path class="st1sdf235rw" d="M19,63C18.5,63,18,62.6,18,62c0-0.5,0.3-0.9,0.8-0.9l10.1-1.5c0.5-0.1,1,0.3,1.1,0.8c0.1,0.5-0.3,1-0.8,1.1
		c0,0,0,0,0,0L19.1,63C19.1,63,19,63,19,63z"/>
	<path class="st1sdf235rw" d="M47.4,59.4c-0.5,0-0.9-0.4-0.9-0.9c0-0.5,0.4-0.9,0.8-0.9l5.6-0.7c0.5-0.1,1,0.3,1,0.8c0.1,0.5-0.3,1-0.8,1
		l-5.6,0.7C47.5,59.4,47.4,59.4,47.4,59.4z"/>
</g>
</svg>
