<svg version="1.1" id="bb532809-5477-4ef1-a687-2c20defbe4a8"
	 xmlns="http://www.w3.org/2000/svg" xmlns:xlink="http://www.w3.org/1999/xlink" x="0px" y="0px" viewBox="0 0 63 63"
	 style="enable-background:new 0 0 63 63;" xml:space="preserve">
<style type="text/css">
	.st0qwsasx{fill:#008ECF;stroke:#008ECF;stroke-width:0.4922;stroke-miterlimit:10;}
	.st1qwsasx{fill:##09263C;stroke:##09263C;stroke-width:0.4922;stroke-miterlimit:10;}
</style>
<title>apihome-websso</title>
<g>
	<g>
		<g>
			<path class="st0qwsasx" d="M33.3,20c-0.1,0-0.2,0-0.3-0.1c0,0-2.6-1.6-4.5-1.2c-0.3,0.1-0.7-0.1-0.8-0.5c-0.1-0.3,0.1-0.7,0.5-0.8
				c2.4-0.5,5.3,1.3,5.5,1.3c0.3,0.2,0.4,0.6,0.2,0.9C33.7,19.9,33.5,20,33.3,20z"/>
		</g>
	</g>
	<g>
		<g>
			<path class="st0qwsasx" d="M34.3,25.6c-0.3,0-0.5-0.2-0.6-0.5c-0.1-0.5-2.7-10.9-0.1-15.9c-0.4-0.4-1.2-1.1-2.7-1
				c-1.6,0.1-2.5,0.6-2.9,0.9c0.2,2,1.3,13.1,2,15.7c0.1,0.3-0.1,0.7-0.5,0.8c-0.3,0.1-0.7-0.1-0.8-0.5c-0.8-3-2-15.7-2-16.2
				c0-0.2,0-0.3,0.1-0.5c0-0.1,1.2-1.4,4-1.5c2.9-0.1,4,1.9,4.1,2C35,9,35,9.3,34.9,9.5c-2.6,4.4,0,15.2,0.1,15.3
				c0.1,0.3-0.1,0.7-0.5,0.8C34.4,25.6,34.4,25.6,34.3,25.6z"/>
		</g>
	</g>
	<g>
		<g>
			<path class="st0qwsasx" d="M22.5,15.7c-0.3,0-0.5-0.2-0.6-0.4c-0.1-0.3,0.1-0.7,0.4-0.8c3.2-1,4.4-5.4,4.4-5.4c0.1-0.3,0.4-0.5,0.8-0.5
				C27.8,8.6,28,9,28,9.3c-0.1,0.2-1.4,5.1-5.3,6.3C22.6,15.7,22.6,15.7,22.5,15.7z"/>
		</g>
	</g>
	<g>
		<g>
			<path class="st0qwsasx" d="M30.7,7.6L30.7,7.6c-0.2,0-0.4-0.1-0.6-0.3c-0.7-1-2.1-4-1.2-5.7c0.3-0.5,0.9-1.2,2.1-1.2
				c0.2,0,0.5,0,0.8,0.1C34,0.9,34.1,2.3,34,3C33.9,4.7,31.7,7.6,30.7,7.6z M31.1,1.7c-0.7,0-0.9,0.3-1,0.5
				c-0.4,0.8,0.2,2.8,0.8,3.9c0.7-0.7,2-2.5,1.8-3.5c0-0.2-0.1-0.6-1.1-0.7C31.4,1.8,31.2,1.7,31.1,1.7z"/>
		</g>
	</g>
	<g>
		<g>
			<path class="st0qwsasx" d="M36.8,15.7c0,0-0.1,0-0.1,0c-0.3-0.1-0.6-0.4-0.5-0.7c0.5-3.2-2.1-5.2-2.2-5.3c-0.3-0.2-0.3-0.6-0.1-0.9
				c0.2-0.3,0.6-0.3,0.9-0.1c0.1,0.1,3.4,2.5,2.7,6.5C37.4,15.5,37.1,15.7,36.8,15.7z"/>
		</g>
	</g>
	<g>
		<g>
			<g>
				<g>
					<path class="st1qwsasx" d="M30.7,62.5L30.7,62.5c-3.5,0-7-1-10.1-2.9C11.7,54,9,42.3,14.5,33.3c3.5-5.6,9.6-9,16.2-9
						c3.5,0,7,1,10.1,2.9c8.9,5.6,11.7,17.3,6.1,26.3C43.4,59.1,37.4,62.5,30.7,62.5z M30.8,25.6c-6.2,0-11.9,3.1-15.1,8.4
						c-5.2,8.3-2.6,19.3,5.7,24.5c2.8,1.8,6.1,2.7,9.4,2.7c6.2,0,11.9-3.1,15.1-8.4c5.2-8.3,2.6-19.3-5.7-24.5
						C37.3,26.5,34.1,25.6,30.8,25.6z"/>
				</g>
			</g>
			<g>
				<g>
					<path class="st1qwsasx" d="M25,60.8L25,60.8c-1.6,0-3-0.4-4.3-1.2c-2.7-1.7-4.2-5-4.2-9.3c0-4.2,1.5-8.8,4.2-13.1
						C24.9,30.4,31.1,26,36.5,26c1.6,0,3,0.4,4.3,1.2c2.7,1.7,4.2,5,4.2,9.3c0,4.2-1.5,8.8-4.2,13.1C36.6,56.4,30.4,60.8,25,60.8z
						 M36.5,27.3c-4.9,0-10.8,4.2-14.7,10.5c-2.5,4.1-4,8.5-4,12.5c0,3.8,1.2,6.8,3.6,8.2c1,0.6,2.3,1,3.6,1
						c4.9,0,10.8-4.2,14.7-10.5c2.5-4.1,4-8.5,4-12.5c0-3.8-1.2-6.8-3.6-8.2C39.1,27.6,37.9,27.3,36.5,27.3z"/>
				</g>
			</g>
			<g>
				<g>
					<path class="st1qwsasx" d="M49.2,43.1c-0.1,0-0.2,0-0.3-0.1L32.2,32.7c-0.3-0.2-0.4-0.6-0.2-0.9c0.2-0.3,0.6-0.4,0.9-0.2l16.6,10.3
						c0.3,0.2,0.4,0.6,0.2,0.9C49.6,43,49.4,43.1,49.2,43.1z"/>
				</g>
			</g>
			<g>
				<g>
					<path class="st1qwsasx" d="M28.5,30.3c-0.1,0-0.2,0-0.3-0.1L23.1,27c-0.3-0.2-0.4-0.6-0.2-0.9c0.2-0.3,0.6-0.4,0.9-0.2l5.1,3.2
						c0.3,0.2,0.4,0.6,0.2,0.9C28.9,30.2,28.7,30.3,28.5,30.3z"/>
				</g>
			</g>
			<g>
				<g>
					<path class="st1qwsasx" d="M37.8,61.1c-0.1,0-0.2,0-0.3-0.1l-5-3.1c-0.3-0.2-0.4-0.6-0.2-0.9c0.2-0.3,0.6-0.4,0.9-0.2l5,3.1
						c0.3,0.2,0.4,0.6,0.2,0.9C38.3,60.9,38,61.1,37.8,61.1z"/>
				</g>
			</g>
			<g>
				<g>
					<path class="st1qwsasx" d="M28.7,55.4c-0.1,0-0.2,0-0.3-0.1L12,45.1c-0.3-0.2-0.4-0.6-0.2-0.9c0.2-0.3,0.6-0.4,0.9-0.2L29,54.2
						c0.3,0.2,0.4,0.6,0.2,0.9C29.1,55.3,28.9,55.4,28.7,55.4z"/>
				</g>
			</g>
			<g>
				<g>
					<path class="st1qwsasx" d="M43.6,52c-0.1,0-0.2,0-0.3-0.1L14.7,34.2c-0.3-0.2-0.4-0.6-0.2-0.9c0.2-0.3,0.6-0.4,0.9-0.2L44,50.9
						c0.3,0.2,0.4,0.6,0.2,0.9C44,51.9,43.8,52,43.6,52z"/>
				</g>
			</g>
			<g>
				<g>
					<path class="st1qwsasx" d="M20.6,59.5c-0.1,0-0.2,0-0.3-0.1c-0.3-0.2-0.4-0.6-0.2-0.9l19.5-31.3c0.2-0.3,0.6-0.4,0.9-0.2
						c0.3,0.2,0.4,0.6,0.2,0.9L21.2,59.2C21,59.3,20.8,59.5,20.6,59.5z"/>
				</g>
			</g>
		</g>
	</g>
</g>
</svg>
