<svg version="1.1" id="bf214311-655d-423f-9ffd-d0c384de063c"
	 xmlns="http://www.w3.org/2000/svg" xmlns:xlink="http://www.w3.org/1999/xlink" x="0px" y="0px" viewBox="0 0 63 63"
	 style="enable-background:new 0 0 63 63;" xml:space="preserve">
<style type="text/css">
	.st0iyhoji{fill:##09263C;}
	.st1iyhoji{fill:#008ECF;}
</style>
<title>apihome-authentication</title>
<g>
	<path class="st0iyhoji" d="M11.9,9.4c-0.6,0-1-0.5-1-1c0-0.3,0.1-0.6,0.4-0.8c10-8.7,24.5-10.1,35.9-3.3c0.7,0.4,1.5,0.9,2.1,1.4
		c0.5,0.3,0.6,1,0.3,1.4s-1,0.6-1.4,0.3c0,0,0,0,0,0c-0.7-0.5-1.3-0.9-2-1.3C35.4-0.2,21.9,1,12.6,9.1C12.4,9.3,12.2,9.4,11.9,9.4z"
		/>
	<path class="st0iyhoji" d="M59.9,41c-0.6,0-1-0.5-1-1c0-0.1,0-0.2,0-0.3c3.2-10.2,0.6-21.3-6.9-29c-0.4-0.4-0.4-1.1,0-1.5s1.1-0.4,1.5,0
		c8,8.2,10.9,20.1,7.4,31C60.8,40.7,60.4,41,59.9,41z"/>
	<path class="st0iyhoji" d="M7.9,31.5c-0.6,0-1-0.5-1-1c0,0,0,0,0,0c0-9.2,4.4-17.3,11.6-21.7C19,8.5,19.7,8.7,20,9.2
		c0.3,0.5,0.1,1.1-0.4,1.4C12.9,14.6,9,22,9,30.5C9,31.1,8.5,31.5,7.9,31.5C7.9,31.5,7.9,31.5,7.9,31.5z"/>
	<path class="st0iyhoji" d="M40.8,9.6c-0.1,0-0.3,0-0.4-0.1c-5.3-2.2-11.3-2.4-16.7-0.4c-0.5,0.2-1.1-0.1-1.3-0.6C22.2,8,22.5,7.4,23,7.2
		l0,0c5.9-2.1,12.4-2,18.2,0.5c0.5,0.2,0.8,0.8,0.5,1.3C41.6,9.4,41.2,9.6,40.8,9.6z"/>
	<path class="st0iyhoji" d="M15.4,59.4c-0.6,0-1-0.5-1-1c0-0.3,0.1-0.6,0.4-0.8c2.9-2.4,4.2-6.1,4.8-8.8c0.1-0.6,0.7-0.9,1.2-0.8
		c0.6,0.1,0.9,0.7,0.8,1.2c-0.9,4.3-2.8,7.8-5.5,10C15.9,59.3,15.7,59.4,15.4,59.4z"/>
	<path class="st0iyhoji" d="M20.7,45.2L20.7,45.2c-0.6,0-1-0.5-1-1.1c0,0,0,0,0,0c0-1.3,0-2.7-0.3-4c-0.9-3.4-1.4-6.9-1.2-10.5
		c0.3-6.3,5.9-13.4,13.4-13.4c6.9,0,12.7,5.2,13.4,12.2c0.1,0.6-0.4,1.1-0.9,1.1c-0.6,0.1-1.1-0.4-1.1-0.9c0,0,0,0,0,0
		c-0.5-5.9-5.5-10.3-11.3-10.3c-6.2,0-11.2,6-11.4,11.4c-0.1,3.3,0.3,6.7,1.2,9.9l0,0c0.3,1.5,0.4,3,0.3,4.5
		C21.8,44.8,21.3,45.2,20.7,45.2z"/>
	<path class="st0iyhoji" d="M33,63c-0.6,0-1-0.5-1-1c0-0.1,0-0.3,0.1-0.4c2.2-4.7,4-9.6,5.2-14.7c0.1-0.6,0.7-0.9,1.2-0.8s0.9,0.7,0.8,1.2
		C38,52.5,36.2,57.5,34,62.4C33.8,62.8,33.4,63,33,63z"/>
	<path class="st0iyhoji" d="M38,43.2c0,0-0.1,0-0.1,0c-0.6-0.1-1-0.6-0.9-1.1c0.4-3.9,0.5-7.8,0.1-11.7c0,0,0-0.1,0-0.1
		c0-3-2.4-5.4-5.4-5.4c-3,0-5.4,2.4-5.4,5.4c0,0,0,0,0,0c0,0.6-0.5,1-1,1c-0.6,0-1-0.5-1-1l0,0c0-4.1,3.3-7.5,7.5-7.5
		c4.1,0,7.4,3.3,7.5,7.4c0.4,4,0.4,8.1-0.1,12.1C38.9,42.8,38.5,43.2,38,43.2z"/>
	<path class="st0iyhoji" d="M45.7,59.4c-0.5,0-1-0.4-1-1c-0.3-4.4,2.9-9.7,5.9-14.3c2.6-4.1,4-8.8,4.1-13.6c0,0,0,0,0-0.1
		c0.6-6.2-3.5-14.3-9.5-18.7c-0.5-0.3-0.6-1-0.2-1.4c0.3-0.5,1-0.6,1.4-0.2l0,0c6.6,4.8,11,13.6,10.4,20.5
		c-0.1,5.2-1.6,10.3-4.4,14.6c-2.2,3.4-5.8,9-5.6,13.1C46.8,58.9,46.4,59.3,45.7,59.4C45.8,59.4,45.8,59.4,45.7,59.4
		C45.8,59.4,45.8,59.4,45.7,59.4z"/>
	<path class="st0iyhoji" d="M27.6,63c-0.6,0-1-0.5-1-1c0-0.1,0-0.3,0.1-0.4c3.3-7.2,4.1-12.8,4.4-20.1c0-0.6,0.5-1,1.1-1
		c0.6,0,1,0.5,1,1.1c0,0,0,0,0,0c-0.3,7.5-1.2,13.4-4.6,20.9C28.4,62.8,28,63,27.6,63z"/>
	<path class="st0iyhoji" d="M31.9,37.8C31.9,37.8,31.9,37.8,31.9,37.8c-0.6,0-1.1-0.5-1-1.1c0,0,0,0,0,0c0.2-2.5,0-5-0.5-7.5
		c-0.1-0.6,0.2-1.1,0.8-1.2c0.6-0.1,1.1,0.2,1.2,0.8c0.6,2.7,0.7,5.4,0.5,8.1C32.9,37.4,32.5,37.8,31.9,37.8z"/>
	<path class="st0iyhoji" d="M41.7,44.4c-0.6,0-1-0.5-1-1c0-0.1,0-0.3,0.1-0.4c0,0,0-0.1,0.1-0.2c1.3-2.9,2-6,2.3-9.1c0-0.6,0.5-1,1.1-0.9
		c0.6,0,1,0.5,0.9,1.1c-0.2,3.4-1.1,6.7-2.5,9.9l0,0.1C42.5,44.1,42.1,44.4,41.7,44.4z"/>
	<path class="st0iyhoji" d="M20.9,61.7c-0.6,0-1-0.5-1-1c0-0.2,0.1-0.5,0.2-0.7c2.4-3.2,3.9-6.8,4.7-10.7c0.6-4.7,0-14,0-14.1
		c0-0.6,0.4-1.1,1-1.1c0.6,0,1.1,0.4,1.1,1c0,0.4,0.7,9.7,0,14.5c-0.8,4.3-2.5,8.3-5.1,11.8C21.5,61.6,21.2,61.7,20.9,61.7z"/>
	<path class="st1iyhoji" d="M40.3,62.5c-0.5,0-1-0.4-1-0.9c-0.5-4.7,1.9-10,4.5-15.6c2.5-5.4,5.1-11,4.9-16.1l0,0c0-7.9-7.5-17-17-17
		c-4,0-7.8,1.4-11,3.8c-0.5,0.3-1.1,0.3-1.4-0.2c-0.3-0.5-0.3-1.1,0.2-1.4c0,0,0,0,0,0c3.5-2.7,7.8-4.2,12.2-4.2c10.8,0,19,10,19,19
		c0.3,5.6-2.5,11.4-5.1,17.1c-2.5,5.3-4.8,10.3-4.4,14.5c0.1,0.6-0.4,1.1-0.9,1.1C40.3,62.5,40.3,62.5,40.3,62.5L40.3,62.5z"/>
	<path class="st1iyhoji" d="M11.3,55.8c-0.6,0-1-0.5-1-1c0-0.4,0.2-0.8,0.6-0.9c4.8-2.3,4.5-5.8,3.1-14.1c-0.3-2-0.7-4.3-1-6.8
		c-0.8-6.4,0-10.5,2.8-14.2c0.3-0.5,1-0.5,1.4-0.2s0.5,1,0.2,1.4l0,0c-1.8,2.4-3.3,5.6-2.4,12.7c0.3,2.5,0.7,4.7,1,6.7
		c1.3,8,2.2,13.3-4.2,16.3C11.6,55.8,11.4,55.8,11.3,55.8z"/>
	<path class="st0iyhoji" d="M50.7,55.3c-0.6,0-1-0.5-1-1c0-0.3,0.1-0.5,0.3-0.7c1.5-1.5,5.3-5.4,7-9.7c0.2-0.5,0.8-0.8,1.3-0.6
		s0.8,0.8,0.6,1.3l0,0c-1.9,4.7-5.9,8.9-7.5,10.4C51.3,55.2,51,55.3,50.7,55.3z"/>
	<path class="st0iyhoji" d="M9,50.7c-0.2,0-0.4,0-0.6-0.1c-1.7-0.4-3.3-2.2-4.7-5.7c-1.3-3.4-2.3-7-2.8-10.6c0,0,0-0.1,0-0.1l-0.2-3.3
		c0,0,0,0,0-0.1c0-2.5,0.3-5,0.9-7.4c1-3.9,2.7-7.6,5.1-10.8c0.3-0.5,1-0.6,1.4-0.2s0.6,1,0.2,1.4l0,0c-2.2,3-3.8,6.4-4.7,10.1
		c-0.6,2.3-0.8,4.6-0.8,6.9L2.9,34c0.5,3.5,1.4,6.8,2.7,10.1c1.5,3.7,2.8,4.4,3.2,4.5c0.1,0,0.6,0.1,1.3-0.5
		c0.8-0.7,0.4-1.9-0.8-4.5c-0.2-0.4-0.4-0.8-0.6-1.3c-1-2.4-1.6-4.9-2-7.5c-0.1-0.6,0.3-1.1,0.8-1.2s1.1,0.3,1.2,0.8c0,0,0,0,0,0
		c0.3,2.4,1,4.8,1.9,7c0.2,0.4,0.4,0.9,0.6,1.3c1.2,2.6,2.2,5,0.3,6.8C10.9,50.3,9.9,50.7,9,50.7z"/>
</g>
</svg>
