<svg version="1.1" id="Layer_1" xmlns="http://www.w3.org/2000/svg" xmlns:xlink="http://www.w3.org/1999/xlink" x="0px" y="0px"
	 viewBox="0 0 63 63" style="enable-background:new 0 0 63 63;" xml:space="preserve">
<style type="text/css">
	.st0hgjbhknj{fill:none;stroke:#09263C;stroke-width:2;stroke-linecap:round;stroke-linejoin:round;}
	.st1hgjbhknj{fill:none;stroke:#008ECF;stroke-width:2;stroke-linecap:round;stroke-linejoin:round;}
</style>
<g id="Layer_2_1_">
	<g id="icons">
		<g>
			<g>
				<path id="Oval_147" class="st0hgjbhknj" d="M34.9,38c-1.1-1.8-3.4-2.5-5.3-1.4s-2.5,3.4-1.4,5.3s3.4,2.5,5.3,1.4l0,0
					C35.3,42.2,35.9,39.9,34.9,38z"/>
				<path id="Shape_900" class="st0hgjbhknj" d="M25.9,33.6l-1-0.6c-0.7-0.4-1.7-0.2-2.1,0.6l0,0l-1.2,2c-0.4,0.7-0.2,1.7,0.6,2.1l1.1,0.6
					c-0.2,1.1-0.2,2.2,0,3.4l-1,0.6c-0.7,0.4-1,1.4-0.6,2.1l0,0l1.2,2c0.4,0.7,1.4,1,2.1,0.6l1.1-0.6c0.8,0.7,1.8,1.3,2.9,1.7v1.2
					c0,0.9,0.7,1.5,1.6,1.5l0,0h2.3c0.8,0,1.5-0.7,1.5-1.5l0,0V48c1.1-0.4,2.1-0.9,2.9-1.7l1.1,0.6c0.7,0.4,1.7,0.2,2.1-0.6l0,0
					l1.2-2c0.4-0.7,0.2-1.7-0.6-2.1l0,0L40,41.6c0.2-1.1,0.2-2.2,0-3.4l1.1-0.6c0.7-0.4,1-1.4,0.6-2.1l0,0l-1.2-2
					c-0.4-0.7-1.4-1-2.1-0.6l0,0l-1.1,0.6c-0.8-0.7-1.8-1.3-2.9-1.7v-1.2c0-0.8-0.7-1.5-1.5-1.5h-2.3c-0.8,0-1.5,0.7-1.5,1.5v1.2
					C27.8,32.3,26.8,32.9,25.9,33.6z"/>
			</g>
			<g>
				<g>
					<g>
						<path id="Shape_1054" class="st1hgjbhknj" d="M6,56.5l-2-3.4c-0.5-0.9-0.2-2.1,0.7-2.7l5.1-2.9l3.9,6.8l-5.1,2.9
							C7.8,57.8,6.6,57.5,6,56.5C6,56.6,6,56.5,6,56.5z"/>
						<path id="Shape_1055" class="st1hgjbhknj" d="M5,54.8L1.2,57"/>
						<path id="Shape_1056" class="st1hgjbhknj" d="M10.5,48.6l3.4-2"/>
						<path id="Shape_1057" class="st1hgjbhknj" d="M13.1,53.1l3.4-2"/>
					</g>
					<g>
						<path id="Shape_1054-2" class="st1hgjbhknj" d="M29.6,9.7h3.9c1.1,0,2,0.9,2,2l0,0v5.9h-7.9v-5.9C27.6,10.6,28.5,9.7,29.6,9.7
							L29.6,9.7z"/>
						<path id="Shape_1055-2" class="st1hgjbhknj" d="M31.5,9.7V5.4"/>
						<path id="Shape_1056-2" class="st1hgjbhknj" d="M34.2,17.6v3.9"/>
						<path id="Shape_1057-2" class="st1hgjbhknj" d="M28.9,17.6v3.9"/>
					</g>
					<g>
						<path id="Shape_1054-3" class="st1hgjbhknj" d="M57,56.6l2-3.4c0.5-0.9,0.2-2.1-0.7-2.7l0,0l-5.1-3l-3.9,6.8l5.1,3
							C55.3,57.9,56.5,57.6,57,56.6L57,56.6z"/>
						<path id="Shape_1055-3" class="st1hgjbhknj" d="M58,54.9l3.8,2.2"/>
						<path id="Shape_1056-3" class="st1hgjbhknj" d="M52.5,48.7l-3.4-2"/>
						<path id="Shape_1057-3" class="st1hgjbhknj" d="M49.9,53.2l-3.4-2"/>
					</g>
				</g>
				<circle class="st1hgjbhknj" cx="31.5" cy="40" r="15.8"/>
			</g>
		</g>
	</g>
</g>
</svg>
