<svg version="1.1" id="Layer_1" xmlns="http://www.w3.org/2000/svg" xmlns:xlink="http://www.w3.org/1999/xlink" x="0px" y="0px"
	 viewBox="0 0 63 63" style="enable-background:new 0 0 63 63;" xml:space="preserve">
<style type="text/css">
	.st0wqdecs{fill:none;stroke:#008ECF;stroke-width:2;stroke-linecap:round;stroke-linejoin:round;}
	.st1wqdecs{fill:none;stroke:#09263C;stroke-width:2;stroke-linecap:round;stroke-linejoin:round;}
</style>
<g id="book-library-2">
	<path id="Rectangle-path_16" class="st0wqdecs" d="M6.7,6.7c0-2.1,1.7-3.8,3.8-3.8h7.6c2.1,0,3.8,1.7,3.8,3.8v36.2c0,2.1-1.7,3.8-3.8,3.8
		h-7.6c-2.1,0-3.8-1.7-3.8-3.8V6.7z"/>
	<path id="Rectangle-path_17" class="st0wqdecs" d="M22,6.7c0-2.1,1.7-3.8,3.8-3.8h7.6c2.1,0,3.8,1.7,3.8,3.8v36.2c0,2.1-1.7,3.8-3.8,3.8
		h-7.6c-2.1,0-3.8-1.7-3.8-3.8V6.7z"/>
	<path id="Rectangle-path_18" class="st0wqdecs" d="M39.7,11.5c-0.3-2.1,1.1-4,3.2-4.3l3.8-0.5c2.1-0.3,4,1.1,4.3,3.2l4.7,32.1
		c0.3,2.1-1.1,4-3.2,4.3l-3.8,0.5c-2.1,0.3-4-1.1-4.3-3.2L39.7,11.5z"/>
	<path id="Shape_187" class="st1wqdecs" d="M2.9,50.6c0,2.1,1.7,3.8,3.8,3.8h49.5c2.1,0,3.8-1.7,3.8-3.8c0-2.1-1.7-3.8-3.8-3.8H6.7
		C4.6,46.7,2.9,48.5,2.9,50.6z"/>
	<path id="Shape_188" class="st1wqdecs" d="M8.6,54.4v5.7"/>
	<path id="Shape_189" class="st1wqdecs" d="M54.4,54.4v5.7"/>
</g>
</svg>
