<svg version="1.1" id="febee1ec-cfd5-4c98-b6b1-99031b43dd2e"
	 xmlns="http://www.w3.org/2000/svg" xmlns:xlink="http://www.w3.org/1999/xlink" x="0px" y="0px" viewBox="0 0 63.3 63.3"
	 style="enable-background:new 0 0 63.3 63.3;" xml:space="preserve">
<style type="text/css">
	.st0oimim{fill:#09263C;stroke:#09263C;stroke-width:0.5;stroke-miterlimit:10;}
	.st1oimim{fill:#008ECF;stroke:#008ECF;stroke-miterlimit:10;}
</style>
<g>
	<path class="st0oimim" d="M31.6,62.7c-17.1,0-31-13.9-31-31s13.9-31,31-31s31,13.9,31,31C62.7,48.7,48.7,62.7,31.6,62.7z M31.6,2.5
		c-16,0-29.1,13.1-29.1,29.1s13.1,29.1,29.1,29.1s29.1-13.1,29.1-29.1C60.8,15.6,47.7,2.5,31.6,2.5L31.6,2.5z"/>
	<path class="st1oimim" d="M19.5,48.4c-1.2,0-2.3-0.5-3.1-1.3l-0.7-0.7c-1.7-1.7-1.7-4.5,0-6.2l0,0l10.4-10.4c-2.3-6.2,0.8-13,6.9-15.4
		c2.7-1,5.8-1,8.5,0c0.3,0.1,0.5,0.5,0.4,0.8c0,0.1-0.1,0.2-0.1,0.2l-6.7,6.7c-1.6,1.6-1.6,4.1,0,5.7s4.1,1.6,5.7,0l6.7-6.7
		c0.2-0.2,0.6-0.2,0.9,0c0.1,0.1,0.1,0.1,0.1,0.2c2.4,6.1-0.7,13-6.9,15.4c-1.4,0.5-2.8,0.8-4.3,0.8l0,0c-1.4,0-2.9-0.3-4.2-0.8
		L22.6,47.1C21.8,48,20.7,48.4,19.5,48.4z M37.3,14.9c-5.9,0-10.7,4.8-10.7,10.7c0,1.4,0.3,2.8,0.8,4.1c0.1,0.2,0,0.5-0.1,0.7
		L16.6,41.1c-1.2,1.2-1.2,3.2,0,4.5l0.7,0.7c1.2,1.2,3.2,1.2,4.5,0l0,0l10.7-10.7c0.2-0.2,0.4-0.2,0.7-0.1c1.3,0.6,2.7,0.8,4.1,0.8
		l0,0c5.9,0,10.7-4.8,10.7-10.7c0-1-0.1-2-0.4-2.9l-6,6c-2,2-5.4,2-7.4,0s-2-5.4,0-7.4l6-6C39.2,15,38.3,14.9,37.3,14.9z"/>
</g>
</svg>
