<svg version="1.1" id="bb2854f7-d3d0-452e-a8c4-38a22da0c352"
	 xmlns="http://www.w3.org/2000/svg" xmlns:xlink="http://www.w3.org/1999/xlink" x="0px" y="0px" viewBox="0 0 63 63"
	 style="enable-background:new 0 0 63 63;" xml:space="preserve">
<style type="text/css">
	.st0eqcqecw{fill:##09263C;}
	.st1eqcqecw{fill:#008ECF;}
</style>
<title>apihome-security</title>
<g>
	<g>
		<path class="st0eqcqecw" d="M44.6,53.2c-9.8,0-17.7-8-17.7-17.7c0-1,0.1-2,0.3-3c0.1-0.5,0.6-0.8,1.1-0.7c0.5,0.1,0.8,0.6,0.7,1.1
			c-1.5,8.6,4.2,16.8,12.9,18.3s16.8-4.2,18.3-12.9S56,21.4,47.3,19.9c-6.1-1.1-12.3,1.5-15.8,6.6c-0.3,0.4-0.9,0.5-1.3,0.2
			c-0.4-0.3-0.5-0.9-0.2-1.3c5.6-8,16.6-10,24.6-4.5s10,16.6,4.5,24.6C55.8,50.4,50.4,53.2,44.6,53.2z"/>
		<path class="st1eqcqecw" d="M41.6,44.1c-0.3,0-0.5-0.1-0.7-0.3l-7.2-7.6c-0.3-0.4-0.3-1,0-1.3c0.4-0.3,1-0.3,1.3,0l6.5,6.9l12.5-14.5
			c0.3-0.4,0.9-0.4,1.3-0.1c0.4,0.3,0.4,0.9,0.1,1.3L42.3,43.8C42.1,44,41.9,44.1,41.6,44.1L41.6,44.1z"/>
	</g>
	<g>
		<path class="st0eqcqecw" d="M26.3,63c-0.1,0-0.2,0-0.3-0.1c-4.5-2-8.7-4.5-12.6-7.6C5.1,48.6,0.7,40.6,0.7,32.1V10.6
			C0.8,7.9,3,5.8,5.8,5.9c0,0,0,0,0.1,0c7.1,0.2,14-1.8,19.9-5.7c0.3-0.2,0.7-0.2,1,0c5.9,3.9,12.9,5.9,19.9,5.7c0,0,0,0,0.1,0
			c2.7-0.1,5,2,5.1,4.7v4.2c0,0.5-0.4,0.9-0.9,0.9c-0.5,0-0.9-0.4-0.9-0.9c0,0,0,0,0,0v-4.2c-0.1-1.7-1.5-3-3.2-2.9
			C39.5,8,32.4,6,26.3,2C20.2,6,13,8,5.7,7.7C4,7.7,2.6,9,2.5,10.6v21.5c0,17.8,20.8,27.6,23.7,28.9c5.4-2.4,10.3-5.7,14.6-9.7
			c0.4-0.4,0.9-0.3,1.3,0s0.3,0.9,0,1.3c0,0,0,0,0,0c-4.6,4.3-9.8,7.8-15.5,10.3C26.5,63,26.4,63,26.3,63z"/>
		<path class="st0eqcqecw" d="M26.3,56c-0.1,0-0.3,0-0.4-0.1C20.2,53,7,44.8,7,32.1V18.7c0-0.5,0.4-0.9,0.9-0.9c0.5,0,0.9,0.4,0.9,0.9
			c0,0,0,0,0,0v13.5c0,11.4,11.9,19,17.4,21.9c2.9-1.5,5.7-3.4,8.2-5.5c0.4-0.3,1-0.3,1.3,0.1c0.3,0.4,0.3,1-0.1,1.3
			c-2.8,2.3-5.8,4.3-9,5.9C26.6,56,26.4,56,26.3,56z"/>
		<path class="st0eqcqecw" d="M44.6,19.7c-0.5,0-0.9-0.4-0.9-0.9c0,0,0,0,0,0V14c-6.1-0.3-12-1.9-17.4-4.7c-3.9,2-8.2,3.4-12.6,4.1
			c-0.5,0.1-1-0.3-1.1-0.8c-0.1-0.5,0.3-1,0.8-1.1c4.3-0.7,8.6-2.1,12.4-4.2c0.3-0.1,0.6-0.1,0.9,0c5.5,2.9,11.7,4.5,17.9,4.7
			c0.5,0,0.9,0.4,0.9,0.9v5.6C45.5,19.3,45.1,19.7,44.6,19.7C44.6,19.7,44.6,19.7,44.6,19.7z"/>
		<path class="st0eqcqecw" d="M26.3,16.3c-0.5,0-0.9-0.4-0.9-0.9c0,0,0,0,0,0V8.3c0-0.5,0.4-0.9,0.9-0.9c0.5,0,0.9,0.4,0.9,0.9v7.1
			C27.2,15.9,26.8,16.3,26.3,16.3C26.3,16.3,26.3,16.3,26.3,16.3z"/>
		<path class="st0eqcqecw" d="M26.3,56c-0.5,0-0.9-0.4-0.9-0.9c0,0,0,0,0,0v-6.8c0-0.5,0.4-0.9,0.9-0.9c0.5,0,0.9,0.4,0.9,0.9c0,0,0,0,0,0
			v6.8C27.2,55.6,26.8,56,26.3,56C26.3,56,26.3,56,26.3,56z"/>
	</g>
</g>
</svg>
