<svg id="ef97a3e5-2794-4d62-9ce1-ab50d262cd59" data-name="Layer 1" xmlns="http://www.w3.org/2000/svg" viewBox="0 0 692.06 540">
  <defs>
    <style>
      .b5daf1ce-6ad6-4506-afd3-27e51cc4fba7 {
        fill: #e3f1f8;
      }

      .b702d665-621a-430f-9bbb-89a87723b35c, .be4c27a8-25ae-4052-8029-0ddec783b047, .e1c8b68d-3a4b-4c6f-b496-abc6976d8ebe, .e6258e1b-9240-4631-b876-47f6564250b2 {
        fill: none;
        stroke-width: 2px;
      }

      .b702d665-621a-430f-9bbb-89a87723b35c, .be4c27a8-25ae-4052-8029-0ddec783b047 {
        stroke: #09263c;
      }

      .b702d665-621a-430f-9bbb-89a87723b35c {
        stroke-miterlimit: 10;
      }

      .be4c27a8-25ae-4052-8029-0ddec783b047, .e1c8b68d-3a4b-4c6f-b496-abc6976d8ebe, .e6258e1b-9240-4631-b876-47f6564250b2 {
        stroke-linecap: round;
        stroke-linejoin: round;
      }

      .e6258e1b-9240-4631-b876-47f6564250b2 {
        stroke: #008ecf;
      }

      .e1c8b68d-3a4b-4c6f-b496-abc6976d8ebe {
        stroke: #e3f1f8;
      }
    </style>
  </defs>
  <circle class="b5daf1ce-6ad6-4506-afd3-27e51cc4fba7" cx="268.33" cy="324.93" r="168.81"/>
  <circle class="b702d665-621a-430f-9bbb-89a87723b35c" cx="170.53" cy="287" r="143"/>
  <circle class="b702d665-621a-430f-9bbb-89a87723b35c" cx="475.53" cy="106" r="78"/>
  <circle class="b702d665-621a-430f-9bbb-89a87723b35c" cx="598.53" cy="435" r="66"/>
  <circle class="b702d665-621a-430f-9bbb-89a87723b35c" cx="509.53" cy="315" r="14"/>
  <circle class="b702d665-621a-430f-9bbb-89a87723b35c" cx="391.53" cy="494" r="18"/>
  <line class="b702d665-621a-430f-9bbb-89a87723b35c" x1="305.72" y1="333.75" x2="536.14" y2="413.43"/>
  <line class="b702d665-621a-430f-9bbb-89a87723b35c" x1="408.44" y1="145.81" x2="293.52" y2="214.01"/>
  <line class="b702d665-621a-430f-9bbb-89a87723b35c" x1="517.87" y1="326.24" x2="559.21" y2="381.99"/>
  <line class="b702d665-621a-430f-9bbb-89a87723b35c" x1="408.84" y1="489.07" x2="535.04" y2="453.1"/>
  <g id="afe40cd3-8faa-4715-8709-5d81b5c0f362" data-name="Layer 2">
    <g id="a271e3ea-1968-4507-8901-b6526e528bdb" data-name="icons">
      <g>
        <g>
          <path id="a39d7808-bde3-4ec7-a654-c82363662dd6" data-name="Oval 147" class="be4c27a8-25ae-4052-8029-0ddec783b047" d="M178.13,293.77a8.6,8.6,0,0,0-11.71-3.1A8.57,8.57,0,1,0,175,305.48h0A8.8,8.8,0,0,0,178.13,293.77Z"/>
          <path id="b3e61e84-6742-4995-8d1a-c7f399847dec" data-name="Shape 900" class="be4c27a8-25ae-4052-8029-0ddec783b047" d="M158.24,284,156,282.71a3.35,3.35,0,0,0-4.64,1.33h0l-2.66,4.42a3.35,3.35,0,0,0,1.33,4.64l2.43,1.33a21.52,21.52,0,0,0,0,7.51l-2.21,1.33a3.54,3.54,0,0,0-1.32,4.64h0l2.65,4.42a3.55,3.55,0,0,0,4.64,1.33l2.43-1.33a20.35,20.35,0,0,0,6.41,3.76v2.65a3.32,3.32,0,0,0,3.54,3.32h5.08a3.4,3.4,0,0,0,3.32-3.32h0v-2.87a17,17,0,0,0,6.41-3.76l2.43,1.33a3.36,3.36,0,0,0,4.64-1.33h0l2.65-4.42a3.35,3.35,0,0,0-1.32-4.64h0l-2.44-1.33a21,21,0,0,0,0-7.51l2.44-1.33a3.55,3.55,0,0,0,1.32-4.64h0l-2.65-4.42a3.56,3.56,0,0,0-4.64-1.33h0l-2.43,1.33a20.54,20.54,0,0,0-6.41-3.76v-2.65a3.4,3.4,0,0,0-3.32-3.32h-5.08a3.4,3.4,0,0,0-3.32,3.32v2.65A27,27,0,0,0,158.24,284Z"/>
        </g>
        <g>
          <g>
            <g>
              <path id="ae094a31-fcdc-4e37-bf8e-8f83474c1689" data-name="Shape 1054" class="e6258e1b-9240-4631-b876-47f6564250b2" d="M93.38,350.39,87.83,341a5.76,5.76,0,0,1,1.94-7.49l14.15-8.05,10.83,18.87-14.16,8c-2.22,1.66-5.55.83-7.21-1.95Z"/>
              <path id="e51928e6-47f6-4983-bcd5-fa6b0ea70c35" data-name="Shape 1055" class="e6258e1b-9240-4631-b876-47f6564250b2" d="M90.6,345.68l-10.54,6.1"/>
              <path id="b016668c-073b-4796-8988-3aa73b2c49b1" data-name="Shape 1056" class="e6258e1b-9240-4631-b876-47f6564250b2" d="M105.87,328.47l9.43-5.55"/>
              <path id="a161a4a7-7e3a-4efc-99a1-77fa6248e595" data-name="Shape 1057" class="e6258e1b-9240-4631-b876-47f6564250b2" d="M113.08,341l9.44-5.55"/>
            </g>
            <g>
              <path id="aac3bbd3-bfb3-473f-97cb-99b236739a4f" data-name="Shape 1054-2" class="e6258e1b-9240-4631-b876-47f6564250b2" d="M165.26,207.74h10.82a5.57,5.57,0,0,1,5.55,5.55h0v16.37H159.71V213.29a5.57,5.57,0,0,1,5.55-5.55Z"/>
              <path id="f1885548-60f0-4cfc-8b3f-66618e79118b" data-name="Shape 1055-2" class="e6258e1b-9240-4631-b876-47f6564250b2" d="M170.53,207.74V195.81"/>
              <path id="ec60caa5-0c7e-4293-bf2e-fc7759955af5" data-name="Shape 1056-2" class="e6258e1b-9240-4631-b876-47f6564250b2" d="M178,229.66v10.83"/>
              <path id="b8b5439d-b5b9-4391-a8cd-1526093fb9b8" data-name="Shape 1057-2" class="e6258e1b-9240-4631-b876-47f6564250b2" d="M163.32,229.66v10.83"/>
            </g>
            <g>
              <path id="bfa5b175-4008-4230-bd0b-7b1a94f4bbd8" data-name="Shape 1054-3" class="e6258e1b-9240-4631-b876-47f6564250b2" d="M247.69,350.67l5.55-9.43a5.79,5.79,0,0,0-2-7.5h0l-14.15-8.32-10.82,18.87,14.15,8.32a4.92,4.92,0,0,0,7.22-1.94Z"/>
              <path id="e6356218-19d7-4f1c-9205-8649cad44ffb" data-name="Shape 1055-3" class="e6258e1b-9240-4631-b876-47f6564250b2" d="M250.46,346,261,352.06"/>
              <path id="f7f4a6db-6d66-4d16-8887-6876c568a58a" data-name="Shape 1056-3" class="e6258e1b-9240-4631-b876-47f6564250b2" d="M235.2,328.75l-9.44-5.55"/>
              <path id="bf62d687-7812-4bfb-8773-af45d3650de3" data-name="Shape 1057-3" class="e6258e1b-9240-4631-b876-47f6564250b2" d="M228,341.24l-9.43-5.55"/>
            </g>
          </g>
          <circle class="e6258e1b-9240-4631-b876-47f6564250b2" cx="170.53" cy="298.21" r="43.84"/>
        </g>
      </g>
    </g>
  </g>
  <g id="aea8a13a-8177-4ebb-a2b9-605c2836a8bf" data-name="Work-Office-Companies / Ideas/Creativity / user-idea">
    <g id="b2b800cc-0911-4bcc-98e1-232d7425b35f" data-name="Group 13">
      <g id="e4d2487d-a4b2-41c0-adf4-bdb2b6048827" data-name="user-idea">
        <path id="f8e79e83-35d4-4836-85eb-d60d7340bed9" data-name="Shape 117" class="be4c27a8-25ae-4052-8029-0ddec783b047" d="M439.91,144.82a20,20,0,1,1,40.08,0Z"/>
        <path id="b1a55e57-2ae9-47e4-a1cc-9fbb1c8332f2" data-name="Oval 8" class="be4c27a8-25ae-4052-8029-0ddec783b047" d="M460,119.77a13.36,13.36,0,1,0-13.36-13.36A13.36,13.36,0,0,0,460,119.77Z"/>
        <path id="b2a511ed-8fa7-456b-943e-19b9eba77e9f" data-name="Shape 118" class="be4c27a8-25ae-4052-8029-0ddec783b047" d="M472.39,104.63a14.38,14.38,0,0,1-7.06,1.78,16.44,16.44,0,0,1-14.7-9"/>
        <path id="f8c36899-16df-4626-9c46-1f46f14a7949" data-name="Shape 119" class="e6258e1b-9240-4631-b876-47f6564250b2" d="M497.42,111.42h-4.81"/>
        <path id="a12a94eb-2dcf-4786-84db-31396ec73e08" data-name="Shape 120" class="e6258e1b-9240-4631-b876-47f6564250b2" d="M500,104.74H490"/>
        <path id="f87d9641-ae9e-4e0d-9c8d-cc14cd078e6b" data-name="Shape 121" class="e6258e1b-9240-4631-b876-47f6564250b2" d="M495,68v3.34"/>
        <path id="b09a3c37-d50e-4128-9d8e-38a3b06e106f" data-name="Shape 122" class="e6258e1b-9240-4631-b876-47f6564250b2" d="M476,88h4"/>
        <path id="a2f6812a-fd38-4b36-8ac9-ca7e8d652ca5" data-name="Shape 123" class="e6258e1b-9240-4631-b876-47f6564250b2" d="M513.38,88H510"/>
        <path id="afc56189-e046-4197-a504-ec8191137cc9" data-name="Shape 124" class="e6258e1b-9240-4631-b876-47f6564250b2" d="M478.31,73l3.34,3.34"/>
        <path id="ac10dd96-540c-44c8-8b74-e627ef3c291a" data-name="Shape 125" class="e6258e1b-9240-4631-b876-47f6564250b2" d="M511.71,73l-3.34,3.34"/>
        <path id="a53b29eb-f87a-4fbc-a376-cc57fabf7f7c" data-name="Shape 126" class="e6258e1b-9240-4631-b876-47f6564250b2" d="M505,86.37a10,10,0,1,0-20,0,9.85,9.85,0,0,0,5,8.35v1.67a1.67,1.67,0,0,0,1.67,1.67h6.68A1.67,1.67,0,0,0,500,96.39V94.72A9.81,9.81,0,0,0,505,86.37Z"/>
        <path id="ae1962e1-aa0a-437b-8a25-c33aecaa398d" data-name="Shape 127" class="be4c27a8-25ae-4052-8029-0ddec783b047" d="M460,131.46v3.34"/>
      </g>
    </g>
  </g>
  <g id="b1ec309e-5f53-4e67-9092-893853228b55" data-name="Work-Office-Companies / Meetings/Collaboration / team-meeting">
    <g id="b1d1a901-dcd8-409c-a37f-ed2b75c103ef" data-name="Group 28">
      <g id="a3d3eaa3-6c12-409a-be30-f7459245e358" data-name="team-meeting">
        <g>
          <path id="bffe07b0-d18f-441a-bbf4-a84071d3587a" data-name="Oval 30" class="e6258e1b-9240-4631-b876-47f6564250b2" d="M598.53,411.39a6.95,6.95,0,1,0-6.95-6.95A7,7,0,0,0,598.53,411.39Z"/>
          <path id="e3762d03-95df-4f89-961b-88f8a2893d6b" data-name="Shape 229" class="e6258e1b-9240-4631-b876-47f6564250b2" d="M612.43,425.28a14.34,14.34,0,0,0-27.79,0Z"/>
        </g>
        <g>
          <path id="e17b593e-3127-41b7-931f-bb14649ecb09" data-name="Oval 31" class="e6258e1b-9240-4631-b876-47f6564250b2" d="M576.92,454.62a6.95,6.95,0,1,0-6.95-6.95A6.95,6.95,0,0,0,576.92,454.62Z"/>
          <path id="b1968368-8f37-46fb-a6c7-b8d28639d4f4" data-name="Shape 230" class="e6258e1b-9240-4631-b876-47f6564250b2" d="M590.81,468.51a14.34,14.34,0,0,0-27.79,0Z"/>
        </g>
        <g>
          <path id="e54388fc-2a8e-4fd5-ac73-727a47169e98" data-name="Oval 32" class="e6258e1b-9240-4631-b876-47f6564250b2" d="M620.15,454.62a6.95,6.95,0,1,0-6.95-6.95A6.95,6.95,0,0,0,620.15,454.62Z"/>
          <path id="a810db58-5031-4f93-b3ef-2b4d09b44003" data-name="Shape 231" class="e6258e1b-9240-4631-b876-47f6564250b2" d="M634,468.51a14.34,14.34,0,0,0-27.79,0Z"/>
        </g>
        <path id="aa797891-3d1c-4c9d-beb5-cb3ba6eec7c7" data-name="Shape 232" class="be4c27a8-25ae-4052-8029-0ddec783b047" d="M607.8,454.36a24.74,24.74,0,0,1-18.53,0"/>
        <path id="b99f68f7-0ae4-4a6f-88dc-671878c038fd" data-name="Shape 233" class="be4c27a8-25ae-4052-8029-0ddec783b047" d="M612.43,411A24.74,24.74,0,0,1,623,434.54"/>
        <path id="acd8de67-a7f3-4dc4-9ed9-c5836ecd3f16" data-name="Shape 234" class="be4c27a8-25ae-4052-8029-0ddec783b047" d="M584.64,411A24.75,24.75,0,0,0,574,434.54"/>
      </g>
    </g>
  </g>
  <path id="b437cee3-157f-4f11-95aa-d47a158378eb" data-name="Shape 174" class="e1c8b68d-3a4b-4c6f-b496-abc6976d8ebe" d="M286.94,77.6l4.27,9.89h8.31A2,2,0,0,1,301,91.05l-7.21,6.42,4,9.18a2.18,2.18,0,0,1-3.1,2.73L285,103.94l-9.65,5.44a2.18,2.18,0,0,1-3.1-2.73l4-9.18L269,91.05a2,2,0,0,1,1.43-3.56h8.3L283,77.6A2.22,2.22,0,0,1,285,76.43,2.2,2.2,0,0,1,286.94,77.6Z"/>
  <line class="e1c8b68d-3a4b-4c6f-b496-abc6976d8ebe" x1="466.42" y1="232.39" x2="550.26" y2="232.39"/>
  <line class="be4c27a8-25ae-4052-8029-0ddec783b047" x1="518.35" y1="246.18" x2="614.86" y2="246.18"/>
</svg>
