<?xml version="1.0" encoding="utf-8"?>
<!-- Generator: Adobe Illustrator 24.0.1, SVG Export Plug-In . SVG Version: 6.00 Build 0)  -->
<svg version="1.1" id="Layer_1" xmlns="http://www.w3.org/2000/svg" xmlns:xlink="http://www.w3.org/1999/xlink" x="0px" y="0px"
	 viewBox="0 0 345 345" style="enable-background:new 0 0 345 345;" xml:space="preserve">
<style type="text/css">
	.st0{fill:#A4C639;}
</style>
<g>
	<path class="st0" d="M311.9,135c0-11.2-9.2-20.4-20.4-20.4s-20.4,9.2-20.4,20.4v85c0,11.2,9.2,20.4,20.4,20.4s20.4-9.2,20.4-20.4
		V135z"/>
	<path class="st0" d="M73.9,135c0-11.2-9.2-20.4-20.4-20.4s-20.4,9.2-20.4,20.4v85c0,11.2,9.2,20.4,20.4,20.4s20.4-9.2,20.4-20.4
		V135z"/>
	<path class="st0" d="M217.1,37.8l14.4-26c0.8-1.4,0.3-3.2-1.1-3.9c-0.4-0.2-0.9-0.4-1.4-0.4c-1,0-2,0.5-2.5,1.5l-14.6,26.3
		C200,30,186.6,27,172.5,27c-14.1,0-27.5,3-39.4,8.3L118.6,9c-0.8-1.4-2.5-1.9-3.9-1.1c-1.4,0.8-1.9,2.5-1.1,3.9l14.4,26
		c-27.6,14.4-46.3,41.7-46.4,73.1h182C263.5,79.5,244.8,52.2,217.1,37.8z M130.5,77.6c-4.2,0-7.6-3.4-7.6-7.6s3.4-7.6,7.6-7.6
		s7.6,3.4,7.6,7.6S134.7,77.6,130.5,77.6z M214.5,77.6c-4.2,0-7.6-3.4-7.6-7.6s3.4-7.6,7.6-7.6s7.6,3.4,7.6,7.6
		S218.7,77.6,214.5,77.6z"/>
	<path class="st0" d="M81.5,118.1V250c0,12.2,9.8,22,22,22h14.6v45c0,11.2,9.2,20.4,20.4,20.4s20.4-9.2,20.4-20.4v-45h27.2v45
		c0,11.2,9.2,20.4,20.4,20.4s20.4-9.2,20.4-20.4v-45h14.6c12.2,0,22-9.8,22-22V118.1H81.5z"/>
</g>
</svg>
