<?xml version="1.0" encoding="utf-8"?>
<!-- Generator: Adobe Illustrator 24.0.0, SVG Export Plug-In . SVG Version: 6.00 Build 0)  -->
<svg version="1.1" id="Layer_2_1_" xmlns="http://www.w3.org/2000/svg" xmlns:xlink="http://www.w3.org/1999/xlink" x="0px" y="0px"
	 viewBox="0 0 16 56" style="enable-background:new 0 0 16 56;" xml:space="preserve">
<style type="text/css">
	.st0{display:none;fill:#0A2135;}
	.st1{display:none;fill:#F9F9FA;}
	.st2{fill:#FFFFFF;}
</style>
<path class="st0" d="M208.2,334.8l-2.8,2.8c-0.8,0.8-2.1,0.8-2.8,0l-16.7-16.7c-4,2.9-8.9,4.7-14.3,4.7c-13.3,0-24.1-10.8-24.1-24.1
	s10.8-24.1,24.1-24.1s24.1,10.8,24.1,24.1c0,5.1-1.6,9.8-4.3,13.7l16.8,16.8C208.9,332.8,208.9,334.1,208.2,334.8z"/>
<circle class="st1" cx="171.5" cy="301.5" r="18"/>
<circle class="st2" cx="8" cy="8" r="8"/>
<circle class="st2" cx="8" cy="48" r="8"/>
<circle class="st2" cx="8" cy="28" r="8"/>
</svg>
