<?xml version="1.0" encoding="utf-8"?>
<!-- Generator: Adobe Illustrator 21.0.0, SVG Export Plug-In . SVG Version: 6.00 Build 0)  -->
<svg version="1.1" id="Layer_1" xmlns="http://www.w3.org/2000/svg" xmlns:xlink="http://www.w3.org/1999/xlink" x="0px" y="0px"
	 viewBox="0 0 499.1 499" style="enable-background:new 0 0 499.1 499;" xml:space="preserve">
<style type="text/css">
	.st0{fill:#EEEEEE;}
	.st1{fill:#01579B;}
	.st2{fill:#0277BD;}
	.st3{opacity:0.85;}
	.st4{fill:#FFFFFF;}
	.st5{fill:#E0E0E0;}
	.st6{fill:#0288D1;}
	.st7{fill:#BDBDBD;}
	.st8{fill:#B5B5B5;}
	.st9{fill:#F5F5F5;}
	.st10{fill:#E57373;}
	.st11{fill:#039BE5;}
	.st12{enable-background:new    ;}
</style>
<path class="st0" d="M440.5,213.7L440.5,213.7C394.4,254,347.1,292.8,298.6,330c-8.2,6.3-16.4,12.5-24.7,18.7
	c-4.6,3.4-9.1,6.8-13.7,10.2c-9.3,6.9-18.7,13.7-28.1,20.5c-12.5,9-25.1,18-37.7,26.8c-8.1,5.7-16.3,11.3-24.5,16.9l-93.3-93.3
	c5.7-8.6,11.4-17.1,17.2-25.6c3.1-4.6,6.2-9.1,9.4-13.6c11.4-16.4,23-32.7,34.7-48.9C186.3,175.3,238,111.3,292.7,49.9
	c0.9-0.9,1.8-1.7,2.6-2.6C369.3-11.7,483,0.6,488,0.6c5.4,0.7,9.6,4.9,10.2,10.2C498.9,17.3,512.2,141.9,440.5,213.7z"/>
<g>
	<path class="st1" d="M263.2,434.6l-5-64.4c0.2-0.1,0.4-0.3,0.5-0.4h-0.2l-17-17L171.1,410v13.1l-0.2,0.3l0,0l20.5,70
		c0.9,2.8,3.1,4.9,5.9,5.6h2c2.2,0,4.4-0.8,5.9-2.3l55.5-55.5C262.6,439.4,263.5,437,263.2,434.6z"/>
	<path class="st2" d="M64.4,235.8l64.4,5c0.1-0.2,0.3-0.4,0.4-0.5v0.2l17,17L89,327.9H75.9l-0.3,0.2l0,0l-70-20.5
		c-2.8-0.9-4.9-3.1-5.6-5.9v-2c0-2.2,0.8-4.4,2.3-5.9l55.5-55.5C59.6,236.4,62,235.5,64.4,235.8z"/>
	<g class="st3">
		<path class="st4" d="M76,293.3c-0.4,0.9-0.9,1.7-1.4,2.3c-0.5,0.6-1.1,1.1-1.8,1.3c-0.6,0.3-1.4,0.4-2.2,0.3
			c-0.8-0.1-1.7-0.3-2.8-0.8l-27.5-11.9l0.7-3l27.9,12.1c0.7,0.3,1.3,0.5,1.7,0.5c0.5,0.1,0.9,0,1.2-0.2c0.4-0.2,0.7-0.4,1-0.8
			s0.6-0.8,0.9-1.4L76,293.3z"/>
		<path class="st4" d="M58.5,270.4c0.4-0.9,0.8-1.8,1.3-2.5c0.5-0.8,0.9-1.3,1.2-1.5l2.2,1.6c-0.2,0.2-0.5,0.6-1,1.2
			c-0.4,0.6-0.9,1.5-1.4,2.7s-0.9,2.2-1,3s-0.2,1.3-0.2,1.6l19.5,8.5l-1.2,2.8l-21.2-9.2c0-0.9,0.1-2,0.3-3.4
			C57.2,273.8,57.7,272.2,58.5,270.4z"/>
	</g>
</g>
<path class="st0" d="M486.7,1.1c-2.2,0-25.5-2.4-57.6-0.3c-14.8,1-31.4,2.9-48.7,6.5c-39,8-81.4,24.3-113.5,56.6
	c-50.7,54.9-97.6,113.3-140.1,174.8c0,0-52.2,90.2-52.2,91.2l46.4,46.4L493.4,4.1C491.5,2.5,489.2,1.5,486.7,1.1z"/>
<path class="st5" d="M491.3,119.5c3.8-17.5,5.9-34.4,6.9-49.4c2.2-31.9-0.3-55.2-0.5-58c-0.4-3.2-2-6-4.3-7.9L121.1,376.3l47.4,47.4
	c0,0,2,0,3,0l87.2-53.2c61.2-42.9,119.6-89.7,174.8-140.1C466.2,199.2,482.9,157.8,491.3,119.5z"/>
<path class="st6" d="M85.4,310.9c-6.3,11-10.7,18.8-10.7,19.1l46.4,46.4l14.9-14.9L85.4,310.9z"/>
<path class="st2" d="M136,361.5l-14.9,14.9l47.4,47.4c0,0,2,0,3,0l16.6-10.1L136,361.5z"/>
<g>
	<path class="st7" d="M385.3,79.1c-18.2,0-33,14.8-33,33c0,9.3,3.8,17.7,10,23.7L409,89.2C403,83,394.6,79.1,385.3,79.1z"/>
</g>
<g>
	<path class="st8" d="M418.3,112.2c0-8.9-3.6-17-9.3-23l-46.7,46.7c5.9,5.8,14.1,9.3,23,9.3C403.5,145.2,418.3,130.4,418.3,112.2z"
		/>
</g>
<g>
	<path class="st9" d="M385.3,136.4c-13.4,0-24.2-10.8-24.2-24.2S371.9,88,385.3,88s24.2,10.9,24.2,24.2S398.7,136.4,385.3,136.4z"/>
</g>
<path class="st10" d="M121.1,450.4C92.7,471.5,57,480.6,22,475.5c-5.3-35.1,3.8-70.8,25.1-99.1c6.4-6.4,13.3-12.2,20.8-17.2
	c-21.8,29.4-36.7,72.7-18.8,88.2c17.8,15.5,59.8,2,90.2-19.2C134,436.2,127.9,443.6,121.1,450.4z"/>
<g>
	<path class="st11" d="M81,334.3l-0.2-0.2c-0.6-0.6-0.6-1.5,0-2.1l11.1-11c0.6-0.6,1.5-0.6,2.1,0l0.2,0.2c0.6,0.6,0.6,1.5,0,2.1
		l-11.2,11C82.5,334.9,81.5,334.9,81,334.3z"/>
	<path class="st11" d="M89.2,342.5l-0.2-0.2c-0.6-0.6-0.6-1.5,0-2.1l11.1-11.1c0.6-0.6,1.5-0.6,2.1,0l0.2,0.2c0.6,0.6,0.6,1.5,0,2.1
		l-11.1,11.1C90.7,343.1,89.8,343.1,89.2,342.5z"/>
	<path class="st11" d="M97.4,350.8l-0.2-0.2c-0.6-0.6-0.6-1.5,0-2.1l11.1-11.1c0.6-0.6,1.5-0.6,2.1,0l0.2,0.2c0.6,0.6,0.6,1.5,0,2.1
		l-11.1,11.1C98.9,351.3,98,351.3,97.4,350.8z"/>
	<path class="st11" d="M105.7,359l-0.2-0.2c-0.6-0.6-0.6-1.5,0-2.1l11.1-11.1c0.6-0.6,1.5-0.6,2.1,0l0.2,0.2c0.6,0.6,0.6,1.5,0,2.1
		L107.8,359C107.2,359.6,106.2,359.6,105.7,359z"/>
	<path class="st11" d="M113.9,367.2l-0.2-0.2c-0.6-0.6-0.6-1.5,0-2.1l11.1-11.1c0.6-0.6,1.5-0.6,2.1,0l0.2,0.2
		c0.6,0.6,0.6,1.5,0,2.1L116,367.2C115.4,367.8,114.5,367.8,113.9,367.2z"/>
	<path class="st11" d="M122.1,375.5l-0.2-0.2c-0.6-0.6-0.6-1.5,0-2.1l11.1-11.1c0.6-0.6,1.5-0.6,2.1,0l0.2,0.2
		c0.6,0.6,0.6,1.5,0,2.1l-11.1,11.1C123.7,376,122.7,376,122.1,375.5z"/>
	<path class="st11" d="M130.4,383.7l-0.2-0.2c-0.6-0.6-0.6-1.5,0-2.1l11.1-11.1c0.6-0.6,1.5-0.6,2.1,0l0.2,0.2
		c0.6,0.6,0.6,1.5,0,2.1l-11.1,11.1C131.9,384.3,130.9,384.3,130.4,383.7z"/>
	<path class="st11" d="M138.6,391.9l-0.2-0.2c-0.6-0.6-0.6-1.5,0-2.1l11.1-11.1c0.6-0.6,1.5-0.6,2.1,0l0.2,0.2
		c0.6,0.6,0.6,1.5,0,2.1l-11.1,11.1C140.1,392.5,139.2,392.5,138.6,391.9z"/>
	<path class="st11" d="M146.8,400.2l-0.2-0.2c-0.6-0.6-0.6-1.5,0-2.1l11.1-11.1c0.6-0.6,1.5-0.6,2.1,0l0.2,0.2
		c0.6,0.6,0.6,1.5,0,2.1l-11.1,11.1C148.4,400.8,147.4,400.8,146.8,400.2z"/>
	<path class="st11" d="M155.1,408.4l-0.2-0.2c-0.6-0.6-0.6-1.5,0-2.1L166,395c0.6-0.6,1.5-0.6,2.1,0l0.2,0.2c0.6,0.6,0.6,1.5,0,2.1
		l-11.1,11.1C156.6,409,155.7,409,155.1,408.4z"/>
	<path class="st11" d="M163.3,416.6l-0.2-0.2c-0.6-0.6-0.6-1.5,0-2.1l11.1-11.1c0.6-0.6,1.5-0.6,2.1,0l0.2,0.2
		c0.6,0.6,0.6,1.5,0,2.1l-11.1,11.1C164.8,417.2,163.9,417.2,163.3,416.6z"/>
</g>
<path class="st2" d="M429.2,0.9c-14.8,1-31.4,2.9-48.7,6.5c23.9,5.2,48.8,20.9,69.1,41.3L467.1,31C455.5,19.5,442.7,9.2,429.2,0.9z"
	/>
<path class="st1" d="M491.3,119.5c3.8-17.5,5.9-34.4,6.9-49.4c-8.5-13.9-19.1-27.1-31-39l-17.6,17.6
	C470.2,69.4,486.1,95.1,491.3,119.5z"/>
<path class="st2" d="M200.4,285l-70.1,65.8c-6.6,6.2-8.4,15.3-3.7,19.9l0,0l0,0l85.8-85.8C209.3,281.7,203.9,281.7,200.4,285z"/>
<path class="st1" d="M146.6,367.1l65.9-70c3.3-3.5,3.2-8.9,0-12.1l0,0l-85.8,85.8C131.4,375.4,140.5,373.6,146.6,367.1z"/>
<g>
	<path class="st4" d="M376,89.8v44.7c-1.9-0.8-3.8-1.9-5.4-3.1V92.9C372.2,91.7,374,90.6,376,89.8z"/>
</g>
<g>
	<path class="st7" d="M316.8,147.6c-18.2,0-33,14.8-33,33c0,9.3,3.8,17.7,10,23.7l46.7-46.6C334.5,151.5,326.1,147.6,316.8,147.6z"
		/>
</g>
<g>
	<path class="st8" d="M349.8,180.7c0-8.9-3.6-17-9.3-23l-46.7,46.7c5.9,5.8,14.1,9.3,23,9.3C335,213.7,349.8,198.9,349.8,180.7z"/>
</g>
<g>
	<path class="st9" d="M316.8,204.9c-13.4,0-24.2-10.8-24.2-24.2s10.8-24.2,24.2-24.2s24.2,10.9,24.2,24.2S330.2,204.9,316.8,204.9z"
		/>
</g>
<g>
	<path class="st4" d="M307.5,158.3V203c-1.9-0.8-3.8-1.9-5.4-3.1v-38.5C303.7,160.2,305.5,159.1,307.5,158.3z"/>
</g>
<g class="st12">
	<path class="st8" d="M191.1,191.3c-0.6-0.2-1.3-0.4-1.9-0.5c-0.6-0.2-1.3-0.3-2-0.5l-4.9,6.3c0.3,0.6,0.7,1.2,1,1.8
		c0.3,0.6,0.6,1.2,1,1.7l-2.2,2.8c-0.9-1.6-1.7-3.1-2.4-4.5c-0.7-1.4-1.4-2.7-2.1-4c-0.6-1.3-1.2-2.5-1.8-3.7
		c-0.5-1.2-1.1-2.4-1.6-3.6l2-2.6c1.3,0.2,2.6,0.4,3.8,0.7c1.3,0.2,2.6,0.5,4,0.8c1.4,0.3,2.8,0.7,4.4,1c1.5,0.4,3.2,0.8,4.9,1.3
		L191.1,191.3z M177.6,187.8c0.4,0.8,0.9,1.8,1.4,2.9s1.2,2.4,1.9,3.6l3.8-4.9c-1.4-0.4-2.8-0.7-4-1
		C179.5,188.2,178.5,187.9,177.6,187.8z"/>
	<path class="st8" d="M185.5,172.4c1.7-2.2,3.3-3.6,4.9-4.2c1.6-0.6,3-0.4,4.4,0.7c0.7,0.6,1.2,1.2,1.5,1.9c0.3,0.7,0.4,1.5,0.2,2.3
		c-0.1,0.8-0.4,1.8-0.9,2.7c-0.5,1-1.2,2-2,3.1l-1.1,1.4l4.4,3.4l-2.1,2.7l-12.3-9.6c0.4-0.7,0.8-1.5,1.4-2.3S185,173.1,185.5,172.4
		z M187.6,173.8c-0.5,0.7-1,1.3-1.3,1.7l4.2,3.3l1-1.3c1-1.3,1.6-2.4,1.9-3.4c0.2-0.9-0.1-1.7-0.9-2.4c-0.4-0.3-0.8-0.5-1.2-0.5
		c-0.4,0-0.8,0.1-1.3,0.3c-0.4,0.2-0.8,0.5-1.2,0.9C188.4,172.8,188,173.2,187.6,173.8z"/>
	<path class="st8" d="M192.8,163.4l2.1-2.7l12.5,9.8l-2.1,2.7L192.8,163.4z"/>
	<path class="st8" d="M217.4,157.6c-2.8-0.5-5.6-1-8.5-1.7c-2.9-0.7-5.8-1.4-8.5-2.2l2.3-3c1.1,0.3,2.2,0.6,3.4,1
		c1.2,0.3,2.3,0.6,3.4,0.9c1.1,0.3,2.2,0.6,3.3,0.8c1.1,0.3,2.1,0.5,3,0.7c-0.4-0.8-0.9-1.8-1.4-2.7c-0.5-1-1-2-1.6-3
		c-0.6-1-1.1-2.1-1.7-3.1c-0.6-1-1.2-2.1-1.8-3l2.3-2.9c1.4,2.5,2.8,5.1,4.2,7.8c1.4,2.7,2.6,5.3,3.7,7.9L217.4,157.6z"/>
	<path class="st8" d="M223,131.5c0.4,0.3,0.8,0.8,1,1.3c0.2,0.5,0.4,1.1,0.6,1.8c0.1,0.6,0.2,1.3,0.2,2c0,0.7,0.1,1.4,0.1,2.1
		c0,0.4,0,0.8,0,1.3c0,0.5,0.1,1,0.1,1.4c0,0.5,0.1,0.9,0.2,1.2c0.1,0.4,0.2,0.6,0.4,0.8l5.2-6.6l1.8,1.4l-7.4,9.5
		c-0.1-0.1-0.2-0.1-0.4-0.3c-0.1-0.1-0.2-0.2-0.3-0.2c-0.6-0.5-1-1-1.3-1.6c-0.3-0.6-0.5-1.2-0.7-1.9c-0.1-0.7-0.2-1.4-0.2-2.1
		c0-0.7,0-1.5-0.1-2.2c0-0.6,0-1.1,0-1.6s-0.1-1-0.1-1.4c-0.1-0.4-0.2-0.8-0.3-1.2c-0.2-0.4-0.4-0.6-0.7-0.9
		c-0.6-0.5-1.2-0.6-1.8-0.4c-0.6,0.2-1.1,0.6-1.6,1.3c-0.3,0.4-0.6,0.8-0.7,1.2c-0.2,0.4-0.3,0.8-0.4,1.2c-0.1,0.4-0.1,0.7-0.1,1
		c0,0.3,0,0.5,0,0.7l-2.5,0.1c0-1,0.2-2,0.5-3c0.3-1,0.9-2,1.6-2.9c1.2-1.6,2.5-2.5,3.7-2.8C220.8,130.3,221.9,130.6,223,131.5z"/>
	<path class="st8" d="M236.1,131.3c0.4,0.3,0.6,0.8,0.6,1.3c0,0.5-0.2,1-0.6,1.5c-0.4,0.5-0.8,0.8-1.4,0.9s-1,0-1.4-0.3
		c-0.4-0.3-0.6-0.8-0.6-1.3c0-0.5,0.2-1.1,0.6-1.5c0.4-0.5,0.8-0.8,1.4-0.9C235.2,130.9,235.7,131,236.1,131.3z"/>
	<path class="st8" d="M240.7,115c2.1,1.6,3.4,3.4,3.8,5.2c0.4,1.8,0,3.5-1.3,5.1s-2.8,2.4-4.7,2.5c-1.8,0-3.8-0.8-5.9-2.4
		c-1-0.8-1.9-1.7-2.5-2.5s-1-1.7-1.2-2.6c-0.2-0.9-0.2-1.8,0-2.6c0.2-0.9,0.6-1.7,1.3-2.5c1.3-1.6,2.8-2.4,4.7-2.5
		C236.7,112.5,238.6,113.3,240.7,115z M238.6,117.7c-0.6-0.5-1.3-0.9-1.9-1.3c-0.6-0.4-1.2-0.6-1.8-0.7c-0.6-0.1-1.1-0.1-1.6,0
		c-0.5,0.1-0.9,0.4-1.3,0.9c-0.4,0.5-0.6,1-0.6,1.5c0,0.5,0.1,1,0.4,1.5c0.3,0.5,0.6,1,1.1,1.6c0.5,0.5,1.1,1,1.7,1.5
		c0.6,0.5,1.3,0.9,1.9,1.3c0.6,0.4,1.2,0.6,1.8,0.7c0.6,0.1,1.1,0.1,1.6,0c0.5-0.1,0.9-0.4,1.3-0.9c0.4-0.5,0.6-1,0.6-1.5
		c0-0.5-0.1-1-0.4-1.5c-0.3-0.5-0.6-1-1.1-1.6C239.9,118.7,239.3,118.2,238.6,117.7z"/>
</g>
</svg>
