<?xml version="1.0" encoding="utf-8"?>
<!-- Generator: Adobe Illustrator 24.0.0, SVG Export Plug-In . SVG Version: 6.00 Build 0)  -->
<svg version="1.1" id="Layer_2_1_" xmlns="http://www.w3.org/2000/svg" xmlns:xlink="http://www.w3.org/1999/xlink" x="0px" y="0px"
	 viewBox="0 0 61.4 60.9" style="enable-background:new 0 0 61.4 60.9;" xml:space="preserve">
<style type="text/css">
	.st0{fill:#FFFFFF;}
	.st1{display:none;fill:#0A2135;}
</style>
<path class="st0" d="M60.8,54.6L44,37.8c2.7-3.9,4.3-8.6,4.3-13.7C48.2,10.8,37.4,0,24.1,0S0,10.8,0,24.1s10.8,24.1,24.1,24.1
	c5.3,0,10.3-1.7,14.3-4.7l16.7,16.7c0.8,0.8,2,0.8,2.8,0l2.8-2.8C61.6,56.7,61.6,55.4,60.8,54.6z M24.1,42.2c-10,0-18-8.1-18-18
	s8.1-18,18-18s18,8.1,18,18S34.1,42.2,24.1,42.2z"/>
<path class="st1" d="M-131.4-234.4v11c0,1.1-0.9,2-2,2h-12c-1.1,0-2-0.9-2-2v-11c0-1.1,0.9-2,2-2h12
	C-132.3-236.4-131.4-235.5-131.4-234.4z"/>
<path class="st1" d="M-131.4-275.4v11c0,1.1-0.9,2-2,2h-12c-1.1,0-2-0.9-2-2v-11c0-1.1,0.9-2,2-2h12
	C-132.3-277.4-131.4-276.5-131.4-275.4z"/>
<path class="st1" d="M-131.4-255.4v11c0,1.1-0.9,2-2,2h-12c-1.1,0-2-0.9-2-2v-11c0-1.1,0.9-2,2-2h12
	C-132.3-257.4-131.4-256.5-131.4-255.4z"/>
</svg>
