<svg id="Layer_1" data-name="Layer 1"
	xmlns="http://www.w3.org/2000/svg" viewBox="0 0 450 304">
	<defs>
		<style>.cls-1,
    .cls-4,.cls-5{fill:#303134;}
    .cls-2{fill:#fff;}
    .cls-3{fill:#83D7F7;}
    .cls-4{stroke:#fff;stroke-miterlimit:10;stroke-width:4px;}
    .cls-5{stroke:#fff;stroke-miterlimit:10;stroke-width:4px;}
    .cls-3 {
      animation: 1500ms linear 0s infinite normal forwards running cls-3;
      transform-box: fill-box;
      transform-origin: 50% 50%;
      transform: translateX(0px) translateY(0px);
    }
    @keyframes cls-3 {
      0% {
        transform: translateX(0px) translateY(0px);
      }
      25% {
        transform: translateX(0px) translateY(4px);
      }
      50% {
        transform: translateX(0px) translateY(8px);
      }
      100% {
        transform: translateX(0px) translateY(0px);
      }
    }
    .cls-4 {
      animation: 3000ms linear 0s infinite normal forwards running cls-4;
      transform-box: fill-box;
      transform-origin: 50% 50%;
      transform: translateX(0px) translateY(0px);
    }
    @keyframes cls-4 {
      0% {
        transform: translateX(0) translateY(0px);
      }
      20% {
        transform: translateX(0) translateY(1px);
      }
      40% {
        transform: translateX(0) translateY(2px);
      }
      60% {
        transform: translateX(0) translateY(3px);
      }
      80% {
        transform: translateX(0) translateY(2px);
      }
      90% {
        transform: translateX(0) translateY(1px);
      }
      100% {
        transform: translateX(0) translateY(0px);
      }
    }
    .cls-5 {
      animation: 3000ms linear -0.5s infinite normal forwards running cls-5;
      transform-box: fill-box;
      transform-origin: 50% 50%;
      transform: translateX(0px) translateY(0px);
    }
    @keyframes cls-5 {
       0% {
        transform: translateX(0) translateY(0px);
      }
      20% {
        transform: translateX(0) translateY(1px);
      }
      40% {
        transform: translateX(0) translateY(2px);
      }
      60% {
        transform: translateX(0) translateY(3px);
      }
      80% {
        transform: translateX(0) translateY(2px);
      }
      90% {
        transform: translateX(0) translateY(1px);
      }
      100% {
        transform: translateX(0) translateY(0px);
      }
    }
    </style>
	</defs>
	<rect fill="none" width="450" height="304"/>
	<path class="cls-2" d="M165.16,13.62l2.28-6.77-6.76,2.31L155,4.9l.11,7.14-5.82,4.14,6.82,2.1,2.14,6.81,4.11-5.84,7.13.08Zm-4.41,4.54-1.89,2.68-1-3.13a1.87,1.87,0,0,0-1.25-1.25l-3.14-1,2.68-1.9A1.89,1.89,0,0,0,157,12l-.05-3.27,2.63,1.95a1.89,1.89,0,0,0,1.75.27l3.1-1.06-1,3.11a1.89,1.89,0,0,0,.28,1.75l2,2.62-3.27,0A1.94,1.94,0,0,0,160.75,18.16Zm10.22,0-3.68-4.91,2-5.82a1.9,1.9,0,0,0-2.42-2.41L161,7l-4.93-3.65a1.9,1.9,0,0,0-3,1.55l.09,6.14-5,3.55a1.91,1.91,0,0,0,.54,3.38l5.87,1.8,1.83,5.86A1.91,1.91,0,0,0,157.91,27a1.36,1.36,0,0,0,.29,0,1.92,1.92,0,0,0,1.56-.81l3.53-5,6.13.06h0a1.9,1.9,0,0,0,1.53-3Zm-8.64-.84a1.94,1.94,0,0,0-1.58.81l-1.89,2.68-1-3.13a1.87,1.87,0,0,0-1.25-1.25l-3.14-1,2.68-1.9A1.89,1.89,0,0,0,157,12l-.05-3.27,2.63,1.95a1.89,1.89,0,0,0,1.75.27l3.1-1.06-1,3.11a1.89,1.89,0,0,0,.28,1.75l2,2.62ZM437.56,85l1.84-8.58-7.93,3.76-7.58-4.4L425,84.42l-6.53,5.86,8.62,1.62,3.54,8,4.21-7.7,8.72-.89Zm-2.9,5.38a1.89,1.89,0,0,0-1.48,1l-2.36,4.31-2-4.49a1.92,1.92,0,0,0-1.39-1.1l-4.83-.91,3.66-3.28a1.9,1.9,0,0,0,.62-1.66l-.63-4.87,4.25,2.47a1.91,1.91,0,0,0,1.77.07l4.43-2.1-1,4.8a1.9,1.9,0,0,0,.48,1.7l3.37,3.58ZM445,90l-5.33-5.65,1.63-7.6a1.91,1.91,0,0,0-2.68-2.12l-7,3.33-6.72-3.9A1.9,1.9,0,0,0,422,76l1,7.7-5.78,5.19a1.9,1.9,0,0,0,.91,3.29l7.64,1.44,3.14,7.1a1.92,1.92,0,0,0,1.66,1.13h.08a1.89,1.89,0,0,0,1.67-1L436,94l7.73-.8A1.9,1.9,0,0,0,445,90Zm-11.78,1.29-2.36,4.31-2-4.49a1.92,1.92,0,0,0-1.39-1.1l-4.83-.91,3.66-3.28a1.9,1.9,0,0,0,.62-1.66l-.63-4.87,4.25,2.47a1.91,1.91,0,0,0,1.77.07l4.43-2.1-1,4.8a1.9,1.9,0,0,0,.48,1.7l3.37,3.58-4.88.5A1.89,1.89,0,0,0,433.18,91.31ZM26.38,212.52l-6.82-2.1-2.15-6.8-4.1,5.84-7.13-.07,4.29,5.71L8.2,221.87,15,219.55l5.73,4.25-.11-7.14Zm-7.72,4.17.06,3.28L16.08,218a1.93,1.93,0,0,0-1.75-.27l-3.1,1.06,1-3.11A1.93,1.93,0,0,0,12,214l-2-2.62,3.28,0a1.81,1.81,0,0,0,1.57-.81l1.89-2.68,1,3.13A1.94,1.94,0,0,0,19,212.25l3.13,1-2.67,1.9A1.91,1.91,0,0,0,18.66,216.69Zm9.6-4.48a1.89,1.89,0,0,0-1.32-1.51l-5.87-1.8L19.23,203a1.91,1.91,0,0,0-3.38-.52l-3.52,5-6.14,0h0a1.91,1.91,0,0,0-1.53,3l3.69,4.9-1.95,5.82a1.91,1.91,0,0,0,2.43,2.41l5.8-2,4.93,3.65a1.89,1.89,0,0,0,1.13.37,2,2,0,0,0,.88-.21,1.91,1.91,0,0,0,1-1.72l-.1-6.14,5-3.56A1.9,1.9,0,0,0,28.26,212.21Zm-8.8,2.9a1.91,1.91,0,0,0-.8,1.58l.06,3.28L16.08,218a1.93,1.93,0,0,0-1.75-.27l-3.1,1.06,1-3.11A1.93,1.93,0,0,0,12,214l-2-2.62,3.28,0a1.81,1.81,0,0,0,1.57-.81l1.89-2.68,1,3.13A1.94,1.94,0,0,0,19,212.25l3.13,1Zm278,75.62-4.85-1.48-1.52-4.84-2.91,4.15-5.08-.05,3.05,4.06-1.61,4.81,4.8-1.65,4.08,3-.09-5.07Zm-5.23,1.4a1.89,1.89,0,0,0-.8,1.58l0,1.21-1-.72a1.93,1.93,0,0,0-1.75-.27l-1.15.39.39-1.15a1.9,1.9,0,0,0-.29-1.75l-.72-1h1.21a1.75,1.75,0,0,0,1.58-.81l.69-1,.37,1.16a1.88,1.88,0,0,0,1.25,1.25l1.16.35Zm7.11-1.7a1.91,1.91,0,0,0-1.32-1.52l-3.89-1.19-1.22-3.88a1.9,1.9,0,0,0-3.38-.53l-2.34,3.34-4.07,0h0a1.92,1.92,0,0,0-1.7,1,1.94,1.94,0,0,0,.18,2l2.45,3.25-1.3,3.86a1.91,1.91,0,0,0,2.43,2.41l3.85-1.32,3.27,2.42a1.9,1.9,0,0,0,1.13.38,2,2,0,0,0,.88-.21,1.94,1.94,0,0,0,1-1.73l-.07-4.07,3.32-2.36A1.9,1.9,0,0,0,299.35,290.43Zm-11.77,3.89.39-1.15a1.9,1.9,0,0,0-.29-1.75l-.72-1h1.21a1.75,1.75,0,0,0,1.58-.81l.69-1,.37,1.16a1.88,1.88,0,0,0,1.25,1.25l1.16.35-1,.71a1.89,1.89,0,0,0-.8,1.58l0,1.21-1-.72a1.93,1.93,0,0,0-1.75-.27Z"/>
	<path class="cls-3" d="M162.16,252.71a2,2,0,0,0-2.45-.19c-16.21,11.32-38.28,18.42-47.14,10.7-8.49-7.4-1.35-29.68,10.65-45.85a1.94,1.94,0,0,0-2.65-2.75,84.88,84.88,0,0,0-11.71,9.72l-.18.21a74,74,0,0,0-14.13,55.93,1.93,1.93,0,0,0,1.64,1.62,76.29,76.29,0,0,0,11,.81A74.77,74.77,0,0,0,152.1,268l.21-.19a72.25,72.25,0,0,0,10.15-12.64A1.93,1.93,0,0,0,162.16,252.71ZM149.67,265a71,71,0,0,1-51.49,13.51A70.18,70.18,0,0,1,111.7,227c.66-.66,1.33-1.3,2-1.94-8.11,14.69-13,32.94-3.7,41.09,9,7.82,27.39,3.6,43.25-5.07Q151.55,263.06,149.67,265ZM184,247.58l.14.49,1.26-1.26Zm-3.66-.46-.34-.34a.38.38,0,0,0,0,.1l.45.45.13-.05A1.66,1.66,0,0,1,180.32,247.12Zm-49.13-54.45h.07a1.09,1.09,0,0,1,.08-.15Zm27.7-46v-.1c-.1.1-.1.19-.2.29l-1-.08-2.15-.16-1.07,1.86,2.14.16,1.66.13.32.32,1-1.74Zm-29.36,49.7a1,1,0,0,1-.16-.2.34.34,0,0,0-.05.12l.37.37.11,0Zm31-50.76a2,2,0,0,0-.94-.83,1.77,1.77,0,0,0-.55-.13,1.87,1.87,0,0,0-1.11.21l-1.33-.1-.22.32-.08.13-.82,1.41-1.07,1.86,2.14.16,1.66.13.32.32,1-1.74.08-.13c.34-.5.69-1,1-1.49Zm101.83-52a20.65,20.65,0,1,0,0,41.29h.1a20.61,20.61,0,0,0,14.63-6.11A20.21,20.21,0,0,0,283,114.25,20.66,20.66,0,0,0,262.4,93.61Zm0,3.88a16.79,16.79,0,0,1,16.77,16.78,16.43,16.43,0,0,1-4.79,11.79,16.79,16.79,0,1,1-12-28.57ZM300.1,56a20.65,20.65,0,1,0,20.65,20.65A20.67,20.67,0,0,0,300.1,56Zm0,37.42a16.77,16.77,0,1,1,16.77-16.77A16.8,16.8,0,0,1,300.1,93.42Zm0-37.42a20.65,20.65,0,1,0,20.65,20.65A20.67,20.67,0,0,0,300.1,56Zm0,37.42a16.77,16.77,0,1,1,16.77-16.77A16.8,16.8,0,0,1,300.1,93.42Zm-37.7.19a20.65,20.65,0,1,0,0,41.29h.1a20.61,20.61,0,0,0,14.63-6.11A20.21,20.21,0,0,0,283,114.25,20.66,20.66,0,0,0,262.4,93.61Zm0,3.88a16.79,16.79,0,0,1,16.77,16.78,16.43,16.43,0,0,1-4.79,11.79,16.79,16.79,0,1,1-12-28.57Zm0-3.88a20.65,20.65,0,1,0,0,41.29h.1a20.61,20.61,0,0,0,14.63-6.11A20.21,20.21,0,0,0,283,114.25,20.66,20.66,0,0,0,262.4,93.61Zm0,3.88a16.79,16.79,0,0,1,16.77,16.78,16.43,16.43,0,0,1-4.79,11.79,16.79,16.79,0,1,1-12-28.57ZM300.1,56a20.65,20.65,0,1,0,20.65,20.65A20.67,20.67,0,0,0,300.1,56Zm0,37.42a16.77,16.77,0,1,1,16.77-16.77A16.8,16.8,0,0,1,300.1,93.42Zm0-37.42a20.65,20.65,0,1,0,20.65,20.65A20.67,20.67,0,0,0,300.1,56Zm0,37.42a16.77,16.77,0,1,1,16.77-16.77A16.8,16.8,0,0,1,300.1,93.42Zm-37.7.19a20.65,20.65,0,1,0,0,41.29h.1a20.61,20.61,0,0,0,14.63-6.11A20.21,20.21,0,0,0,283,114.25,20.66,20.66,0,0,0,262.4,93.61Zm0,3.88a16.79,16.79,0,0,1,16.77,16.78,16.43,16.43,0,0,1-4.79,11.79,16.79,16.79,0,1,1-12-28.57Zm0-3.88a20.65,20.65,0,1,0,0,41.29h.1a20.61,20.61,0,0,0,14.63-6.11A20.21,20.21,0,0,0,283,114.25,20.66,20.66,0,0,0,262.4,93.61Zm0,3.88a16.79,16.79,0,0,1,16.77,16.78,16.43,16.43,0,0,1-4.79,11.79,16.79,16.79,0,1,1-12-28.57ZM300.1,56a20.65,20.65,0,1,0,20.65,20.65A20.67,20.67,0,0,0,300.1,56Zm0,37.42a16.77,16.77,0,1,1,16.77-16.77A16.8,16.8,0,0,1,300.1,93.42Zm0-37.42a20.65,20.65,0,1,0,20.65,20.65A20.67,20.67,0,0,0,300.1,56Zm0,37.42a16.77,16.77,0,1,1,16.77-16.77A16.8,16.8,0,0,1,300.1,93.42Zm-37.7.19a20.65,20.65,0,1,0,0,41.29h.1a20.61,20.61,0,0,0,14.63-6.11A20.21,20.21,0,0,0,283,114.25,20.66,20.66,0,0,0,262.4,93.61Zm0,3.88a16.79,16.79,0,0,1,16.77,16.78,16.43,16.43,0,0,1-4.79,11.79,16.79,16.79,0,1,1-12-28.57Zm0-3.88a20.65,20.65,0,1,0,0,41.29h.1a20.61,20.61,0,0,0,14.63-6.11A20.21,20.21,0,0,0,283,114.25,20.66,20.66,0,0,0,262.4,93.61Zm0,3.88a16.79,16.79,0,0,1,16.77,16.78,16.43,16.43,0,0,1-4.79,11.79,16.79,16.79,0,1,1-12-28.57ZM300.1,56a20.65,20.65,0,1,0,20.65,20.65A20.67,20.67,0,0,0,300.1,56Zm0,37.42a16.77,16.77,0,1,1,16.77-16.77A16.8,16.8,0,0,1,300.1,93.42Zm0-37.42a20.65,20.65,0,1,0,20.65,20.65A20.67,20.67,0,0,0,300.1,56Zm0,37.42a16.77,16.77,0,1,1,16.77-16.77A16.8,16.8,0,0,1,300.1,93.42Zm-37.7.19a20.65,20.65,0,1,0,0,41.29h.1a20.61,20.61,0,0,0,14.63-6.11A20.21,20.21,0,0,0,283,114.25,20.66,20.66,0,0,0,262.4,93.61Zm0,3.88a16.79,16.79,0,0,1,16.77,16.78,16.43,16.43,0,0,1-4.79,11.79,16.79,16.79,0,1,1-12-28.57Zm0-3.88a20.65,20.65,0,1,0,0,41.29h.1a20.61,20.61,0,0,0,14.63-6.11A20.21,20.21,0,0,0,283,114.25,20.66,20.66,0,0,0,262.4,93.61Zm0,3.88a16.79,16.79,0,0,1,16.77,16.78,16.43,16.43,0,0,1-4.79,11.79,16.79,16.79,0,1,1-12-28.57ZM300.1,56a20.65,20.65,0,1,0,20.65,20.65A20.67,20.67,0,0,0,300.1,56Zm0,37.42a16.77,16.77,0,1,1,16.77-16.77A16.8,16.8,0,0,1,300.1,93.42Zm0-37.42a20.65,20.65,0,1,0,20.65,20.65A20.67,20.67,0,0,0,300.1,56Zm0,37.42a16.77,16.77,0,1,1,16.77-16.77A16.8,16.8,0,0,1,300.1,93.42Zm-37.7.19a20.65,20.65,0,1,0,0,41.29h.1a20.61,20.61,0,0,0,14.63-6.11A20.21,20.21,0,0,0,283,114.25,20.66,20.66,0,0,0,262.4,93.61Zm0,3.88a16.79,16.79,0,0,1,16.77,16.78,16.43,16.43,0,0,1-4.79,11.79,16.79,16.79,0,1,1-12-28.57Zm0-3.88a20.65,20.65,0,1,0,0,41.29h.1a20.61,20.61,0,0,0,14.63-6.11A20.21,20.21,0,0,0,283,114.25,20.66,20.66,0,0,0,262.4,93.61Zm0,3.88a16.79,16.79,0,0,1,16.77,16.78,16.43,16.43,0,0,1-4.79,11.79,16.79,16.79,0,1,1-12-28.57ZM300.1,56a20.65,20.65,0,1,0,20.65,20.65A20.67,20.67,0,0,0,300.1,56Zm0,37.42a16.77,16.77,0,1,1,16.77-16.77A16.8,16.8,0,0,1,300.1,93.42Zm0-37.42a20.65,20.65,0,1,0,20.65,20.65A20.67,20.67,0,0,0,300.1,56Zm0,37.42a16.77,16.77,0,1,1,16.77-16.77A16.8,16.8,0,0,1,300.1,93.42Zm-37.7.19a20.65,20.65,0,1,0,0,41.29h.1a20.61,20.61,0,0,0,14.63-6.11A20.21,20.21,0,0,0,283,114.25,20.66,20.66,0,0,0,262.4,93.61Zm0,3.88a16.79,16.79,0,0,1,16.77,16.78,16.43,16.43,0,0,1-4.79,11.79,16.79,16.79,0,1,1-12-28.57Zm0-3.88a20.65,20.65,0,1,0,0,41.29h.1a20.61,20.61,0,0,0,14.63-6.11A20.21,20.21,0,0,0,283,114.25,20.66,20.66,0,0,0,262.4,93.61Zm0,3.88a16.79,16.79,0,0,1,16.77,16.78,16.43,16.43,0,0,1-4.79,11.79,16.79,16.79,0,1,1-12-28.57ZM300.1,56a20.65,20.65,0,1,0,20.65,20.65A20.67,20.67,0,0,0,300.1,56Zm0,37.42a16.77,16.77,0,1,1,16.77-16.77A16.8,16.8,0,0,1,300.1,93.42Zm0-37.42a20.65,20.65,0,1,0,20.65,20.65A20.67,20.67,0,0,0,300.1,56Zm0,37.42a16.77,16.77,0,1,1,16.77-16.77A16.8,16.8,0,0,1,300.1,93.42Zm-37.7.19a20.65,20.65,0,1,0,0,41.29h.1a20.61,20.61,0,0,0,14.63-6.11A20.21,20.21,0,0,0,283,114.25,20.66,20.66,0,0,0,262.4,93.61Zm0,3.88a16.79,16.79,0,0,1,16.77,16.78,16.43,16.43,0,0,1-4.79,11.79,16.79,16.79,0,1,1-12-28.57Zm0-3.88a20.65,20.65,0,1,0,0,41.29h.1a20.61,20.61,0,0,0,14.63-6.11A20.21,20.21,0,0,0,283,114.25,20.66,20.66,0,0,0,262.4,93.61Zm0,3.88a16.79,16.79,0,0,1,16.77,16.78,16.43,16.43,0,0,1-4.79,11.79,16.79,16.79,0,1,1-12-28.57ZM300.1,56a20.65,20.65,0,1,0,20.65,20.65A20.67,20.67,0,0,0,300.1,56Zm0,37.42a16.77,16.77,0,1,1,16.77-16.77A16.8,16.8,0,0,1,300.1,93.42Zm0-37.42a20.65,20.65,0,1,0,20.65,20.65A20.67,20.67,0,0,0,300.1,56Zm0,37.42a16.77,16.77,0,1,1,16.77-16.77A16.8,16.8,0,0,1,300.1,93.42Zm-37.7.19a20.65,20.65,0,1,0,0,41.29h.1a20.61,20.61,0,0,0,14.63-6.11A20.21,20.21,0,0,0,283,114.25,20.66,20.66,0,0,0,262.4,93.61Zm0,3.88a16.79,16.79,0,0,1,16.77,16.78,16.43,16.43,0,0,1-4.79,11.79,16.79,16.79,0,1,1-12-28.57Zm0-3.88a20.65,20.65,0,1,0,0,41.29h.1a20.61,20.61,0,0,0,14.63-6.11A20.21,20.21,0,0,0,283,114.25,20.66,20.66,0,0,0,262.4,93.61Zm0,3.88a16.79,16.79,0,0,1,16.77,16.78,16.43,16.43,0,0,1-4.79,11.79,16.79,16.79,0,1,1-12-28.57ZM300.1,56a20.65,20.65,0,1,0,20.65,20.65A20.67,20.67,0,0,0,300.1,56Zm0,37.42a16.77,16.77,0,1,1,16.77-16.77A16.8,16.8,0,0,1,300.1,93.42Zm0-37.42a20.65,20.65,0,1,0,20.65,20.65A20.67,20.67,0,0,0,300.1,56Zm0,37.42a16.77,16.77,0,1,1,16.77-16.77A16.8,16.8,0,0,1,300.1,93.42Zm-37.7.19a20.65,20.65,0,1,0,0,41.29h.1a20.61,20.61,0,0,0,14.63-6.11A20.21,20.21,0,0,0,283,114.25,20.66,20.66,0,0,0,262.4,93.61Zm0,3.88a16.79,16.79,0,0,1,16.77,16.78,16.43,16.43,0,0,1-4.79,11.79,16.79,16.79,0,1,1-12-28.57Zm0-3.88a20.65,20.65,0,1,0,0,41.29h.1a20.61,20.61,0,0,0,14.63-6.11A20.21,20.21,0,0,0,283,114.25,20.66,20.66,0,0,0,262.4,93.61Zm0,3.88a16.79,16.79,0,0,1,16.77,16.78,16.43,16.43,0,0,1-4.79,11.79,16.79,16.79,0,1,1-12-28.57ZM300.1,56a20.65,20.65,0,1,0,20.65,20.65A20.67,20.67,0,0,0,300.1,56Zm0,37.42a16.77,16.77,0,1,1,16.77-16.77A16.8,16.8,0,0,1,300.1,93.42Zm0-37.42a20.65,20.65,0,1,0,20.65,20.65A20.67,20.67,0,0,0,300.1,56Zm0,37.42a16.77,16.77,0,1,1,16.77-16.77A16.8,16.8,0,0,1,300.1,93.42Zm-37.7.19a20.65,20.65,0,1,0,0,41.29h.1a20.61,20.61,0,0,0,14.63-6.11A20.21,20.21,0,0,0,283,114.25,20.66,20.66,0,0,0,262.4,93.61Zm0,3.88a16.79,16.79,0,0,1,16.77,16.78,16.43,16.43,0,0,1-4.79,11.79,16.79,16.79,0,1,1-12-28.57Zm0-3.88a20.65,20.65,0,1,0,0,41.29h.1a20.61,20.61,0,0,0,14.63-6.11A20.21,20.21,0,0,0,283,114.25,20.66,20.66,0,0,0,262.4,93.61Zm0,3.88a16.79,16.79,0,0,1,16.77,16.78,16.43,16.43,0,0,1-4.79,11.79,16.79,16.79,0,1,1-12-28.57ZM300.1,56a20.65,20.65,0,1,0,20.65,20.65A20.67,20.67,0,0,0,300.1,56Zm0,37.42a16.77,16.77,0,1,1,16.77-16.77A16.8,16.8,0,0,1,300.1,93.42Zm0-37.42a20.65,20.65,0,1,0,20.65,20.65A20.67,20.67,0,0,0,300.1,56Zm0,37.42a16.77,16.77,0,1,1,16.77-16.77A16.8,16.8,0,0,1,300.1,93.42Zm-37.7.19a20.65,20.65,0,1,0,0,41.29h.1a20.61,20.61,0,0,0,14.63-6.11A20.21,20.21,0,0,0,283,114.25,20.66,20.66,0,0,0,262.4,93.61Zm0,3.88a16.79,16.79,0,0,1,16.77,16.78,16.43,16.43,0,0,1-4.79,11.79,16.79,16.79,0,1,1-12-28.57Zm0-3.88a20.65,20.65,0,1,0,0,41.29h.1a20.61,20.61,0,0,0,14.63-6.11A20.21,20.21,0,0,0,283,114.25,20.66,20.66,0,0,0,262.4,93.61Zm0,3.88a16.79,16.79,0,0,1,16.77,16.78,16.43,16.43,0,0,1-4.79,11.79,16.79,16.79,0,1,1-12-28.57ZM300.1,56a20.65,20.65,0,1,0,20.65,20.65A20.67,20.67,0,0,0,300.1,56Zm0,37.42a16.77,16.77,0,1,1,16.77-16.77A16.8,16.8,0,0,1,300.1,93.42ZM160.57,145.57a2,2,0,0,0-.94-.83,1.77,1.77,0,0,0-.55-.13L158,146.14l-.34.6c-.25.42-.62,1-1.08,1.86l1.66.13.32.32,1-1.74.08-.13c.34-.5.69-1,1-1.49Zm101.83-52a20.65,20.65,0,1,0,0,41.29h.1a20.61,20.61,0,0,0,14.63-6.11A20.21,20.21,0,0,0,283,114.25,20.66,20.66,0,0,0,262.4,93.61Zm0,3.88a16.79,16.79,0,0,1,16.77,16.78,16.43,16.43,0,0,1-4.79,11.79,16.79,16.79,0,1,1-12-28.57ZM300.1,56a20.65,20.65,0,1,0,20.65,20.65A20.67,20.67,0,0,0,300.1,56Zm0,37.42a16.77,16.77,0,1,1,16.77-16.77A16.8,16.8,0,0,1,300.1,93.42Zm0-37.42a20.65,20.65,0,1,0,20.65,20.65A20.67,20.67,0,0,0,300.1,56Zm0,37.42a16.77,16.77,0,1,1,16.77-16.77A16.8,16.8,0,0,1,300.1,93.42Zm-37.7.19a20.65,20.65,0,1,0,0,41.29h.1a20.61,20.61,0,0,0,14.63-6.11A20.21,20.21,0,0,0,283,114.25,20.66,20.66,0,0,0,262.4,93.61Zm0,3.88a16.79,16.79,0,0,1,16.77,16.78,16.43,16.43,0,0,1-4.79,11.79,16.79,16.79,0,1,1-12-28.57Zm0-3.88a20.65,20.65,0,1,0,0,41.29h.1a20.61,20.61,0,0,0,14.63-6.11A20.21,20.21,0,0,0,283,114.25,20.66,20.66,0,0,0,262.4,93.61Zm0,3.88a16.79,16.79,0,0,1,16.77,16.78,16.43,16.43,0,0,1-4.79,11.79,16.79,16.79,0,1,1-12-28.57ZM300.1,56a20.65,20.65,0,1,0,20.65,20.65A20.67,20.67,0,0,0,300.1,56Zm0,37.42a16.77,16.77,0,1,1,16.77-16.77A16.8,16.8,0,0,1,300.1,93.42Zm0-37.42a20.65,20.65,0,1,0,20.65,20.65A20.67,20.67,0,0,0,300.1,56Zm0,37.42a16.77,16.77,0,1,1,16.77-16.77A16.8,16.8,0,0,1,300.1,93.42Zm-37.7.19a20.65,20.65,0,1,0,0,41.29h.1a20.61,20.61,0,0,0,14.63-6.11A20.21,20.21,0,0,0,283,114.25,20.66,20.66,0,0,0,262.4,93.61Zm0,3.88a16.79,16.79,0,0,1,16.77,16.78,16.43,16.43,0,0,1-4.79,11.79,16.79,16.79,0,1,1-12-28.57Zm0-3.88a20.65,20.65,0,1,0,0,41.29h.1a20.61,20.61,0,0,0,14.63-6.11A20.21,20.21,0,0,0,283,114.25,20.66,20.66,0,0,0,262.4,93.61Zm0,3.88a16.79,16.79,0,0,1,16.77,16.78,16.43,16.43,0,0,1-4.79,11.79,16.79,16.79,0,1,1-12-28.57ZM300.1,56a20.65,20.65,0,1,0,20.65,20.65A20.67,20.67,0,0,0,300.1,56Zm0,37.42a16.77,16.77,0,1,1,16.77-16.77A16.8,16.8,0,0,1,300.1,93.42Zm0-37.42a20.65,20.65,0,1,0,20.65,20.65A20.67,20.67,0,0,0,300.1,56Zm0,37.42a16.77,16.77,0,1,1,16.77-16.77A16.8,16.8,0,0,1,300.1,93.42Zm-37.7.19a20.65,20.65,0,1,0,0,41.29h.1a20.61,20.61,0,0,0,14.63-6.11A20.21,20.21,0,0,0,283,114.25,20.66,20.66,0,0,0,262.4,93.61Zm0,3.88a16.79,16.79,0,0,1,16.77,16.78,16.43,16.43,0,0,1-4.79,11.79,16.79,16.79,0,1,1-12-28.57Zm0-3.88a20.65,20.65,0,1,0,0,41.29h.1a20.61,20.61,0,0,0,14.63-6.11A20.21,20.21,0,0,0,283,114.25,20.66,20.66,0,0,0,262.4,93.61Zm0,3.88a16.79,16.79,0,0,1,16.77,16.78,16.43,16.43,0,0,1-4.79,11.79,16.79,16.79,0,1,1-12-28.57ZM300.1,56a20.65,20.65,0,1,0,20.65,20.65A20.67,20.67,0,0,0,300.1,56Zm0,37.42a16.77,16.77,0,1,1,16.77-16.77A16.8,16.8,0,0,1,300.1,93.42Zm0-37.42a20.65,20.65,0,1,0,20.65,20.65A20.67,20.67,0,0,0,300.1,56Zm0,37.42a16.77,16.77,0,1,1,16.77-16.77A16.8,16.8,0,0,1,300.1,93.42Zm-37.7.19a20.65,20.65,0,1,0,0,41.29h.1a20.61,20.61,0,0,0,14.63-6.11A20.21,20.21,0,0,0,283,114.25,20.66,20.66,0,0,0,262.4,93.61Zm0,3.88a16.79,16.79,0,0,1,16.77,16.78,16.43,16.43,0,0,1-4.79,11.79,16.79,16.79,0,1,1-12-28.57Zm0-3.88a20.65,20.65,0,1,0,0,41.29h.1a20.61,20.61,0,0,0,14.63-6.11A20.21,20.21,0,0,0,283,114.25,20.66,20.66,0,0,0,262.4,93.61Zm0,3.88a16.79,16.79,0,0,1,16.77,16.78,16.43,16.43,0,0,1-4.79,11.79,16.79,16.79,0,1,1-12-28.57ZM300.1,56a20.65,20.65,0,1,0,20.65,20.65A20.67,20.67,0,0,0,300.1,56Zm0,37.42a16.77,16.77,0,1,1,16.77-16.77A16.8,16.8,0,0,1,300.1,93.42Zm0-37.42a20.65,20.65,0,1,0,20.65,20.65A20.67,20.67,0,0,0,300.1,56Zm0,37.42a16.77,16.77,0,1,1,16.77-16.77A16.8,16.8,0,0,1,300.1,93.42Zm-37.7.19a20.65,20.65,0,1,0,0,41.29h.1a20.61,20.61,0,0,0,14.63-6.11A20.21,20.21,0,0,0,283,114.25,20.66,20.66,0,0,0,262.4,93.61Zm0,3.88a16.79,16.79,0,0,1,16.77,16.78,16.43,16.43,0,0,1-4.79,11.79,16.79,16.79,0,1,1-12-28.57Zm0-3.88a20.65,20.65,0,1,0,0,41.29h.1a20.61,20.61,0,0,0,14.63-6.11A20.21,20.21,0,0,0,283,114.25,20.66,20.66,0,0,0,262.4,93.61Zm0,3.88a16.79,16.79,0,0,1,16.77,16.78,16.43,16.43,0,0,1-4.79,11.79,16.79,16.79,0,1,1-12-28.57ZM300.1,56a20.65,20.65,0,1,0,20.65,20.65A20.67,20.67,0,0,0,300.1,56Zm0,37.42a16.77,16.77,0,1,1,16.77-16.77A16.8,16.8,0,0,1,300.1,93.42Zm0-37.42a20.65,20.65,0,1,0,20.65,20.65A20.67,20.67,0,0,0,300.1,56Zm0,37.42a16.77,16.77,0,1,1,16.77-16.77A16.8,16.8,0,0,1,300.1,93.42Zm-37.7.19a20.65,20.65,0,1,0,0,41.29h.1a20.61,20.61,0,0,0,14.63-6.11A20.21,20.21,0,0,0,283,114.25,20.66,20.66,0,0,0,262.4,93.61Zm0,3.88a16.79,16.79,0,0,1,16.77,16.78,16.43,16.43,0,0,1-4.79,11.79,16.79,16.79,0,1,1-12-28.57Zm0-3.88a20.65,20.65,0,1,0,0,41.29h.1a20.61,20.61,0,0,0,14.63-6.11A20.21,20.21,0,0,0,283,114.25,20.66,20.66,0,0,0,262.4,93.61Zm0,3.88a16.79,16.79,0,0,1,16.77,16.78,16.43,16.43,0,0,1-4.79,11.79,16.79,16.79,0,1,1-12-28.57ZM300.1,56a20.65,20.65,0,1,0,20.65,20.65A20.67,20.67,0,0,0,300.1,56Zm0,37.42a16.77,16.77,0,1,1,16.77-16.77A16.8,16.8,0,0,1,300.1,93.42Zm0-37.42a20.65,20.65,0,1,0,20.65,20.65A20.67,20.67,0,0,0,300.1,56Zm0,37.42a16.77,16.77,0,1,1,16.77-16.77A16.8,16.8,0,0,1,300.1,93.42Zm-37.7.19a20.65,20.65,0,1,0,0,41.29h.1a20.61,20.61,0,0,0,14.63-6.11A20.21,20.21,0,0,0,283,114.25,20.66,20.66,0,0,0,262.4,93.61Zm0,3.88a16.79,16.79,0,0,1,16.77,16.78,16.43,16.43,0,0,1-4.79,11.79,16.79,16.79,0,1,1-12-28.57ZM180.32,247.12,129.8,196.6l-.27-.27a1,1,0,0,1-.16-.2.34.34,0,0,0-.05.12l19.87,19.87,5.63,5.62.09.1,25,25,.45.45.13-.05A1.66,1.66,0,0,1,180.32,247.12ZM262.4,93.61a20.65,20.65,0,1,0,0,41.29h.1a20.61,20.61,0,0,0,14.63-6.11A20.21,20.21,0,0,0,283,114.25,20.66,20.66,0,0,0,262.4,93.61Zm0,3.88a16.79,16.79,0,0,1,16.77,16.78,16.43,16.43,0,0,1-4.79,11.79,16.79,16.79,0,1,1-12-28.57ZM300.1,56a20.65,20.65,0,1,0,20.65,20.65A20.67,20.67,0,0,0,300.1,56Zm0,37.42a16.77,16.77,0,1,1,16.77-16.77A16.8,16.8,0,0,1,300.1,93.42Zm0-37.42a20.65,20.65,0,1,0,20.65,20.65A20.67,20.67,0,0,0,300.1,56Zm0,37.42a16.77,16.77,0,1,1,16.77-16.77A16.8,16.8,0,0,1,300.1,93.42Zm-37.7.19a20.65,20.65,0,1,0,0,41.29h.1a20.61,20.61,0,0,0,14.63-6.11A20.21,20.21,0,0,0,283,114.25,20.66,20.66,0,0,0,262.4,93.61Zm0,3.88a16.79,16.79,0,0,1,16.77,16.78,16.43,16.43,0,0,1-4.79,11.79,16.79,16.79,0,1,1-12-28.57Zm0-3.88a20.65,20.65,0,1,0,0,41.29h.1a20.61,20.61,0,0,0,14.63-6.11A20.21,20.21,0,0,0,283,114.25,20.66,20.66,0,0,0,262.4,93.61Zm0,3.88a16.79,16.79,0,0,1,16.77,16.78,16.43,16.43,0,0,1-4.79,11.79,16.79,16.79,0,1,1-12-28.57ZM300.1,56a20.65,20.65,0,1,0,20.65,20.65A20.67,20.67,0,0,0,300.1,56Zm0,37.42a16.77,16.77,0,1,1,16.77-16.77A16.8,16.8,0,0,1,300.1,93.42Zm0-37.42a20.65,20.65,0,1,0,20.65,20.65A20.67,20.67,0,0,0,300.1,56Zm0,37.42a16.77,16.77,0,1,1,16.77-16.77A16.8,16.8,0,0,1,300.1,93.42Zm-37.7.19a20.65,20.65,0,1,0,0,41.29h.1a20.61,20.61,0,0,0,14.63-6.11A20.21,20.21,0,0,0,283,114.25,20.66,20.66,0,0,0,262.4,93.61Zm0,3.88a16.79,16.79,0,0,1,16.77,16.78,16.43,16.43,0,0,1-4.79,11.79,16.79,16.79,0,1,1-12-28.57Zm0-3.88a20.65,20.65,0,1,0,0,41.29h.1a20.61,20.61,0,0,0,14.63-6.11A20.21,20.21,0,0,0,283,114.25,20.66,20.66,0,0,0,262.4,93.61Zm0,3.88a16.79,16.79,0,0,1,16.77,16.78,16.43,16.43,0,0,1-4.79,11.79,16.79,16.79,0,1,1-12-28.57ZM300.1,56a20.65,20.65,0,1,0,20.65,20.65A20.67,20.67,0,0,0,300.1,56Zm0,37.42a16.77,16.77,0,1,1,16.77-16.77A16.8,16.8,0,0,1,300.1,93.42Zm0-37.42a20.65,20.65,0,1,0,20.65,20.65A20.67,20.67,0,0,0,300.1,56Zm0,37.42a16.77,16.77,0,1,1,16.77-16.77A16.8,16.8,0,0,1,300.1,93.42Zm-37.7.19a20.65,20.65,0,1,0,0,41.29h.1a20.61,20.61,0,0,0,14.63-6.11A20.21,20.21,0,0,0,283,114.25,20.66,20.66,0,0,0,262.4,93.61Zm0,3.88a16.79,16.79,0,0,1,16.77,16.78,16.43,16.43,0,0,1-4.79,11.79,16.79,16.79,0,1,1-12-28.57Zm0-3.88a20.65,20.65,0,1,0,0,41.29h.1a20.61,20.61,0,0,0,14.63-6.11A20.21,20.21,0,0,0,283,114.25,20.66,20.66,0,0,0,262.4,93.61Zm0,3.88a16.79,16.79,0,0,1,16.77,16.78,16.43,16.43,0,0,1-4.79,11.79,16.79,16.79,0,1,1-12-28.57ZM300.1,56a20.65,20.65,0,1,0,20.65,20.65A20.67,20.67,0,0,0,300.1,56Zm0,37.42a16.77,16.77,0,1,1,16.77-16.77A16.8,16.8,0,0,1,300.1,93.42Zm0-37.42a20.65,20.65,0,1,0,20.65,20.65A20.67,20.67,0,0,0,300.1,56Zm0,37.42a16.77,16.77,0,1,1,16.77-16.77A16.8,16.8,0,0,1,300.1,93.42Zm-37.7.19a20.65,20.65,0,1,0,0,41.29h.1a20.61,20.61,0,0,0,14.63-6.11A20.21,20.21,0,0,0,283,114.25,20.66,20.66,0,0,0,262.4,93.61Zm0,3.88a16.79,16.79,0,0,1,16.77,16.78,16.43,16.43,0,0,1-4.79,11.79,16.79,16.79,0,1,1-12-28.57ZM131.19,192.67h.07a1.09,1.09,0,0,1,.08-.15Zm49.13,54.45L129.8,196.6l-.27-.27a1,1,0,0,1-.16-.2.34.34,0,0,0-.05.12l19.87,19.87,5.63,5.62.09.1,25,25,.45.45.13-.05A1.66,1.66,0,0,1,180.32,247.12ZM160.57,145.57a2,2,0,0,0-.94-.83,1.77,1.77,0,0,0-.55-.13,1.87,1.87,0,0,0-1.11.21l-1.33-.1-.22.32-.08.13-.82,1.41-1.07,1.86,2.14.16,1.66.13.32.32,1-1.74.08-.13c.34-.5.69-1,1-1.49ZM363.1,20.68s0-.09,0-.13A9.46,9.46,0,0,0,361,15.91a2.37,2.37,0,0,0-.28-.27,9.48,9.48,0,0,0-4.63-2.07H356a233.92,233.92,0,0,0-32-.2A193.3,193.3,0,0,0,297,17c-26.63,5.54-48,16.22-63.44,31.79a867.85,867.85,0,0,0-76.91,95.94l1.33.1a1.87,1.87,0,0,1,1.11-.21,1.77,1.77,0,0,1,.55.13,2,2,0,0,1,.94.83l.12.12a864.55,864.55,0,0,1,75.65-94.23c14.89-15,35.56-25.29,61.44-30.68l1.48-.3a104,104,0,0,1,56.89,57c-.09.46-.18.92-.28,1.38-5.4,26-15.72,46.65-30.62,61.39A874.63,874.63,0,0,1,231,216l-1.49,1-.13.08-1.74,1c-12.61,7.3-28.79,16.63-38.77,22.33l-20.51-20.51a13.92,13.92,0,0,0,2.06-1.79l36.15-38.57a6.9,6.9,0,0,0,0-9.31l-.07-.07-.14-.14a6.61,6.61,0,0,0-9.25.09l-38.48,36.26a14.3,14.3,0,0,0-1.79,2L141,192.54l-2.76-2.76-2-2c5.7-10,15-26.15,22.33-38.77l-.32-.32-1.66-.13-2.14-.16c-11.16,19.26-17.71,30.65-21.56,37.43a1.84,1.84,0,0,0-.87.48l-5.28,5.29a1.24,1.24,0,0,0-.18.22L91.62,181.7a2.73,2.73,0,0,1-1.74-1.64v-.77a2.55,2.55,0,0,1,.69-1.83l30.53-30.53a.86.86,0,0,0,.13-.14A2,2,0,0,1,123,146h.13l31.28,2.4,1.07-1.86.82-1.41.08-.13.22-.32-33.12-2.54a5.9,5.9,0,0,0-5.22,2.07L87.83,174.72A6.39,6.39,0,0,0,86,179.29v1.07a1.73,1.73,0,0,0,.07.5,6.63,6.63,0,0,0,4.43,4.56l34.79,10.1a5.2,5.2,0,0,0,1.5,3.56l50.84,50.83a5.45,5.45,0,0,0,3.42,1.45l10.2,34.93a6.61,6.61,0,0,0,4.55,4.4,2.07,2.07,0,0,0,.5.06h1.06a6.39,6.39,0,0,0,4.57-1.83l30.48-30.47a5.92,5.92,0,0,0,2.07-5.32L231.93,220a877.12,877.12,0,0,0,96-76.95c15.5-15.33,26.18-36.66,31.75-63.4a194.4,194.4,0,0,0,3.62-27A233.9,233.9,0,0,0,363.1,20.68ZM158.74,213.07a8.48,8.48,0,0,1,.89-1.85,10.43,10.43,0,0,1,1.65-2l38.52-36.29a2.8,2.8,0,0,1,2-.83,2.68,2.68,0,0,1,1.86.73l.06.06a3,3,0,0,1,0,4,0,0,0,0,1,0,0l-36.14,38.57a10.13,10.13,0,0,1-2,1.66,8.31,8.31,0,0,1-1.88.86,6.22,6.22,0,0,1-1.76.31,3.44,3.44,0,0,1-.7,0h0a3.08,3.08,0,0,1-1.81-.8l-.12-.12a3,3,0,0,1-.84-1.85c0-.15,0-.31,0-.48A6.15,6.15,0,0,1,158.74,213.07Zm-31.44-17,.1,0a.49.49,0,0,0,0,.12,1.36,1.36,0,0,0,0,.29A3.17,3.17,0,0,1,127.3,196.1Zm52.94,53.15a.44.44,0,0,0,.16,0h0l0,0Zm1.67-1.86a1.54,1.54,0,0,1-1.37-.11h0l-.13.05-.45-.45-25-25-.09-.1-5.63-5.62-19.87-19.87a.34.34,0,0,1,.05-.12,1.49,1.49,0,0,1-.06-1.46,1.11,1.11,0,0,1,.22-.34l3.87-3.87.85.85,2.88,2.88,1.37,1.38,16.5,16.5a10.29,10.29,0,0,0-.47,2.92,6.84,6.84,0,0,0,2,5.12l.12.12a7.18,7.18,0,0,0,5.11,2H162a10,10,0,0,0,2.67-.45l17.76,17.76,1.47,1.47,1.45,1.45.85.85-3.86,3.86A1.17,1.17,0,0,1,181.91,247.39Zm2.07.19,1.4-.77-1.26,1.26Zm45.87,7.95-.13.12-30.53,30.53a2.55,2.55,0,0,1-1.83.69h-.77a2.72,2.72,0,0,1-1.63-1.7l-10.23-35a3.17,3.17,0,0,0,.34-.3l5.23-5.23a1.77,1.77,0,0,0,.49-.87c6.78-3.85,18.17-10.4,37.42-21.55l2.4,31.28s0,.08,0,.12A2.05,2.05,0,0,1,229.85,255.53ZM355.62,17.42a5.62,5.62,0,0,1,2.52,1.1,5.57,5.57,0,0,1,1.1,2.52,228.65,228.65,0,0,1,.2,30.94A118.69,118.69,0,0,0,324.71,17.2,229.89,229.89,0,0,1,355.62,17.42Zm-37.35.35a114.86,114.86,0,0,1,40.52,40.51c-.4,4-.91,8-1.54,12.06a108.11,108.11,0,0,0-51.05-51C310.16,18.69,314.2,18.18,318.27,17.77ZM300.1,57.94a18.7,18.7,0,1,0,18.71,18.71A18.78,18.78,0,0,0,300.1,57.94Zm0,35.48a16.77,16.77,0,1,1,16.77-16.77A16.8,16.8,0,0,1,300.1,93.42Zm0-37.42a20.65,20.65,0,1,0,20.65,20.65A20.67,20.67,0,0,0,300.1,56Zm0,37.42a16.77,16.77,0,1,1,16.77-16.77A16.8,16.8,0,0,1,300.1,93.42Zm-37.7,2.13a18.71,18.71,0,1,0,0,37.41h.08a18.6,18.6,0,0,0,18.63-18.54v-.16A18.79,18.79,0,0,0,262.4,95.55Zm12,30.51a16.82,16.82,0,1,1,4.79-11.79A16.43,16.43,0,0,1,274.38,126.06Zm-12-32.45a20.65,20.65,0,1,0,0,41.29h.1a20.61,20.61,0,0,0,14.63-6.11A20.21,20.21,0,0,0,283,114.25,20.66,20.66,0,0,0,262.4,93.61Zm0,3.88a16.79,16.79,0,0,1,16.77,16.78,16.43,16.43,0,0,1-4.79,11.79,16.79,16.79,0,1,1-12-28.57Zm-135,98.76a.49.49,0,0,1,0-.12l-.1,0a3.17,3.17,0,0,0,.12.44A1.36,1.36,0,0,1,127.39,196.25Zm3.8-3.58h.07a1.09,1.09,0,0,1,.08-.15Zm49.13,54.45L129.8,196.6l-.27-.27a1,1,0,0,1-.16-.2.34.34,0,0,0-.05.12l19.87,19.87,5.63,5.62.09.1,25,25,.45.45.13-.05A1.66,1.66,0,0,1,180.32,247.12Zm.11,2.15h0a.44.44,0,0,1-.16,0l.21.07Zm3.55-1.69.14.49,1.26-1.26Zm-56.59-51.33a.49.49,0,0,1,0-.12l-.1,0a3.17,3.17,0,0,0,.12.44A1.36,1.36,0,0,1,127.39,196.25Zm52.93,50.87L129.8,196.6l-.27-.27a1,1,0,0,1-.16-.2.34.34,0,0,0-.05.12l19.87,19.87,5.63,5.62.09.1,25,25,.45.45.13-.05A1.66,1.66,0,0,1,180.32,247.12Zm.11,2.15h0a.44.44,0,0,1-.16,0l.21.07Zm3.55-1.69.14.49,1.26-1.26Z"/>
	<path class="cls-4" d="M182.87,85.55A31.39,31.39,0,0,1,151.54,117H64.81A28,28,0,0,1,50.63,64.88a23.11,23.11,0,0,1-.28-3.9A24.47,24.47,0,0,1,74.8,36.48h0a24.23,24.23,0,0,1,9.92,2.13,38.87,38.87,0,0,1,73.35,16.12A31.52,31.52,0,0,1,182.87,85.55Z"/>
	<path class="cls-5" d="M424.37,230.83a38.94,38.94,0,0,1-38.85,39H278a34.75,34.75,0,0,1-17.57-64.66,29.24,29.24,0,0,1-.35-4.85A30.35,30.35,0,0,1,290.39,170h0a30,30,0,0,1,12.3,2.64,48.18,48.18,0,0,1,90.93,20A39.09,39.09,0,0,1,424.37,230.83Z"/>
</svg>