<?xml version="1.0" encoding="utf-8"?>
<!-- Generator: Adobe Illustrator 24.0.0, SVG Export Plug-In . SVG Version: 6.00 Build 0)  -->
<svg version="1.1" id="aff27fa8-9a6b-447a-a8be-1d97423a5f1c"
	 xmlns="http://www.w3.org/2000/svg" xmlns:xlink="http://www.w3.org/1999/xlink" x="0px" y="0px" viewBox="0 0 286.5 286.5"
	 style="enable-background:new 0 0 286.5 286.5;" xml:space="preserve">
<style type="text/css">
	.st0{fill: #303134;
        ;stroke:#83D7F7;stroke-width:4;stroke-linecap:round;stroke-linejoin:round;}
</style>
<title>07-main-home V02.01 (rocket)</title>
<g>
	<path class="st0" d="M67,261.5c-16.1,12-36.3,17.1-56.2,14.2c-3-19.9,2.1-40.1,14.2-56.2c3.6-3.6,7.6-6.9,11.8-9.8
		c-12.4,16.7-20.8,41.2-10.7,50c10.1,8.8,33.9,1.1,51.1-10.9C74.3,253.4,70.8,257.7,67,261.5z"/>
	<g>
		<g>
			<path class="st0" d="M151.2,248l-2.8-36.5c0.1-0.1,0.2-0.1,0.3-0.2h-0.1l-9.6-9.6L99,234.1v7.4l-0.1,0.2l0,0l11.6,39.7
				c0.5,1.6,1.8,2.8,3.3,3.2h1.1c1.2,0,2.4-0.4,3.3-1.3l31.5-31.5C150.9,250.8,151.4,249.4,151.2,248z"/>
			<path class="st0" d="M38.5,135.3l36.5,2.8c0.1-0.1,0.1-0.2,0.2-0.3v0.1l9.6,9.6l-32.4,39.9H45l-0.2,0.1l0,0L5.2,176
				c-1.6-0.5-2.8-1.8-3.2-3.3v-1.1c0-1.2,0.4-2.4,1.3-3.3l31.5-31.5C35.7,135.7,37.1,135.1,38.5,135.3z"/>
		</g>
		<path class="st0" d="M280.4,68.4c1.9-9.1,3.1-18.3,3.7-27.6c0.7-10.9,0.6-21.8-0.2-32.7c-0.2-1.4-0.8-2.7-1.7-3.8l0,0
			c-1.1-0.9-2.4-1.5-3.8-1.7c-10.9-0.8-21.8-0.9-32.7-0.2c-9.3,0.6-18.5,1.8-27.6,3.7C196,10.7,171.9,20,153.7,38.3
			c-28.8,31.1-55.3,64.2-79.4,99.1c0,0-29.6,51.1-29.6,51.7l20.5,20.5l5.8,5.8l0.1,0.1l5,5l21.3,21.3c0.6,0,51.7-29.6,51.7-29.6
			c34.9-24.1,68-50.7,99.1-79.4C266.6,114.6,275.8,90.5,280.4,68.4z"/>
		<path class="st0" d="M220.9,85c-10.7,0-19.3-8.7-19.3-19.3s8.7-19.3,19.3-19.3s19.3,8.7,19.3,19.3l0,0
			C240.2,76.3,231.6,85,220.9,85C220.9,85,220.9,85,220.9,85z"/>
		<path class="st0" d="M182,123.8c-10.7,0-19.3-8.7-19.3-19.3s8.7-19.3,19.3-19.3s19.3,8.7,19.3,19.3l0,0
			C201.4,115.1,192.8,123.8,182,123.8C182.1,123.8,182.1,123.8,182,123.8z"/>
		<path class="st0" d="M240.1,2.9c-6.2,0.6-12.9,1.5-19.8,2.8c27.5,11.1,49.4,32.9,60.4,60.4c1.3-6.9,2.2-13.5,2.8-19.8
			C273.1,28.4,258.1,13.4,240.1,2.9z"/>
		<path class="st0" d="M48.9,180.3l57.3,57.3l0,0l-5.4,5.4c-1.3,1.3-3.5,1.3-4.9,0c0,0,0,0,0,0l-52.4-52.4c-1.3-1.3-1.3-3.5,0-4.9
			l0,0L48.9,180.3L48.9,180.3z"/>
		<path class="st0" d="M122.9,170.5c1.8-1.9,1.8-4.9,0-6.9l-0.1-0.1c-1.9-1.8-4.9-1.8-6.8,0.1L76.3,201c-3.7,3.5-4.8,8.7-2.1,11.3
			l0.1,0.1c2.7,2.6,7.8,1.6,11.3-2.1L122.9,170.5z"/>
	</g>
</g>
</svg>
