<svg id="bbc582c2-6695-48ba-922c-e1e34d1700f8" data-name="Layer 1" xmlns="http://www.w3.org/2000/svg" viewBox="0 0 463.26583 312.53756">
  <defs>
    <style>
      .f9f5ae9d-8678-45f4-ad3d-24bd65612ef2 {
        fill: #303134;
        stroke: #ffffff;
        stroke-linecap: round;
        stroke-linejoin: round;
        stroke-width: 4px;
      }
    </style>
  </defs>
  <title>07-main-home V02.01 (rocket)</title>
  <g>
    <polygon class="f9f5ae9d-8678-45f4-ad3d-24bd65612ef2" points="173.431 17.144 165.937 17.066 161.624 23.195 159.383 16.043 152.221 13.835 158.33 9.494 158.217 2 164.233 6.468 171.325 4.045 168.935 11.148 173.431 17.144"/>
    <polygon class="f9f5ae9d-8678-45f4-ad3d-24bd65612ef2" points="447.69 101.764 443.964 93.344 434.915 91.641 441.771 85.495 440.595 76.362 448.559 80.984 456.881 77.043 454.947 86.045 461.266 92.742 452.107 93.684 447.69 101.764"/>
    <polygon class="f9f5ae9d-8678-45f4-ad3d-24bd65612ef2" points="17.234 231.837 11.212 227.377 4.123 229.809 6.504 222.703 2 216.713 9.494 216.781 13.799 210.647 16.05 217.795 23.215 219.994 17.111 224.344 17.234 231.837"/>
    <polygon class="f9f5ae9d-8678-45f4-ad3d-24bd65612ef2" points="303.611 310.538 299.33 307.367 294.292 309.096 295.985 304.046 292.784 299.788 298.11 299.837 301.17 295.477 302.769 300.558 307.861 302.121 303.523 305.212 303.611 310.538"/>
  </g>
</svg>
