<?xml version="1.0" encoding="utf-8"?>
<!-- Generator: Adobe Illustrator 21.0.0, SVG Export Plug-In . SVG Version: 6.00 Build 0)  -->
<svg version="1.1" id="Layer_1" xmlns="http://www.w3.org/2000/svg" xmlns:xlink="http://www.w3.org/1999/xlink" x="0px" y="0px"
	 viewBox="0 0 20 20" style="enable-background:new 0 0 20 20;" xml:space="preserve">
<style type="text/css">
	.st0{fill:none;stroke:#333333;stroke-width:0.7939;stroke-linecap:round;stroke-miterlimit:10;}
</style>
<title>development</title>
<path d="M8.3,11.7L8.1,12C8,12,8,12,7.9,12c0,0,0,0,0,0L5.6,9.7c0,0,0-0.1,0-0.1c0,0,0-0.1,0-0.1l2.2-2.2C8,7.2,8,7.2,8.1,7.3
	c0,0,0,0,0,0l0.2,0.2c0,0,0,0.1,0,0.1c0,0,0,0.1,0,0.1L6.5,9.6l1.9,1.9C8.4,11.6,8.4,11.7,8.3,11.7C8.3,11.7,8.3,11.7,8.3,11.7z
	 M11.2,6.7l-1.8,6.2c0,0,0,0.1-0.1,0.1c0,0-0.1,0-0.1,0l-0.3-0.1c0,0-0.1,0-0.1-0.1c0,0,0-0.1,0-0.1l1.8-6.2c0,0,0-0.1,0.1-0.1
	c0,0,0.1,0,0.1,0l0.3,0.1c0,0,0.1,0,0.1,0.1C11.2,6.6,11.2,6.6,11.2,6.7L11.2,6.7z M14.4,9.8l-2.2,2.2c-0.1,0.1-0.2,0.1-0.2,0
	c0,0,0,0,0,0l-0.2-0.2c-0.1-0.1-0.1-0.2,0-0.2c0,0,0,0,0,0l1.9-1.9l-1.9-2c-0.1-0.1-0.1-0.2,0-0.2c0,0,0,0,0,0l0.2-0.2
	c0,0,0.1,0,0.1,0c0,0,0.1,0,0.1,0l2.2,2.2c0,0,0,0.1,0,0.1C14.4,9.7,14.4,9.7,14.4,9.8L14.4,9.8z"/>
<path class="st0" d="M10,1.8l-6.7,3v4.5c0,4.1,2.9,8,6.7,8.9c3.8-0.9,6.7-4.8,6.7-8.9V4.8L10,1.8z"/>
</svg>
