<?xml version="1.0" encoding="utf-8"?>
<!-- Generator: Adobe Illustrator 21.0.0, SVG Export Plug-In . SVG Version: 6.00 Build 0)  -->
<svg version="1.1" id="Layer_1" xmlns="http://www.w3.org/2000/svg" xmlns:xlink="http://www.w3.org/1999/xlink" x="0px" y="0px"
	 viewBox="0 0 20 20" style="enable-background:new 0 0 20 20;" xml:space="preserve">
<style type="text/css">
	.st0{fill:#0A2135;}
</style>
<title>development</title>
<path class="st0" d="M16.1,3.5H3.8c-0.9,0-1.6,0.7-1.6,1.6l0,0v7.7c0,0.9,0.7,1.6,1.6,1.6l0,0h3.7v1.4H6.9c-0.2,0-0.4,0.2-0.4,0.4
	c0,0.2,0.2,0.4,0.4,0.4h6.3c0.2,0,0.4-0.2,0.4-0.4c0-0.2-0.2-0.4-0.4-0.4l0,0h-0.7v-1.4h3.7c0.9,0,1.6-0.7,1.6-1.6V5.1
	C17.8,4.2,17.1,3.5,16.1,3.5z M11.8,14.5v1.4H8.2v-1.4L11.8,14.5z M2.9,5.1c0-0.5,0.4-0.9,0.9-0.9l0,0h12.3c0.5,0,0.9,0.4,0.9,0.9
	l0,0V12H2.9V5.1z M16.1,13.7H3.8c-0.5,0-0.9-0.4-0.9-0.9l0,0v-0.1h14.1v0.1C17.1,13.3,16.7,13.7,16.1,13.7L16.1,13.7z"/>
<path class="st0" d="M8.7,10.1l-0.2,0.2c0,0-0.1,0-0.2,0c0,0,0,0,0,0L6.6,8.5c0,0,0-0.1,0-0.1c0,0,0-0.1,0-0.1l1.8-1.8
	c0,0,0.1,0,0.2,0c0,0,0,0,0,0l0.2,0.2c0,0,0,0.1,0,0.1c0,0,0,0.1,0,0.1L7.2,8.4l1.5,1.5C8.7,9.9,8.7,10,8.7,10.1
	C8.7,10.1,8.7,10.1,8.7,10.1z M10.9,6.1L9.5,11c0,0,0,0.1-0.1,0.1c0,0-0.1,0-0.1,0L9.1,11c0,0-0.1,0-0.1-0.1c0,0,0-0.1,0-0.1
	l1.4-4.9c0,0,0-0.1,0.1-0.1c0,0,0.1,0,0.1,0l0.2,0.1C10.9,5.9,10.9,5.9,10.9,6.1C10.9,6,10.9,6,10.9,6.1L10.9,6.1z M13.4,8.5
	l-1.8,1.8c0,0-0.1,0-0.2,0c0,0,0,0,0,0l-0.2-0.2c0,0,0-0.1,0-0.2c0,0,0,0,0,0l1.5-1.5l-1.5-1.6c0,0,0-0.1,0-0.2c0,0,0,0,0,0l0.2-0.2
	c0,0,0.1,0,0.1,0c0,0,0.1,0,0.1,0l1.8,1.8c0,0,0,0.1,0,0.1C13.4,8.4,13.4,8.5,13.4,8.5L13.4,8.5z"/>
</svg>
