<?xml version="1.0" encoding="utf-8" ?>
<!-- Generator: Adobe Illustrator 21.0.0, SVG Export Plug-In . SVG Version: 6.00 Build 0)  -->
<svg version="1.1" class="navicon" id="Layer_1" xmlns="http://www.w3.org/2000/svg" xmlns:xlink="http://www.w3.org/1999/xlink" x="0px" y="0px" viewBox="0 0 20 20" style="enable-background:new 0 0 20 20;" xml:space="preserve">
	
    <style type="text/css">
    </style>

    <title>user_management</title>
    <path class="st0" d="M13.5,9.6c-1.4,0-2.8,0.6-3.7,1.6l0.4,0.4c0.8-0.9,2-1.4,3.3-1.4c2.2,0,4,1.5,4,3.3c0,0.4-1.4,1-4,1
	c-0.6,0-1.3,0-1.9-0.1c0,0.1,0,0.2,0,0.2c0,0.1,0,0.2,0,0.3c0.6,0.1,1.3,0.2,1.9,0.2c2.3,0,4.5-0.5,4.5-1.6C18,11.3,16,9.6,13.5,9.6
	z" />
    <path class="st0" d="M13.5,3.9c-1.4,0-2.6,1.2-2.6,2.6S12.1,9,13.5,9s2.6-1.2,2.6-2.6l0,0C16.1,5,14.9,3.9,13.5,3.9z M13.5,8.5
	c-1.1,0-2-0.9-2-2s0.9-2,2-2s2,0.9,2,2S14.6,8.5,13.5,8.5L13.5,8.5L13.5,8.5z" />
    <path class="st0" d="M6.5,5L6.5,5L6.5,5C5.1,5,3.9,6.2,3.9,7.6s1.2,2.6,2.6,2.6S9.1,9,9.1,7.6S7.9,5,6.5,5z M6.5,9.7
	c-1.1,0-2.1-0.9-2.1-2.1s0.9-2.1,2.1-2.1s2.1,0.9,2.1,2.1C8.6,8.7,7.7,9.7,6.5,9.7z" />
    <path class="st0" d="M6.6,16.4c-1,0-2-0.1-3-0.4C2.3,15.6,2,15,2,14.6c0-2.1,2-3.9,4.5-3.9s4.5,1.7,4.5,3.9
	C11.1,15.9,8.7,16.4,6.6,16.4z M6.6,11.3c-2.2,0-3.9,1.5-3.9,3.3c0,0.7,1.8,1.2,3.9,1.2s3.9-0.5,3.9-1.2
	C10.5,12.8,8.7,11.3,6.6,11.3z" />
</svg>