<svg xmlns="http://www.w3.org/2000/svg" xmlns:xlink="http://www.w3.org/1999/xlink" viewBox="0 0 19.28 26.49"><defs><style>.cls-1{fill:#b5e4fa;}.cls-2{clip-path:url(#clip-path);}.cls-3{fill:#1b87c9;}.cls-4{fill:#159cd8;}.cls-5{fill:#fff;}</style><clipPath id="clip-path"><path id="_Clipping_Path_" data-name="&lt;Clipping Path&gt;" class="cls-1" d="M15.67,0H1.21A1.26,1.26,0,0,0,0,1.32v23.8a1.28,1.28,0,0,0,1.17,1.37H18.06a1.26,1.26,0,0,0,1.22-1.3.15.15,0,0,0,0-.07V3.66Z"/></clipPath></defs><title>API Docs</title><g id="Layer_2" data-name="Layer 2"><g id="Layer_1-2" data-name="Layer 1"><path id="_Clipping_Path_2" data-name="&lt;Clipping Path&gt;" class="cls-1" d="M15.67,0H1.21A1.26,1.26,0,0,0,0,1.32v23.8a1.28,1.28,0,0,0,1.17,1.37H18.06a1.26,1.26,0,0,0,1.22-1.3.15.15,0,0,0,0-.07V3.66Z"/><g class="cls-2"><rect class="cls-3" y="20.25" width="19.27" height="6.24"/></g><path class="cls-3" d="M16.91,3.65h2.36L15.67,0V2.4a1.21,1.21,0,0,0,1.15,1.25Z"/><polygon class="cls-3" points="15.81 12.47 11.89 10.51 11.92 9.48 16.92 11.97 16.94 11.97 16.94 12.96 11.96 15.51 11.91 14.48 15.81 12.47"/><polygon class="cls-3" points="3.58 12.49 7.5 14.45 7.47 15.48 2.47 13 2.45 12.99 2.45 12.01 7.43 9.46 7.48 10.49 3.58 12.49"/><polygon class="cls-4" points="0.39 13.05 0.37 13.05 0.37 13.04 0.39 13.05"/><polygon class="cls-3" points="8.14 17.75 9.26 17.75 11.65 7.79 10.73 7.79 8.14 17.75"/><path class="cls-5" d="M7.36,21.41H6.64L5.37,25.16H6.1l.36-1.1H7.52l.37,1.1h.75Zm0,2H6.64l.28-.84A1.72,1.72,0,0,0,7,22.4a1.72,1.72,0,0,0,.07.21Z"/><path class="cls-5" d="M11.48,21.71a1.53,1.53,0,0,0-1.06-.33,6.18,6.18,0,0,0-.89.07l-.1,0v3.69h.7V23.78a1.66,1.66,0,0,0,1.39-.42,1.2,1.2,0,0,0,0-1.65Zm-.35.85c0,.53-.47.61-.75.61h-.25V22C10.37,22,11.13,21.9,11.13,22.56Z"/><rect class="cls-5" x="12.61" y="21.41" width="0.71" height="3.75"/></g></g></svg>