<svg xmlns="http://www.w3.org/2000/svg" viewBox="0 0 27.9 26.16"><defs><style>.cls-1{fill:#eda330;}.cls-2{fill:#ffc919;}.cls-3{fill:#fff;opacity:0.4;isolation:isolate;}.cls-4{fill:#f15928;}</style></defs><title>Live Chat</title><g id="Layer_2" data-name="Layer 2"><g id="Layer_1-2" data-name="Layer 1"><path class="cls-1" d="M7,19.18a1.74,1.74,0,0,0,1.74,1.75H19.18l5.23,5.23V20.93h1.75a1.74,1.74,0,0,0,1.74-1.75V5.23a1.74,1.74,0,0,0-1.74-1.74H8.72A1.74,1.74,0,0,0,7,5.23Z"/><path class="cls-2" d="M20.93,15.69a1.75,1.75,0,0,1-1.75,1.75H8.72L3.49,22.67V17.44H1.74A1.74,1.74,0,0,1,0,15.69V1.74A1.74,1.74,0,0,1,1.74,0H19.18a1.74,1.74,0,0,1,1.75,1.74Z"/><path class="cls-3" d="M20.64.78A1.76,1.76,0,0,0,19.18,0H1.74A1.74,1.74,0,0,0,0,1.74v14a1.74,1.74,0,0,0,1.74,1.75H3.49v.49Z"/><circle class="cls-4" cx="5.23" cy="8.72" r="1.74"/><circle class="cls-4" cx="10.46" cy="8.72" r="1.74"/><circle class="cls-4" cx="15.69" cy="8.72" r="1.74"/></g></g></svg>