<svg xmlns="http://www.w3.org/2000/svg" viewBox="0 0 26.76 24"><defs><style>.cls-1{fill:#159cd8;}.cls-2{fill:#87d3e6;}.cls-3{fill:#6bc2dd;}.cls-4{fill:#379fc8;}.cls-5{fill:#ffc919;}.cls-6{fill:#f15928;}.cls-7{fill:#4a5361;}.cls-8{fill:#dde1f2;}</style></defs><title>Product Updates</title><g id="Layer_2" data-name="Layer 2"><g id="Layer_1-2" data-name="Layer 1"><path class="cls-1" d="M21.69,5.08H3.23A1.84,1.84,0,0,0,1.38,6.92V21.23H23.53V6.92A1.84,1.84,0,0,0,21.69,5.08Z"/><rect class="cls-2" x="3.23" y="6.92" width="18.46" height="15.23"/><path class="cls-3" d="M21.69,6.92H12.47c0,.08,0,.15,0,.23a7.15,7.15,0,0,0,7.15,7.15,7.32,7.32,0,0,0,2.08-.3V6.92Z"/><polygon class="cls-3" points="5.37 22.15 21.69 22.15 21.69 6.92 19.43 6.92 5.37 22.15"/><rect class="cls-4" x="4.61" y="8.31" width="0.92" height="0.92"/><rect class="cls-4" x="6.46" y="8.31" width="0.92" height="0.92"/><rect class="cls-4" x="8.31" y="8.31" width="0.92" height="0.92"/><rect class="cls-4" x="5.08" y="18.92" width="2.31" height="0.92"/><rect class="cls-4" x="9.23" y="18.92" width="2.31" height="0.92"/><rect class="cls-4" x="13.38" y="18.92" width="2.31" height="0.92"/><rect class="cls-4" x="17.54" y="18.92" width="2.31" height="0.92"/><rect class="cls-4" x="5.08" y="10.61" width="14.77" height="2.77"/><rect class="cls-4" x="9.23" y="15.23" width="2.31" height="2.31"/><rect class="cls-4" x="5.08" y="15.23" width="2.31" height="2.31"/><rect class="cls-4" x="17.54" y="15.23" width="2.31" height="2.31"/><rect class="cls-4" x="13.38" y="15.23" width="2.31" height="2.31"/><circle class="cls-5" cx="20.3" cy="6.46" r="6.46"/><path class="cls-6" d="M20.3,3.23a3.08,3.08,0,0,1,.61.06l-.68.43.49.79,1.56-1a.45.45,0,0,0,.14-.63v0L21.27,1.31l-.74.54.37.5a4.14,4.14,0,0,0-4.7,3.48,4.46,4.46,0,0,0-.05.63,4.12,4.12,0,0,0,.75,2.38l.76-.53a3.21,3.21,0,0,1,.79-4.49A3.16,3.16,0,0,1,20.3,3.23Z"/><path class="cls-6" d="M23.69,4l-.76.53a3.24,3.24,0,0,1-2.65,5.09,4.09,4.09,0,0,1-.6-.07l.68-.43-.49-.78-1.56,1a.47.47,0,0,0-.15.64l0,0,1.14,1.56.74-.54-.37-.51a4.15,4.15,0,0,0,4-6.49Z"/><path class="cls-7" d="M23.53,24H1.38A1.38,1.38,0,0,1,0,22.61H0V21.23H9.64a.83.83,0,0,1,.74.46h0a.84.84,0,0,0,.75.46h2.66a.85.85,0,0,0,.75-.46h0a.83.83,0,0,1,.74-.46h9.64v1.38A1.39,1.39,0,0,1,23.53,24Z"/><path class="cls-8" d="M22.61,21.23v1.38A1.38,1.38,0,0,1,21.23,24h2.3a1.39,1.39,0,0,0,1.39-1.39h0V21.23Z"/></g></g></svg>