<?xml version="1.0" encoding="utf-8"?>
<!-- Generator: Adobe Illustrator 22.1.0, SVG Export Plug-In . SVG Version: 6.00 Build 0)  -->
<svg version="1.1" id="Layer_1" xmlns="http://www.w3.org/2000/svg" xmlns:xlink="http://www.w3.org/1999/xlink" x="0px" y="0px"
	 viewBox="0 0 10.8 11.7" style="enable-background:new 0 0 10.8 11.7;" xml:space="preserve">
<style type="text/css">
	.st0{fill:#6B6C6C;}
</style>
<title>Search Icon</title>
<g id="Layer_2_1_">
	<g id="Layer_1-2">
		<g>
			<path class="st0" d="M10.7,11L8.2,8.2C9,7.3,9.6,6.1,9.6,4.8C9.6,2.1,7.4,0,4.8,0C2.2,0,0,2.1,0,4.8s2.2,4.8,4.8,4.8
				c1,0,1.9-0.3,2.7-0.8l2.6,2.9c0.1,0.1,0.2,0.1,0.3,0.1c0.1,0,0.2,0,0.3-0.1C10.8,11.5,10.9,11.2,10.7,11z M1,4.8
				C1,2.7,2.7,1,4.8,1c2.1,0,3.8,1.7,3.8,3.8c0,2.1-1.7,3.8-3.8,3.8C2.7,8.6,1,6.9,1,4.8z"/>
		</g>
	</g>
</g>
</svg>
