<?xml version="1.0" encoding="utf-8"?>
<!-- Generator: Adobe Illustrator 24.0.0, SVG Export Plug-In . SVG Version: 6.00 Build 0)  -->
<svg version="1.1" id="Layer_1" xmlns="http://www.w3.org/2000/svg" xmlns:xlink="http://www.w3.org/1999/xlink" x="0px" y="0px"
	 viewBox="0 0 67.8 79" style="enable-background:new 0 0 67.8 79;" xml:space="preserve">
<style type="text/css">
	.st0{fill:#FFFFFF;}
</style>
<path class="st0" d="M60,0H7.8C3.5,0,0,3.5,0,7.8V60c0,4.3,3.5,7.8,7.8,7.8h14.7L33.9,79l11.5-11.2H60c4.3,0,7.8-3.5,7.8-7.8V7.8
	C67.8,3.5,64.3,0,60,0z M35.8,59c-0.9,0.9-2,1.3-3.4,1.3c-1.4,0-2.5-0.4-3.4-1.3c-0.9-0.9-1.3-2-1.3-3.4c0-1.4,0.4-2.5,1.3-3.4
	c0.9-0.9,2-1.3,3.4-1.3c1.4,0,2.5,0.4,3.4,1.3c0.9,0.9,1.3,2,1.3,3.4C37.2,56.9,36.7,58.1,35.8,59z M47.9,27
	c-0.7,1.6-1.6,2.9-2.7,3.9c-1,1-2.4,2.1-4,3.3c-1.7,1.3-3,2.4-3.8,3.3c-0.8,0.9-1.2,2.1-1.2,3.4v3.3c0,0.5-0.2,0.7-0.7,0.7h-5.7
	c-0.5,0-0.7-0.2-0.7-0.7v-3.7c0-2.2,0.6-4,1.7-5.5c1.1-1.4,2.8-3,5-4.6c2-1.5,3.6-2.9,4.6-4.1c1-1.2,1.6-2.8,1.6-4.7
	c0-2.2-0.7-4-2.2-5.3c-1.5-1.3-3.4-2-5.7-2c-2.4,0-4.4,0.7-5.8,2c-1.5,1.4-2.2,3.1-2.2,5.4v1.9c0,0.5-0.2,0.7-0.7,0.7l-5.6-0.3
	c-0.5,0-0.7-0.2-0.7-0.7v-1.6c0-2.7,0.6-5.1,1.9-7.2c1.3-2.1,3.1-3.7,5.4-4.9c2.3-1.2,5-1.7,8-1.7c4.5,0,8.1,1.2,10.8,3.7
	c2.7,2.5,4.1,5.7,4.1,9.8C49,23.5,48.6,25.4,47.9,27z"/>
</svg>
