<svg id="Layer_1" data-name="Layer 1" xmlns="http://www.w3.org/2000/svg" xmlns:xlink="http://www.w3.org/1999/xlink" viewBox="0 0 510.67 422"><defs><style>.cls-1,.cls-4,.cls-7{fill:#fff;}.cls-1{opacity:0.33;}.cls-2{clip-path:url(#clip-path);}.cls-3{fill:#49bae7;}.cls-4{opacity:0.08;}.cls-5{fill:#f0efef;}.cls-6{fill:#e0e0e0;}.cls-8{fill:#19a3dd;}.cls-9{fill:#e75137;}.cls-10{fill:#c9c9c9;}.cls-11{fill:#68b345;}</style><clipPath id="clip-path"><path id="_Rectangle_" data-name="&lt;Rectangle&gt;" class="cls-1" d="M25.93,0h458.8a25.93,25.93,0,0,1,25.93,25.93V422a0,0,0,0,1,0,0H0a0,0,0,0,1,0,0V25.93A25.93,25.93,0,0,1,25.93,0Z"/></clipPath></defs><title>Artboard 1</title><path id="_Rectangle_2" data-name="&lt;Rectangle&gt;" class="cls-1" d="M25.93,0h458.8a25.93,25.93,0,0,1,25.93,25.93V422a0,0,0,0,1,0,0H0a0,0,0,0,1,0,0V25.93A25.93,25.93,0,0,1,25.93,0Z"/><g class="cls-2"><rect class="cls-3" width="510.67" height="53.33"/></g><path class="cls-4" d="M0,53.33V422H510.66V53.33ZM487.33,397.17H23V76.83H487.33Z"/><path class="cls-4" d="M0,53.33V422H510.66V53.33ZM487.33,397.17H23V76.83H487.33Z"/><path class="cls-5" d="M19.83,73V401h471V73Zm467.5,324.17H23V76.83H487.33ZM19.83,73V401h471V73Zm467.5,324.17H23V76.83H487.33ZM19.83,73V401h471V73Zm467.5,324.17H23V76.83H487.33ZM19.83,73V401h471V73Zm467.5,324.17H23V76.83H487.33ZM19.83,73V401h471V73Zm467.5,324.17H23V76.83H487.33ZM19.83,73V401h471V73Zm467.5,324.17H23V76.83H487.33ZM19.83,73V401h471V73Zm467.5,324.17H23V76.83H487.33ZM19.83,73V401h471V73Zm467.5,324.17H23V76.83H487.33ZM19.83,73V401h471V73Zm467.5,324.17H23V76.83H487.33ZM19.83,73V401h471V73Zm467.5,324.17H23V76.83H487.33ZM19.83,73V401h471V73Zm467.5,324.17H23V76.83H487.33ZM19.83,73V401h471V73Zm467.5,324.17H23V76.83H487.33ZM19.83,73V401h471V73Zm467.5,324.17H23V76.83H487.33ZM19.83,73V401h471V73Zm467.5,324.17H23V76.83H487.33ZM19.83,73V401h471V73Zm467.5,324.17H23V76.83H487.33ZM19.83,73V401h471V73Zm467.5,324.17H23V76.83H487.33ZM19.83,73V401h471V73Zm467.5,324.17H23V76.83H487.33ZM19.83,73V401h471V73Zm467.5,324.17H23V76.83H487.33ZM19.83,73V401h471V73Zm467.5,324.17H23V76.83H487.33ZM19.83,73V401h471V73Zm467.5,324.17H23V76.83H487.33ZM0,53.33V422H510.66V53.33ZM493.48,403.68H16.84V70.24H493.48ZM490.83,73h-471V401h471Zm-3.5,324.17H23V76.83H487.33ZM19.83,73V401h471V73Zm467.5,324.17H23V76.83H487.33ZM19.83,73V401h471V73Zm467.5,324.17H23V76.83H487.33ZM19.83,73V401h471V73Zm467.5,324.17H23V76.83H487.33ZM19.83,73V401h471V73Zm467.5,324.17H23V76.83H487.33ZM19.83,73V401h471V73Zm467.5,324.17H23V76.83H487.33ZM19.83,73V401h471V73Zm467.5,324.17H23V76.83H487.33ZM19.83,73V401h471V73Zm467.5,324.17H23V76.83H487.33ZM19.83,73V401h471V73Zm467.5,324.17H23V76.83H487.33ZM19.83,73V401h471V73Zm467.5,324.17H23V76.83H487.33ZM19.83,73V401h471V73Zm467.5,324.17H23V76.83H487.33ZM19.83,73V401h471V73Zm467.5,324.17H23V76.83H487.33ZM19.83,73V401h471V73Zm467.5,324.17H23V76.83H487.33ZM19.83,73V401h471V73Zm467.5,324.17H23V76.83H487.33ZM19.83,73V401h471V73Zm467.5,324.17H23V76.83H487.33ZM19.83,73V401h471V73Zm467.5,324.17H23V76.83H487.33ZM19.83,73V401h471V73Zm467.5,324.17H23V76.83H487.33ZM19.83,73V401h471V73Zm467.5,324.17H23V76.83H487.33ZM19.83,73V401h471V73Zm467.5,324.17H23V76.83H487.33Z"/><path class="cls-6" d="M19.83,73V401h471V73Zm467.5,324.17H23V76.83H487.33Z"/><path class="cls-7" d="M13.59,66.25V407.67H497.07V66.25ZM493.48,403.68H16.84V70.24H493.48Z"/><path class="cls-8" d="M510.66,53.33H144.33L174.33,0H484.67a26,26,0,0,1,26,26Z"/><circle class="cls-7" cx="42.23" cy="27.42" r="5.67"/><circle class="cls-7" cx="60.9" cy="27.42" r="5.67"/><circle class="cls-7" cx="78.77" cy="27.42" r="5.67"/><path class="cls-9" d="M85.9,120v98h114V120Zm32.32,77.5v-57L167.59,169Z"/><rect class="cls-10" x="236.23" y="140.5" width="116" height="17"/><rect class="cls-10" x="236.23" y="184" width="171" height="17"/><path class="cls-11" d="M85.9,250v98h114V250Zm32.32,77.5v-57L167.59,299Z"/><rect class="cls-10" x="236.23" y="270.5" width="116" height="17"/><rect class="cls-10" x="236.23" y="314" width="171" height="17"/></svg>