<svg xmlns="http://www.w3.org/2000/svg" viewBox="0 0 28.81 28.81"><defs><style>.cls-1{fill:#87d3e6;}.cls-2{fill:#f15928;}.cls-3{fill:#00b1cd;}</style></defs><title>Support Ticket</title><g id="Layer_2" data-name="Layer 2"><g id="Layer_1-2" data-name="Layer 1"><path class="cls-1" d="M14.4,0A14.41,14.41,0,1,0,28.81,14.4,14.4,14.4,0,0,0,14.4,0Zm2.84,25.48a11.38,11.38,0,0,1-5.68,0A11.42,11.42,0,0,1,3.28,17,10.88,10.88,0,0,1,3,14.4a11,11,0,0,1,.42-3.06,11.44,11.44,0,0,1,8.17-8,11.38,11.38,0,0,1,5.68,0,11.44,11.44,0,0,1,8.18,8,11,11,0,0,1,.42,3.06A10.88,10.88,0,0,1,25.53,17,11.41,11.41,0,0,1,17.24,25.48Z"/><path class="cls-2" d="M25.42,11.34H20.55a6.8,6.8,0,0,0-3.31-3.19V3.33a11.38,11.38,0,0,0-5.68,0V8.15a6.86,6.86,0,0,0-3.3,3.19H3.39A11,11,0,0,0,3,14.4,10.88,10.88,0,0,0,3.28,17H8.05a6.88,6.88,0,0,0,3.51,3.63v4.82a11.38,11.38,0,0,0,5.68,0V20.66A6.86,6.86,0,0,0,20.76,17h4.77a10.88,10.88,0,0,0,.31-2.63A11,11,0,0,0,25.42,11.34Zm-5.71,4.32A4.94,4.94,0,0,1,19.18,17a5.43,5.43,0,0,1-1.94,2,5.72,5.72,0,0,1-1.48.62,5.12,5.12,0,0,1-1.36.17,5,5,0,0,1-1.35-.17,5.61,5.61,0,0,1-1.49-.63,5.45,5.45,0,0,1-1.93-2,4.94,4.94,0,0,1-.53-1.37A5.24,5.24,0,0,1,9,14.4a5.1,5.1,0,0,1,.2-1.46,5.55,5.55,0,0,1,.74-1.6,5.63,5.63,0,0,1,1.67-1.59,5.35,5.35,0,0,1,1.49-.63A5,5,0,0,1,14.4,9a5.37,5.37,0,0,1,2.84.8,5.43,5.43,0,0,1,1.68,1.59,5.55,5.55,0,0,1,.74,1.6,5.1,5.1,0,0,1,.2,1.46A5.24,5.24,0,0,1,19.71,15.66Z"/><path class="cls-3" d="M14.4,0V3a11.44,11.44,0,1,1,0,22.87v3A14.41,14.41,0,1,0,14.4,0Z"/></g></g></svg>