<svg xmlns="http://www.w3.org/2000/svg" xmlns:xlink="http://www.w3.org/1999/xlink" viewBox="0 0 19.77 26.88"><defs><style>.cls-1{fill:none;}.cls-2{fill:#f2f2f2;}.cls-3{clip-path:url(#clip-path);}.cls-4{fill:#e5e8e9;}.cls-5{fill:#dde1f2;}.cls-6{fill:#c3dfc9;}.cls-7{fill:#4a5361;}.cls-8{fill:#159cd8;}.cls-9{fill:#e75137;}.cls-10{fill:#69b345;}.cls-11{clip-path:url(#clip-path-3);}.cls-12{fill:#fff;opacity:0.4;isolation:isolate;}</style><clipPath id="clip-path"><path class="cls-1" d="M15.67,0H1.21A1.27,1.27,0,0,0,0,1.37V25.12a1.27,1.27,0,0,0,1.21,1.37H18.06a1.26,1.26,0,0,0,1.21-1.37V3.66Z"/></clipPath><clipPath id="clip-path-3"><path class="cls-1" d="M11.35,3.24,10.91,7a2.61,2.61,0,0,1,1.63,3l3.09,1.47a.29.29,0,0,0,.4-.17,6.34,6.34,0,0,0-4.68-8.07ZM10.44,12a2.63,2.63,0,0,1-2.76-1.32,2.59,2.59,0,0,1-.26-1.85L4.33,7.37a.28.28,0,0,0-.4.17,6.29,6.29,0,0,0,0,3.93,6.38,6.38,0,0,0,8,4,6.3,6.3,0,0,0,3.29-2.5.29.29,0,0,0-.12-.42L12,11.05A2.56,2.56,0,0,1,10.44,12ZM9.1,7a2.29,2.29,0,0,1,.67-.14l.4-3.4a.29.29,0,0,0-.29-.32A6.32,6.32,0,0,0,4.71,5.91a.29.29,0,0,0,.12.42L7.92,7.8A2.56,2.56,0,0,1,9.1,7Z"/></clipPath></defs><title>Support Docs</title><g id="Layer_2" data-name="Layer 2"><g id="Layer_1-2" data-name="Layer 1"><path class="cls-2" d="M15.67,0H1.21A1.27,1.27,0,0,0,0,1.37V25.12a1.27,1.27,0,0,0,1.21,1.37H18.06a1.26,1.26,0,0,0,1.21-1.37V3.66Z"/><g class="cls-3"><polygon class="cls-4" points="5.7 14.34 10.1 18.68 3.3 18.99 5.35 21.07 3.3 21.4 5.2 23.35 3.3 23.81 6.33 26.88 19.77 26.88 19.77 16.77 19.59 10.25 14.77 5.35 11.73 7.5 9.24 4.55 5.7 14.34"/></g><g class="cls-3"><polygon class="cls-5" points="5.7 14.34 10.1 18.68 3.3 18.99 5.35 21.07 3.3 21.4 5.2 23.35 3.3 23.81 6.33 26.88 19.77 26.88 19.77 16.77 19.59 10.25 14.77 5.35 11.73 7.5 9.24 4.55 5.7 14.34"/></g><path class="cls-6" d="M16.91,3.65h2.36L15.67,0V2.4A1.2,1.2,0,0,0,16.91,3.65Z"/><path class="cls-7" d="M15.65,19.12h-12a.46.46,0,0,1-.45-.46.45.45,0,0,1,.45-.45h12a.46.46,0,0,1,.46.45A.47.47,0,0,1,15.65,19.12Z"/><path class="cls-7" d="M15.65,21.52h-12a.45.45,0,0,1,0-.9h12a.45.45,0,1,1,0,.9Z"/><path class="cls-7" d="M15.65,23.93h-12a.45.45,0,1,1,0-.9h12a.45.45,0,1,1,0,.9Z"/><path class="cls-8" d="M11.31,3.57,10.91,7a2.61,2.61,0,0,1,1.63,3l3.09,1.47a.29.29,0,0,0,.4-.17,6.34,6.34,0,0,0-4.36-8A.28.28,0,0,0,11.31,3.57Z"/><path class="cls-9" d="M10.44,12a2.63,2.63,0,0,1-2.76-1.32,2.59,2.59,0,0,1-.26-1.85L4.33,7.37a.28.28,0,0,0-.4.17,6.29,6.29,0,0,0,0,3.93,6.38,6.38,0,0,0,8,4,6.3,6.3,0,0,0,3.29-2.5.29.29,0,0,0-.12-.42L12,11.05A2.56,2.56,0,0,1,10.44,12Z"/><path class="cls-10" d="M9.1,7a2.29,2.29,0,0,1,.67-.14l.4-3.4a.29.29,0,0,0-.29-.32A6.32,6.32,0,0,0,4.71,5.91a.29.29,0,0,0,.12.42L7.92,7.8A2.56,2.56,0,0,1,9.1,7Z"/><g class="cls-11"><circle class="cls-12" cx="9.98" cy="9.42" r="3.77"/></g></g></g></svg>