<svg id="Layer_1" data-name="Layer 1" xmlns="http://www.w3.org/2000/svg" viewBox="0 0 20 20"><defs><style>.cls-1{fill:#2dbbf4;}</style></defs><title>account</title><path class="cls-1" d="M10,13a3,3,0,1,1,3-3A3,3,0,0,1,10,13Zm0-5.33A2.29,2.29,0,1,0,12.29,10,2.29,2.29,0,0,0,10,7.71Z"/><path class="cls-1" d="M7.7,17.12a1,1,0,0,1-.34-.06,7.38,7.38,0,0,1-2.14-1.23,1,1,0,0,1-.29-1.17A1.9,1.9,0,0,0,4.8,13a1.87,1.87,0,0,0-1.37-.93,1,1,0,0,1-.86-.83,7.21,7.21,0,0,1,0-2.48,1,1,0,0,1,.87-.83A1.86,1.86,0,0,0,4.8,7a1.91,1.91,0,0,0,.12-1.66,1,1,0,0,1,.3-1.17A7.6,7.6,0,0,1,7.35,2.94a1,1,0,0,1,1.18.35,2,2,0,0,0,2.94,0,1,1,0,0,1,1.18-.35,7.53,7.53,0,0,1,2.13,1.23,1,1,0,0,1,.3,1.18,1.9,1.9,0,0,0,1.5,2.58,1,1,0,0,1,.86.83,7.21,7.21,0,0,1,0,2.48,1,1,0,0,1-.87.83,1.9,1.9,0,0,0-1.5,2.58,1,1,0,0,1-.29,1.17,7.36,7.36,0,0,1-2.14,1.23,1,1,0,0,1-1.17-.35,2,2,0,0,0-2.94,0A1.06,1.06,0,0,1,7.7,17.12Zm0-13.49H7.62A6.79,6.79,0,0,0,5.7,4.75a.28.28,0,0,0-.08.31,2.65,2.65,0,0,1-.17,2.31,2.61,2.61,0,0,1-1.92,1.3.27.27,0,0,0-.23.21,6.52,6.52,0,0,0,0,2.23.27.27,0,0,0,.23.21,2.61,2.61,0,0,1,1.92,1.3,2.64,2.64,0,0,1,.17,2.31.28.28,0,0,0,.08.31,6.66,6.66,0,0,0,1.92,1.11.3.3,0,0,0,.32-.11,2.64,2.64,0,0,1,2.06-1,2.61,2.61,0,0,1,2.06,1,.29.29,0,0,0,.32.11,6.66,6.66,0,0,0,1.92-1.11.28.28,0,0,0,.07-.32,2.65,2.65,0,0,1,2.09-3.61.27.27,0,0,0,.23-.21,6.52,6.52,0,0,0,0-2.23.27.27,0,0,0-.23-.21,2.65,2.65,0,0,1-2.09-3.61.28.28,0,0,0-.08-.32,6.79,6.79,0,0,0-1.92-1.11.3.3,0,0,0-.33.11,2.6,2.6,0,0,1-2.06,1,2.64,2.64,0,0,1-2.06-1A.32.32,0,0,0,7.7,3.63Z"/></svg>