<?xml version="1.0" encoding="utf-8"?>
<!-- Generator: Adobe Illustrator 21.0.2, SVG Export Plug-In . SVG Version: 6.00 Build 0)  -->
<svg version="1.1" id="Capa_1" xmlns="http://www.w3.org/2000/svg" xmlns:xlink="http://www.w3.org/1999/xlink" x="0px" y="0px"
	 viewBox="0 0 20 20" style="enable-background:new 0 0 20 20;" xml:space="preserve">
<style type="text/css">
	.st0{fill:#29ADE3;}
</style>
<g>
	<path class="st0" d="M16.9,2.8H3.1C2.9,2.8,2.8,3,2.8,3.1v13.8c0,0.2,0.2,0.3,0.3,0.3h13.8c0.2,0,0.3-0.2,0.3-0.3V3.1
		C17.2,2.9,17.1,2.8,16.9,2.8z M3.4,16.6V3.4h13.2v2H4.4c-0.2,0-0.3,0.2-0.3,0.3S4.3,6,4.4,6h12.2v10.7H3.4V16.6z"/>
	<path class="st0" d="M4.4,4.7c0.1,0,0.2,0,0.2-0.1c0.1-0.1,0.1-0.2,0.1-0.2c0-0.1,0-0.2-0.1-0.2S4.4,4.1,4.4,4.1s-0.2,0-0.2,0.1
		S4.1,4.4,4.1,4.4s0,0.2,0.1,0.2C4.2,4.7,4.3,4.7,4.4,4.7z"/>
	<path class="st0" d="M5.3,4.7c0.1,0,0.2,0,0.2-0.1c0.1-0.1,0.1-0.2,0.1-0.2c0-0.1,0-0.2-0.1-0.2S5.3,4.1,5.3,4.1s-0.2,0-0.2,0.1
		c0,0-0.1,0.1-0.1,0.2s0,0.2,0.1,0.2C5.2,4.7,5.3,4.7,5.3,4.7z"/>
	<path class="st0" d="M6.3,4.7c0.1,0,0.2,0,0.2-0.1c0.1-0.1,0.1-0.2,0.1-0.2c0-0.1,0-0.2-0.1-0.2S6.3,4.1,6.3,4.1s-0.2,0-0.2,0.1
		c0,0-0.1,0.1-0.1,0.2s0,0.2,0.1,0.2C6.2,4.7,6.2,4.7,6.3,4.7z"/>
	<path class="st0" d="M14.8,10.8c-0.2-0.1-0.3,0-0.4,0.2c-0.8,1.7-2.6,2.9-4.4,2.9s-3.6-1.1-4.4-2.8C6.4,9.3,8.1,8.3,10,8.3
		c1.4,0,2.7,0.6,3.6,1.6c0.1,0.2,0.3,0.2,0.5,0c0.2-0.1,0.2-0.3,0-0.5C13,8.3,11.5,7.7,10,7.7c-2.2,0-4.1,1.3-5,3.2
		c0,0.1,0,0.2,0,0.2c0.9,2,2.9,3.2,5,3.2s4.1-1.3,5-3.2C15,11.1,15,10.8,14.8,10.8z"/>
	<path class="st0" d="M8,11.1c0,1.1,0.9,2,2,2s2-0.9,2-2s-0.9-2-2-2S8,9.9,8,11.1z M11.4,11.1c0,0.8-0.7,1.4-1.4,1.4
		c-0.8,0-1.4-0.7-1.4-1.4S9.2,9.6,10,9.6S11.4,10.2,11.4,11.1z"/>
</g>
</svg>
