<svg id="Layer_1" data-name="Layer 1" xmlns="http://www.w3.org/2000/svg" viewBox="0 0 20 20"><defs><style>.cls-1{fill:#2dbbf4;}</style></defs><title>getting_started</title><path class="cls-1" d="M17.54,2.79a.38.38,0,0,0-.33-.33c-.17,0-4.31-.45-6.65,1.9A48.24,48.24,0,0,0,6.32,9.65l-2-.15a.23.23,0,0,0-.2.07L2.49,11.25a.25.25,0,0,0,.11.42l2.14.64s0,.07,0,.1l2.84,2.84s.06,0,.09,0l.62,2.12a.25.25,0,0,0,.18.17h.06a.25.25,0,0,0,.18-.07l1.68-1.68a.25.25,0,0,0,.07-.2l-.15-1.95a53.1,53.1,0,0,0,5.29-4.24C18,7.1,17.56,3,17.54,2.79ZM4.44,10,6,10.13c-.57.8-1,1.43-1.16,1.68l-1.67-.5ZM10,15.56l-1.3,1.3-.48-1.65L9.87,14ZM7.93,14.49l-2.4-2.4a64.39,64.39,0,0,1,5.56-7.2c1.74-1.75,4.76-1.75,5.73-1.71,0,1,0,4-1.71,5.73A73.11,73.11,0,0,1,7.93,14.49Z"/><path class="cls-1" d="M14.15,4.83a1,1,0,1,0,1,1A1,1,0,0,0,14.15,4.83Zm0,1.54a.52.52,0,1,1,.52-.52A.52.52,0,0,1,14.15,6.37Z"/><path class="cls-1" d="M6.18,16.09a4.05,4.05,0,0,1-3,.76,4,4,0,0,1,.76-3,4.12,4.12,0,0,1,.63-.52C3.91,14.22,3.46,15.53,4,16s1.81.06,2.73-.58A4.12,4.12,0,0,1,6.18,16.09Z"/></svg>