<svg id="Layer_1" data-name="Layer 1" xmlns="http://www.w3.org/2000/svg" viewBox="0 0 20 20"><defs><style>.cls-1{fill:#2dbbf4;}</style></defs><title>home</title><path class="cls-1" d="M17.92,6.86,10.16,3a.35.35,0,0,0-.32,0L2.08,6.86a.35.35,0,1,0,.32.63L4,6.69v10a.35.35,0,0,0,.35.35H15.65a.35.35,0,0,0,.35-.35v-10l1.61.8a.35.35,0,1,0,.32-.63ZM8.59,16.35V10.71h2.82v5.65Zm6.71,0H12.12v-6a.38.38,0,0,0-.35-.38H8.24a.38.38,0,0,0-.35.38v6H4.71v-10L10,3.69l5.29,2.65Z"/><path class="cls-1" d="M11.61,7.88H8.39a.25.25,0,0,1,0-.5h3.21a.25.25,0,0,1,0,.5Z"/></svg>