<svg id="Layer_1" data-name="Layer 1" xmlns="http://www.w3.org/2000/svg" viewBox="0 0 20 20"><defs><style>.cls-1{fill:#2dbbf4;}</style></defs><title>user_profiling</title><path class="cls-1" d="M10,9.63a3.37,3.37,0,1,1,3.37-3.37A3.38,3.38,0,0,1,10,9.63Zm0-6a2.62,2.62,0,1,0,2.62,2.62A2.63,2.63,0,0,0,10,3.63Z"/><path class="cls-1" d="M10,17.12a13.19,13.19,0,0,1-3.75-.48c-1.58-.49-1.92-1.22-1.92-1.74,0-2.67,2.54-4.83,5.66-4.83s5.66,2.17,5.66,4.83C15.66,16.53,12.61,17.12,10,17.12Zm0-6.31c-2.71,0-4.91,1.83-4.91,4.08,0,.81,2.2,1.47,4.91,1.47s4.91-.66,4.91-1.47C14.91,12.64,12.71,10.81,10,10.81Z"/></svg>