<svg id="Layer_1" data-name="Layer 1" xmlns="http://www.w3.org/2000/svg" viewBox="0 0 20 20"><defs><style>.cls-1{fill:#2dbbf4;}</style></defs><title>user_management</title><path class="cls-1" d="M13.5,9.6a5.06,5.06,0,0,0-3.7,1.6l.4.4a4.37,4.37,0,0,1,3.3-1.4c2.2,0,4,1.5,4,3.3,0,.4-1.4,1-4,1a12.1,12.1,0,0,1-1.9-.1v.5a12.25,12.25,0,0,0,1.9.2c2.3,0,4.5-.5,4.5-1.6C18,11.3,16,9.6,13.5,9.6Z"/><path class="cls-1" d="M13.5,3.9a2.65,2.65,0,0,0-2.6,2.6A2.56,2.56,0,0,0,13.5,9a2.65,2.65,0,0,0,2.6-2.6h0A2.56,2.56,0,0,0,13.5,3.9Zm0,4.6a2,2,0,1,1,2-2,2,2,0,0,1-2,2Z"/><path class="cls-1" d="M6.5,5h0A2.65,2.65,0,0,0,3.9,7.6a2.65,2.65,0,0,0,2.6,2.6A2.65,2.65,0,0,0,9.1,7.6,2.65,2.65,0,0,0,6.5,5Zm0,4.7A2.11,2.11,0,0,1,4.4,7.6,2.05,2.05,0,0,1,6.5,5.5,2.05,2.05,0,0,1,8.6,7.6,2.11,2.11,0,0,1,6.5,9.7Z"/><path class="cls-1" d="M6.6,16.4a10.32,10.32,0,0,1-3-.4C2.3,15.6,2,15,2,14.6c0-2.1,2-3.9,4.5-3.9S11,12.4,11,14.6C11.1,15.9,8.7,16.4,6.6,16.4Zm0-5.1c-2.2,0-3.9,1.5-3.9,3.3,0,.7,1.8,1.2,3.9,1.2s3.9-.5,3.9-1.2C10.5,12.8,8.7,11.3,6.6,11.3Z"/></svg>