<svg id="Layer_1" data-name="Layer 1" xmlns="http://www.w3.org/2000/svg" viewBox="0 0 20 20"><defs><style>.cls-1{fill:#2dbbf4;}</style></defs><title>user_insights</title><path class="cls-1" d="M17.29,11.58a.64.64,0,0,0,0-.09h0v0h0a2.45,2.45,0,0,0-.13-.58L15.52,6.46a1.37,1.37,0,0,0-.85-.73l-.2-.54c-.16-.43-.79-.67-1.52-.58s-1.26.4-1.32.94l-.06.59a1.36,1.36,0,0,0-.64.92l0,.4H9.1l0-.4a1.35,1.35,0,0,0-.64-.92l-.06-.59c-.06-.54-.72-.86-1.32-.94s-1.36.14-1.52.58l-.2.55a1.37,1.37,0,0,0-.85.72L2.86,10.88a2.44,2.44,0,0,0-.13.57h0v0h0v0a.86.86,0,0,0,0,.17,3.38,3.38,0,0,0,3,3.67l.43,0a3.42,3.42,0,0,0,3.39-2.94.67.67,0,0,0,0-.18c0-.1,0-.2,0-.29a3.06,3.06,0,0,0,0-.44h0L9.3,9.46h1.4l-.2,2.1h0a2.94,2.94,0,0,0,0,.44,2.71,2.71,0,0,0,0,.29s0,.06,0,.13a3.44,3.44,0,0,0,3.4,3l.43,0a3.38,3.38,0,0,0,3-3.66A.55.55,0,0,0,17.29,11.58ZM13,5.11c.5-.06.92.08,1,.25l.08.22a3.74,3.74,0,0,0-1,0,3.53,3.53,0,0,0-1,.28l0-.25C12.15,5.42,12.51,5.17,13,5.11Zm-1.58,2A1,1,0,0,1,12,6.48a2.91,2.91,0,0,1,1.19-.4l.45,0c.78,0,1.35.28,1.47.59l1,2.69,0,0a3.44,3.44,0,0,0-.4-.26l-.16-.1A3.43,3.43,0,0,0,15,8.77l-.18-.07a3.39,3.39,0,0,0-.48-.09l-.19,0a3.33,3.33,0,0,0-1.33.16l-.18.07a3.4,3.4,0,0,0-.4.18l-.19.11a3.39,3.39,0,0,0-.34.25l-.16.13a3.41,3.41,0,0,0-.33.36l-.08.08ZM7,5.11c.5.06.86.31.88.49l0,.25a3.53,3.53,0,0,0-1-.28,3.7,3.7,0,0,0-1,0L6,5.36C6.07,5.19,6.49,5,7,5.11Zm-2,1.53a1,1,0,0,1,.65-.47,3.1,3.1,0,0,1,1.26-.09A2.9,2.9,0,0,1,8,6.48a1,1,0,0,1,.52.62l.28,2.82-.09-.09a3.4,3.4,0,0,0-.32-.34l-.16-.14a3.39,3.39,0,0,0-.34-.25L7.75,9a3.38,3.38,0,0,0-.4-.18l-.18-.07a3.39,3.39,0,0,0-.63-.14l-.43,0H6l-.25,0-.38.07-.23.06-.38.14L4.54,9a3.44,3.44,0,0,0-.37.23L4,9.29,4,9.33ZM9,12.27v.09a3,3,0,0,1-3.27,2.53,2.89,2.89,0,0,1-2.53-3.15.51.51,0,0,1,0-.1v-.09A2.87,2.87,0,0,1,3.36,11c0-.06.06-.12.08-.18a2.9,2.9,0,0,1,.15-.31c0-.07.09-.13.13-.19a2.93,2.93,0,0,1,.18-.24l.17-.17.21-.19.2-.14.24-.15L5,9.32l.27-.1.24-.07.29-.05.25,0a2.86,2.86,0,0,1,.48,0A2.91,2.91,0,0,1,9,11.62,2.6,2.6,0,0,1,9,12C9,12.07,9,12.15,9,12.27ZM9.25,9l-.1-1h1.7l-.1,1Zm5,5.92A2.94,2.94,0,0,1,11,12.39a1.14,1.14,0,0,0,0-.13c0-.09,0-.18,0-.26a2.48,2.48,0,0,1,0-.39,2.91,2.91,0,0,1,2.53-2.52,2.85,2.85,0,0,1,.48,0l.23,0,.31.05.21.06.31.12.18.08.31.19.12.09A3,3,0,0,1,16,10l.05.05a2.89,2.89,0,0,1,.71,1.49v.09a.51.51,0,0,1,0,.1v0A2.89,2.89,0,0,1,14.26,14.88Z"/></svg>