<svg id="b51574a5-b003-4605-af6d-fbaa47c75603" data-name="Layer 1" xmlns="http://www.w3.org/2000/svg" viewBox="0 0 500 500">
  <defs>
    <style>
      .bcec65b9-4929-4b96-9ada-c973cf278d58, .e16b9293-75f9-4ab5-a1ce-e211fca8a3ec {
        fill: #008ecf;
      }

      .bcec65b9-4929-4b96-9ada-c973cf278d58 {
        fill-rule: evenodd;
      }
    </style>
  </defs>
  <title>Icons for Support Docs Home Page V01.02</title>
  <path class="bcec65b9-4929-4b96-9ada-c973cf278d58" d="M457.59369,325.73362c-.45037-4.00364-5.11845-7.01219-9.155-7.01219A31.445,31.445,0,0,1,426.91467,263.992a7.90886,7.90886,0,0,0,.8658-10.73819A140.918,140.918,0,0,0,405.22,230.46974a7.92538,7.92538,0,0,0-10.823.87427c-8.48838,9.40081-23.73569,12.89472-35.51769,7.97866a31.63259,31.63259,0,0,1-19.23612-30.91851,7.90039,7.90039,0,0,0-6.98888-8.31777,142.17592,142.17592,0,0,0-32.03758-.08478,7.92493,7.92493,0,0,0-7.0514,8.14822,31.68511,31.68511,0,0,1-19.5,30.38441c-11.64106,4.755-26.78134,1.29074-35.25277-8.02635a7.9416,7.9416,0,0,0-10.74666-.904,141.4504,141.4504,0,0,0-23.0384,22.77665,7.92223,7.92223,0,0,0,.8499,10.824,31.55728,31.55728,0,0,1,7.96276,35.53255c-4.91605,11.70571-17.07109,19.24989-30.98632,19.24989a7.74116,7.74116,0,0,0-8.22558,6.991,142.6579,142.6579,0,0,0-.06147,32.38622c.44721,4.0206,5.2573,7.00266,9.33829,7.00266a31.23129,31.23129,0,0,1,29.30137,19.51481,31.666,31.666,0,0,1-7.96277,35.21462,7.91466,7.91466,0,0,0-.86579,10.73077,141.42926,141.42926,0,0,0,22.52867,22.79254,7.9191,7.9191,0,0,0,10.83886-.85837c8.52018-9.42413,23.76643-12.91169,35.50181-7.98608a31.58089,31.58089,0,0,1,19.26684,30.909A7.90984,7.90984,0,0,0,299.503,483.003a141.733,141.733,0,0,0,32.03863.08586,7.92538,7.92538,0,0,0,7.05035-8.15565,31.65209,31.65209,0,0,1,19.48408-30.3685c11.7195-4.78677,26.79618-1.28333,35.26867,8.02423a7.95756,7.95756,0,0,0,10.74772.89866,141.77724,141.77724,0,0,0,23.0384-22.77771,7.90669,7.90669,0,0,0-.851-10.823,31.55615,31.55615,0,0,1-7.97867-35.52619,31.882,31.882,0,0,1,29.13288-19.305l1.76125.04557a7.92682,7.92682,0,0,0,8.33472-6.98146A142.53534,142.53534,0,0,0,457.59369,325.73362ZM316.306,389.34885a47.50108,47.50108,0,1,1,47.5-47.50107A47.55219,47.55219,0,0,1,316.306,389.34885Z"/>
  <g>
    <path class="e16b9293-75f9-4ab5-a1ce-e211fca8a3ec" d="M205.24377,419.09641a7.90325,7.90325,0,0,0-2.5271,5.10608h177.891V239.95963a34.242,34.242,0,0,1-10.2229,1.58527,29.89621,29.89621,0,0,1-11.50538-2.22229,31.63252,31.63252,0,0,1-19.2362-30.91846,7.90031,7.90031,0,0,0-6.98889-8.31775,142.16012,142.16012,0,0,0-32.03748-.08471,7.92484,7.92484,0,0,0-7.05151,8.14813,31.68508,31.68508,0,0,1-19.49988,30.38446,29.76313,29.76313,0,0,1-11.2406,2.12427c-8.94885,0-18.10217-3.65076-24.01221-10.15064a7.94247,7.94247,0,0,0-10.7467-.904,141.44851,141.44851,0,0,0-23.03833,22.77667,7.92215,7.92215,0,0,0,.84985,10.824,31.55735,31.55735,0,0,1,7.96277,35.53259c-4.916,11.70563-17.071,19.24988-30.98633,19.24988-.10388-.00336-.20764-.005-.31018-.005a7.723,7.723,0,0,0-7.9154,6.99592,142.65508,142.65508,0,0,0-.06141,32.38629c.44715,4.02057,5.25721,7.00268,9.33826,7.00268q.37007-.00942.74-.00946a31.26939,31.26939,0,0,1,28.5614,19.52429A31.66612,31.66612,0,0,1,205.24377,419.09641ZM316.306,294.34672a47.50107,47.50107,0,1,1-47.5011,47.5011A47.55273,47.55273,0,0,1,316.306,294.34672Z"/>
    <path class="e16b9293-75f9-4ab5-a1ce-e211fca8a3ec" d="M170.81067,421.698a39.81624,39.81624,0,0,1,11.91955-25.34754c-20.35913-.5708-37.79687-15.93524-39.96508-35.43a174.6666,174.6666,0,0,1,.0802-39.66339l.006-.05035.0061-.05036A39.71356,39.71356,0,0,1,182.5437,285.982q.23968,0,.48132.00281c.12366-.00323.24073-.01.3512-.01941a39.98594,39.98594,0,0,1-3.28784-53.6355,173.41081,173.41081,0,0,1,28.22485-27.902l.04065-.03186.04065-.03168a39.94285,39.94285,0,0,1,53.16626,3.63025,39.92482,39.92482,0,0,1,35.52747-39.79773,174.15689,174.15689,0,0,1,39.26757.10431,39.93411,39.93411,0,0,1,35.29163,40.52923,39.85081,39.85081,0,0,1,8.96021-6.897V17.64365H129.05054l-87.24195,87.242V424.20249H170.69482C170.71069,423.36918,170.74268,422.53452,170.81067,421.698Z"/>
  </g>
</svg>
