<svg id="a174a8d8-e0c1-49ad-9b61-909da50102db" data-name="Layer 1" xmlns="http://www.w3.org/2000/svg" viewBox="0 0 500 500">
  <defs>
    <style>
      .f058181d-db30-47f1-b2cd-539e03b59882 {
        fill: #008ecf;
      }

      .a60f56a6-9288-458c-94b3-758712312bd0 {
        fill: #fff;
      }
    </style>
  </defs>
  <title>Icons for Support Docs Home Page V01.02</title>
  <path class="f058181d-db30-47f1-b2cd-539e03b59882" d="M477.1023,246.88438C475.42359,146.254,372.37818,65.73,246.96607,67.07335,121.53882,68.42052,21.22876,151.12413,22.89771,251.79014c.7976,47.81409,24.49414,91.08216,62.59253,123.19361l-3.48731,15.68969-9.39526,42.26978,41.3042-12.99841,29.95825-9.42786c32.54541,13.83484,69.75024,21.50513,109.16919,21.08423C378.44165,430.246,478.77124,347.54246,477.1023,246.88438Z"/>
  <path class="a60f56a6-9288-458c-94b3-758712312bd0" d="M347.048,151.13777a27.04125,27.04125,0,0,1,0,38.22327l-12.73809,12.73808-38.23171-38.22327,12.73808-12.73808A27.04382,27.04382,0,0,1,347.048,151.13777ZM155.9587,304.01227l-12.72907,50.95235L194.182,342.22653,321.57186,214.83665l-38.23172-38.22327Z"/>
</svg>
