<?xml version="1.0" encoding="utf-8"?>
<!-- Generator: Adobe Illustrator 21.0.0, SVG Export Plug-In . SVG Version: 6.00 Build 0)  -->
<svg version="1.1" id="Layer_1" xmlns="http://www.w3.org/2000/svg" xmlns:xlink="http://www.w3.org/1999/xlink" x="0px" y="0px"
	 viewBox="0 0 25.2 18.5" style="enable-background:new 0 0 25.2 18.5;" xml:space="preserve">
<style type="text/css">
	.st0{fill:#ACB3BA;}
	.st1{fill:#FFD15C;}
	.st2{fill:#FF7058;}
	.st3{fill:#DEE0E0;}
	.st4{fill:#FFFFFF;}
	.st5{fill:#84DBFF;}
</style>
<title>icon7</title>
<g>
	<rect x="12" y="11.5" class="st0" width="1.2" height="0.8"/>
	<rect x="11.8" y="12.9" class="st1" width="1.6" height="3.3"/>
	<path class="st2" d="M13.4,12.3h-1.6c-0.1,0-0.2,0.1-0.2,0.3c0,0.2,0.1,0.3,0.2,0.3h1.6c0.1,0,0.2-0.1,0.2-0.3
		C13.6,12.4,13.5,12.3,13.4,12.3C13.4,12.3,13.4,12.3,13.4,12.3z"/>
	<path class="st2" d="M13.4,15.8h-1.6c-0.1,0-0.2,0.1-0.2,0.3c0,0.2,0.1,0.3,0.2,0.3h1.6c0.1,0,0.2-0.1,0.2-0.3
		C13.6,16,13.5,15.8,13.4,15.8C13.4,15.8,13.4,15.8,13.4,15.8z"/>
	<g>
		<circle class="st3" cx="12.6" cy="6.8" r="4.8"/>
		<path class="st4" d="M8.8,6.8c0-2.1,1.7-3.8,3.8-3.8c2.1,0,3.8,1.7,3.8,3.8c0,2.1-1.7,3.8-3.8,3.8c0,0,0,0,0,0
			C10.5,10.5,8.8,8.8,8.8,6.8z"/>
		<g>
			<polygon class="st5" points="11,8.2 9.6,6.8 11,5.4 11.4,5.8 10.5,6.8 11.4,7.7 			"/>
			<polygon class="st5" points="14.2,8.2 13.7,7.7 14.7,6.8 13.7,5.8 14.2,5.4 15.6,6.8 			"/>
			<polygon class="st5" points="12.3,8.4 11.7,8.4 12.8,5.1 13.5,5.1 			"/>
		</g>
	</g>
</g>
</svg>
