<?xml version="1.0" encoding="UTF-8" standalone="no"?>
<svg width="20px" height="20px" viewBox="0 0 20 20" version="1.1" xmlns="http://www.w3.org/2000/svg" xmlns:xlink="http://www.w3.org/1999/xlink">
    <!-- Generator: Sketch 40 (33762) - http://www.bohemiancoding.com/sketch -->
    <title>icon-account</title>
    <desc>Created with Sketch.</desc>
    <defs>
        <path d="M15.9440667,15.3543578 C14.4798318,16.9788143 12.3591712,18 10,18 C7.64082877,18 5.52016824,16.9788143 4.05593334,15.3543578 C4.75989184,14.0426397 7.15439073,13.0769231 10,13.0769231 C12.8456093,13.0769231 15.2401082,14.0426397 15.9440667,15.3543578 L15.9440667,15.3543578 Z" id="path-1"></path>
    </defs>
    <g id="icons" stroke="none" stroke-width="1" fill="none" fill-rule="evenodd">
        <g id="icon-account">
            <path d="M15.4446857,15.8613938 C17.0165793,14.4005847 18,12.3151375 18,10 C18,5.581722 14.418278,2 10,2 C5.581722,2 2,5.581722 2,10 C2,12.3151375 2.98342074,14.4005847 4.55531428,15.8613938 C5.58690157,14.8851133 7.63805392,14.2197802 10,14.2197802 C12.3619461,14.2197802 14.4130984,14.8851133 15.4446857,15.8613938 L15.4446857,15.8613938 Z M10,11.2307692 C11.6993377,11.2307692 13.0769231,9.85318385 13.0769231,8.15384615 C13.0769231,6.45450846 11.6993377,5.07692308 10,5.07692308 C8.30066231,5.07692308 6.92307692,6.45450846 6.92307692,8.15384615 C6.92307692,9.85318385 8.30066231,11.2307692 10,11.2307692 L10,11.2307692 Z" id="Oval-9" fill="#0D2B3E"></path>
            <mask id="mask-2" fill="white">
                <use xlink:href="#path-1"></use>
            </mask>
            <use id="Oval-9-Copy" fill="#A5B3BB" xlink:href="#path-1"></use>
        </g>
    </g>
</svg>