<svg width="20" height="20" viewBox="0 0 20 20" xmlns="http://www.w3.org/2000/svg"><title>icon-payments</title><g fill="none"><path d="M10 18.002c-4.08 0-7.44-3.056-7.933-7.002H3l2-6H3.758A7.985 7.985 0 0 1 10 1.998a8.002 8.002 0 0 1 0 16.004zM8.5 8A1.5 1.5 0 0 0 7 9.5v5A1.5 1.5 0 0 0 8.5 16h4.793c2.125-1.17 3.582-3.403 3.582-6 0-.7-.136-1.363-.33-2H8.5zm4.504 6.332a2.337 2.337 0 1 1 0-4.673 2.337 2.337 0 0 1 0 4.67z" fill="#A5B3BB"/><path d="M9.34 8l.002-.005A2.338 2.338 0 1 0 7 10.332V12H2.5c-.09 0-.167-.036-.253-.05a8.025 8.025 0 0 1-.25-1.95 7.976 7.976 0 0 1 2.72-6H11.5A1.5 1.5 0 0 1 13 5.5V8H9.34z" fill="#0D2B3E"/></g></svg>