<svg width="20" height="20" viewBox="0 0 20 20" xmlns="http://www.w3.org/2000/svg"><title>icon-development</title><g fill="none" fill-rule="evenodd"><path d="M18 14V5.307C18 4.58 17.414 4 16.69 4H3.31C2.587 4 2 4.585 2 5.307V14h16zM4.348 9.167a.594.594 0 0 0-.295.788.6.6 0 0 0 .783.308l2.576-1.147c.3-.133.83-.53.957-1.06-.128-.53-.658-.927-.958-1.06L4.836 5.85a.6.6 0 0 0-.783.307.594.594 0 0 0 .295.788l2.84 1.11-2.84 1.112z" fill="#A5B3BB"/><path d="M18 14.346V14H2v.693C2 15.42 2.586 16 3.31 16h13.38c.722 0 1.31-.585 1.31-1.307v-.347z" fill="#0D2B3E"/></g></svg>