<svg width="16" height="48" viewBox="0 0 16 48" xmlns="http://www.w3.org/2000/svg" xmlns:xlink="http://www.w3.org/1999/xlink"><title>icon-external-link</title><defs><path d="M1.65.032A2.01 2.01 0 0 0 0 2.01v7.98c0 .985.71 1.807 1.648 1.978A1.992 1.992 0 0 1 1 10.494V1.506c0-.583.25-1.108.65-1.474z" id="a"/><mask id="f" x="0" y="0" width="1.651" height="11.936" fill="#fff"><use xlink:href="#a"/></mask><rect id="b" x="3" width="13" height="12" rx="2"/><mask id="g" x="0" y="0" width="13" height="12" fill="#fff"><use xlink:href="#b"/></mask><rect id="c" x="3" y="12" width="13" height="12" rx="2"/><mask id="h" x="0" y="0" width="13" height="12" fill="#fff"><use xlink:href="#c"/></mask><rect id="d" x="3" y="24" width="13" height="12" rx="2"/><mask id="i" x="0" y="0" width="13" height="12" fill="#fff"><use xlink:href="#d"/></mask><rect id="e" x="3" y="36" width="13" height="12" rx="2"/><mask id="j" x="0" y="0" width="13" height="12" fill="#fff"><use xlink:href="#e"/></mask></defs><g fill="none" fill-rule="evenodd"><use stroke="#4C555A" mask="url(#f)" stroke-width="2" fill="#4C555A" opacity=".38" xlink:href="#a"/><use stroke="#4C555A" mask="url(#g)" stroke-width="2" opacity=".38" xlink:href="#b"/><path d="M10.31 6.074L8.06 3.826a.396.396 0 0 1-.006-.563c.15-.15.405-.15.563.007l2.518 2.52a.388.388 0 0 1 .12.285.388.388 0 0 1-.12.285L8.617 8.878a.402.402 0 0 1-.563.007.396.396 0 0 1 .007-.563l2.25-2.248z" fill="#4C555A"/><path d="M1.65 12.032A2.01 2.01 0 0 0 0 14.01v7.98c0 .985.71 1.807 1.648 1.978A1.992 1.992 0 0 1 1 22.494v-8.988c0-.583.25-1.108.65-1.474z" fill="#3C4042"/><use stroke="#3C4042" mask="url(#h)" stroke-width="2" xlink:href="#c"/><path d="M10.31 18.074l-2.25-2.248a.396.396 0 0 1-.006-.563c.15-.15.405-.15.563.007l2.518 2.52a.388.388 0 0 1 .12.285.388.388 0 0 1-.12.285l-2.518 2.518a.402.402 0 0 1-.563.007.396.396 0 0 1 .007-.563l2.25-2.248z" fill="#3C4042"/><path d="M1.65 24.032A2.01 2.01 0 0 0 0 26.01v7.98c0 .985.71 1.807 1.648 1.978A1.992 1.992 0 0 1 1 34.494v-8.988c0-.583.25-1.108.65-1.474z" fill="#0099E5"/><use stroke="#0099E5" mask="url(#i)" stroke-width="2" xlink:href="#d"/><path d="M10.24 29.948L8.055 27.76a.5.5 0 1 1 .707-.706l2.382 2.38a.5.5 0 0 1 .12.514.5.5 0 0 1-.12.513l-2.38 2.382a.5.5 0 1 1-.707-.707l2.186-2.187z" fill="#0099E5"/><path d="M1.65 36.032A2.01 2.01 0 0 0 0 38.01v7.98c0 .985.71 1.807 1.648 1.978A1.992 1.992 0 0 1 1 46.494v-8.988c0-.583.25-1.108.65-1.474z" fill="#0076B1"/><use stroke="#0076B1" mask="url(#j)" stroke-width="2" xlink:href="#e"/><path d="M10.24 41.948L8.055 39.76a.5.5 0 1 1 .707-.706l2.382 2.38a.5.5 0 0 1 .12.514.5.5 0 0 1-.12.513l-2.38 2.382a.5.5 0 1 1-.707-.707l2.186-2.187z" fill="#0076B1"/></g></svg>