<svg width="20" height="20" viewBox="0 0 20 20" xmlns="http://www.w3.org/2000/svg"><title>icon-connect</title><g fill="none"><path d="M10 18.002a8.002 8.002 0 0 1 0-16.004c.455 0 .9.047 1.334.12v4.88H13v1.668h4.882c.073.435.12.88.12 1.334A8.002 8.002 0 0 1 10 18.002zm1.992-6.01H8.346a.34.34 0 0 1-.34-.34v-3.64h-2.44a.338.338 0 0 0-.24.1l-2.23 2.23a6.905 6.905 0 0 0 6.57 6.563l2.227-2.228c.063-.063.1-.15.1-.24V11.99z" fill="#A5B3BB"/><path d="M17.884 8.684l-3.206 3.208a.338.338 0 0 1-.24.1h-2.446V8.35a.338.338 0 0 0-.338-.338H8.007V5.557a.34.34 0 0 1 .1-.24l3.2-3.203a7.993 7.993 0 0 1 6.577 6.57z" fill="#0D2B3E"/></g></svg>