<svg width="20" height="20" viewBox="0 0 20 20" xmlns="http://www.w3.org/2000/svg"><title>icon-subscriptions</title><g fill="none"><path d="M10 18.002a8.002 8.002 0 1 1 0-16.005 8.002 8.002 0 0 1 0 16.005zm4.863-12.867a6.86 6.86 0 0 0-4.92-2.012c-3.695.03-6.733 3.013-6.822 6.702a6.84 6.84 0 0 0 .487 2.69l.2-.052a4.97 4.97 0 0 1 1.328-4.655 4.99 4.99 0 0 1 7.053 0L7.82 12.17a4.978 4.978 0 1 0 7.044-7.036z" fill="#A5B3BB"/><path d="M13.017 9.19A3.125 3.125 0 1 1 9.19 6.98a3.123 3.123 0 0 1 3.827 2.21z" fill="#0D2B3E"/></g></svg>