<svg width="20" height="20" viewBox="0 0 20 20" xmlns="http://www.w3.org/2000/svg"><title>icon-relay</title><g fill="none"><path d="M10 18.002a8.002 8.002 0 1 1 0-16.005 8.002 8.002 0 0 1 0 16.005zm0-9.752a3.372 3.372 0 0 0-.625 6.687v2.136c0 .184.15.333.333.333h.584c.184 0 .333-.15.333-.333v-2.136A3.372 3.372 0 0 0 10 8.25z" fill="#A5B3BB"/><path d="M10.625 15.936v-1.802A2.588 2.588 0 0 0 10 9.03a2.588 2.588 0 0 0-.625 5.103v1.803C6.912 15.62 5 13.5 5 10.906c0-2.813 2.24-5.093 5-5.093s5 2.28 5 5.093c0 2.595-1.912 4.713-4.375 5.03z" fill="#0D2B3E"/><path d="M9.708 12.406h.584c.184 0 .333.15.333.334v4.333c0 .184-.15.333-.333.333h-.584a.333.333 0 0 1-.333-.333V12.74c0-.184.15-.334.333-.334z" fill="#FFF"/></g></svg>