<svg id="b3bc14fd-14c3-41c6-9e7d-5730d61da26c" data-name="Layer 1" xmlns="http://www.w3.org/2000/svg" viewBox="0 0 500 500">
  <defs>
    <style>
      .bda72ef5-bc27-4e8c-9f0d-754b64a9ebe6 {
        fill: #008ecf;
      }
    </style>
  </defs>
  <title>Icons for Support Docs Home Page V01.02</title>
  <g>
    <path class="bda72ef5-bc27-4e8c-9f0d-754b64a9ebe6" d="M84.174,315.24281A13.69584,13.69584,0,0,0,86.725,331.05862l3.34558,3.34558c9.66621-11.45479,20.93216-23.88582,34.596-37.546.96555-.96555,1.9596-1.4323,2.92872-2.323L106.07169,273.008C93.55871,295.63963,86.26185,311.1027,84.174,315.24281Z"/>
    <path class="bda72ef5-bc27-4e8c-9f0d-754b64a9ebe6" d="M202.06031,374.25189c-13.69586,13.69587-26.09482,24.9832-37.48548,34.65652l4.532,4.532a13.675,13.675,0,0,0,15.92981,2.494c7.08665-3.652,18.23146-8.89661,41.88925-22.07229l-22.539-22.539C203.49617,372.29585,203.02943,373.28634,202.06031,374.25189Z"/>
    <path class="bda72ef5-bc27-4e8c-9f0d-754b64a9ebe6" d="M194.767,304.16926c-9.88711-9.8871-37.69213-1.02256-50.7538,12.03554C100.31757,359.90045,80.58256,390.88,71.72158,409.17207a13.6826,13.6826,0,0,0,18.292,18.27065c17.88229-8.68283,48.48421-28.32521,92.70005-72.53748,14.36213-14.36926,21.44878-41.337,12.064-50.72529Z"/>
    <path class="bda72ef5-bc27-4e8c-9f0d-754b64a9ebe6" d="M58.70623,198.15814,20.00936,236.855a13.68325,13.68325,0,0,0,13.21487,22.89176c20.91434-5.608,39.31682-7.97737,51.70865-4.79925a734.16736,734.16736,0,0,1,56.63618-86.40437C129.96463,161.10377,91.61692,165.24745,58.70623,198.15814Z"/>
    <path class="bda72ef5-bc27-4e8c-9f0d-754b64a9ebe6" d="M247.58018,481.53141a13.65512,13.65512,0,0,0,15.82293-2.54036l38.70043-38.69687c29.96059-29.96772,35.23372-68.63253,28.43566-80.89254a780.91019,780.91019,0,0,1-86.4685,56.20506c1.90616,10.76359.63776,21.2065-3.86933,51.7051A13.65271,13.65271,0,0,0,247.58018,481.53141Z"/>
    <path class="bda72ef5-bc27-4e8c-9f0d-754b64a9ebe6" d="M287.6274,153.244a41.04423,41.04423,0,1,0,58.04709,0A41.09232,41.09232,0,0,0,287.6274,153.244Z"/>
    <path class="bda72ef5-bc27-4e8c-9f0d-754b64a9ebe6" d="M482.19489,29.347a13.66215,13.66215,0,0,0-12.62343-12.61986c-33.60189-2.52967-67.072,1.60332-99.87933,11.6365,2.4691,22.539,14.127,46.93078,34.02945,66.83325,20.14119,20.13762,45.19564,31.79193,68.13728,33.97244A282.93989,282.93989,0,0,0,482.19489,29.347Z"/>
    <path class="bda72ef5-bc27-4e8c-9f0d-754b64a9ebe6" d="M384.37492,114.5471c-22.767-22.76706-36.66957-50.07328-41.13034-76.65979C261.08721,71.58185,182.43931,145.16327,120.2913,248.5307L151.16757,279.407c21.096-8.56526,46.70631-10.82772,62.94966,5.41207,16.26473,16.26829,13.95952,41.86787,5.39783,62.93542l31.89169,31.89169c79.5315-47.932,172.12466-123.448,211.49849-223.91882C435.67028,151.61215,407.51253,137.6847,384.37492,114.5471ZM365.02114,230.63772a68.40706,68.40706,0,1,1,0-96.744A68.48866,68.48866,0,0,1,365.02114,230.63772Z"/>
    <path class="bda72ef5-bc27-4e8c-9f0d-754b64a9ebe6" d="M127.59529,294.53512,106.07169,273.008,120.2913,248.5307,151.16757,279.407s-5.45506,2.83657-11.46544,6.63558C132.93617,290.31915,127.59529,294.53512,127.59529,294.53512Z"/>
    <path class="bda72ef5-bc27-4e8c-9f0d-754b64a9ebe6" d="M226.92593,393.8622l-22.539-22.539s4.45042-5.39558,8.78331-11.06785a46.36057,46.36057,0,0,0,6.34485-12.50086l31.89169,31.89169Z"/>
  </g>
</svg>
