<?xml version="1.0" encoding="utf-8"?>
<!-- Generator: Adobe Illustrator 21.0.0, SVG Export Plug-In . SVG Version: 6.00 Build 0)  -->
<svg version="1.1" id="Layer_1" xmlns="http://www.w3.org/2000/svg" xmlns:xlink="http://www.w3.org/1999/xlink" x="0px" y="0px"
	 viewBox="0 0 24.9 18.3" style="enable-background:new 0 0 24.9 18.3;" xml:space="preserve">
<style type="text/css">
	.st0{fill:#7AB9E8;}
	.st1{fill:#88888F;}
	.st2{fill:#FF4F19;}
	.st3{fill:#56545A;}
</style>
<title>icon 5</title>
<g>
	<path class="st0" d="M16.6,9.9c-1.3,0-2.4,1.1-2.4,2.4s1.1,2.4,2.4,2.4s2.4-1.1,2.4-2.4l0,0C18.9,11,17.9,10,16.6,9.9z M16.6,13.1
		c-0.4,0-0.8-0.4-0.8-0.8s0.4-0.8,0.8-0.8s0.8,0.4,0.8,0.8C17.2,12.8,17,13.1,16.6,13.1L16.6,13.1z"/>
	<path class="st1" d="M16.6,8.6l1.7-3L16.7,6c-1.4-2.4-4.5-3.2-6.8-1.8C8.2,5.1,7.2,6.8,7.2,8.6h1.6c0-1.9,1.5-3.4,3.4-3.4
		c1.1,0,2.1,0.5,2.7,1.4L13.4,7L16.6,8.6z"/>
	<polygon class="st2" points="9,10.2 8,11.2 7,10.2 5.9,11.3 6.9,12.3 5.9,13.3 7,14.4 8,13.4 9,14.4 10.2,13.3 9.2,12.3 10.2,11.3 
			"/>
	<path class="st3" d="M16.6,6.1c-0.9-1.5-2.5-2.5-4.3-2.5v1.6c1.1,0,2.1,0.5,2.7,1.4L13.5,7l3,1.7l1.7-3L16.6,6.1z"/>
</g>
</svg>
