<svg id="baa81c8a-06d6-42dc-a188-4511a0b064d5" data-name="Layer 1" xmlns="http://www.w3.org/2000/svg" viewBox="0 0 500 500">
  <defs>
    <style>
      .ad573095-da6b-4ad6-9ad4-d8552c807335 {
        fill: #008ecf;
      }
    </style>
  </defs>
  <title>Icons for Support Docs Home Page V01.02</title>
  <g>
    <path class="ad573095-da6b-4ad6-9ad4-d8552c807335" d="M256,18c-44.97628,0-81.5625,37.49247-81.5625,82.46875a81.5625,81.5625,0,0,0,163.125,0C337.5625,55.49247,300.97628,18,256,18Z"/>
    <path class="ad573095-da6b-4ad6-9ad4-d8552c807335" d="M460.8125,251.40864c-15.01566,0-27.1875,12.85092-27.1875,28.70432v57.40863c0,15.85147,12.17184,28.70432,27.1875,28.70432S488,353.37306,488,337.52159V280.113C488,264.25956,475.82816,251.40864,460.8125,251.40864Z"/>
    <path class="ad573095-da6b-4ad6-9ad4-d8552c807335" d="M51.1875,251.40864C36.17184,251.40864,24,264.25956,24,280.113v57.40863c0,15.85147,12.17184,28.70432,27.1875,28.70432S78.375,353.37306,78.375,337.52159V280.113C78.375,264.25956,66.20316,251.40864,51.1875,251.40864Z"/>
    <path class="ad573095-da6b-4ad6-9ad4-d8552c807335" d="M64.78125,194c-7.51372,0-13.59375,6.41924-13.59375,14.35216v14.35216c29.98872,0,54.375,25.74681,54.375,57.40864v57.40863c0,31.66183-24.38628,57.40864-54.375,57.40864v14.35216c0,7.93293,6.08,14.35216,13.59375,14.35216,64.86117,0,117.62426,20.12759,166.71494,51.23631a7.10327,7.10327,0,0,0,10.91006-5.997V240.49525C189.96157,208.74828,133.56834,194,64.78125,194Z"/>
    <path class="ad573095-da6b-4ad6-9ad4-d8552c807335" d="M460.8125,222.70432V208.35216c0-7.93292-6.08-14.35216-13.59375-14.35216-68.78711,0-125.18032,14.74828-177.625,46.49525v228.382a7.10137,7.10137,0,0,0,10.90716,5.99544c49.09149-31.10976,101.85539-51.23814,166.71784-51.23814,7.51373,0,13.59375-6.41926,13.59375-14.35216V394.93023c-29.98872,0-54.375-25.74681-54.375-57.40864V280.113C406.4375,248.45113,430.82378,222.70432,460.8125,222.70432Z"/>
  </g>
</svg>
