<svg id="bf312014-7e5b-46cf-be19-ddd7549bc8c2" data-name="Layer 1" xmlns="http://www.w3.org/2000/svg" viewBox="0 0 500 500">
  <defs>
    <style>
      .e0874e4f-91f0-4204-8bcb-caf73850ee88 {
        fill: #008ecf;
      }
    </style>
  </defs>
  <title>Icons for Support Docs Home Page V01.02</title>
  <path class="e0874e4f-91f0-4204-8bcb-caf73850ee88" d="M456.2332,21.738H47.76687a27.14137,27.14137,0,0,0-27.11059,27.1106V361.52416a27.14138,27.14138,0,0,0,27.11059,27.1106H185.59805l-12.59646,41.56958H143.55765a27.14137,27.14137,0,0,0-27.1106,27.11059v18.07374a9.03731,9.03731,0,0,0,9.03687,9.03686H378.51616a9.03787,9.03787,0,0,0,9.03686-9.03686V457.31493a27.14137,27.14137,0,0,0-27.1106-27.11059H330.99936l-12.59645-41.56958H456.2332a27.14138,27.14138,0,0,0,27.1106-27.1106V48.84861A27.14138,27.14138,0,0,0,456.2332,21.738ZM402.012,230.48961H324.295a13.481,13.481,0,0,1-12.12387-7.49314l-4.57491-9.14818-24.93655,62.34235a13.4882,13.4882,0,0,1-12.58321,8.521c-.23343,0-.46729-.00573-.69586-.01776A13.55665,13.55665,0,0,1,257.04025,274.88L231.78579,186.4907l-21.4213,53.553a13.47672,13.47672,0,0,1-12.56513,8.52137c-.1423,0-.28549-.0022-.41963-.00651a13.60362,13.60362,0,0,1-12.46077-9.26333l-7.72524-23.1754-3.43825,6.87661a13.48182,13.48182,0,0,1-12.12409,7.49314H101.98807a13.5553,13.5553,0,1,1,0-27.1106h51.26612L167.583,174.72325a13.465,13.465,0,0,1,12.1038-7.49523c.32962,0,.66342.01224.98135.03563a13.51679,13.51679,0,0,1,11.89861,9.2351l6.37148,19.1152,22.40352-56.00883a13.47293,13.47293,0,0,1,12.56535-8.52313h.00022c.2396,0,.481.0064.71307.01886a13.55614,13.55614,0,0,1,12.3403,9.8138l25.25447,88.38953,21.4213-53.55314a13.57511,13.57511,0,0,1,12.02591-8.50857c.18621-.0075.37088-.01136.5562-.01136a13.48632,13.48632,0,0,1,12.12763,7.49369L332.673,203.379h69.339a13.5553,13.5553,0,1,1,0,27.1106Z"/>
</svg>
