<svg id="bac89bc7-aecd-495b-99d8-bc10b9501b49" data-name="Layer 1" xmlns="http://www.w3.org/2000/svg" viewBox="0 0 500 500">
  <defs>
    <style>
      .fba709ab-715b-4613-b036-79470233b741 {
        fill: #008ecf;
      }
    </style>
  </defs>
  <title>Icons for Support Docs Home Page V01.02</title>
  <path class="fba709ab-715b-4613-b036-79470233b741" d="M477.10228,245.80725C475.42357,120.41962,372.37816,20.08484,246.96605,21.75867,121.5388,23.43738,21.22874,126.48779,22.89769,251.91986c1.67871,125.37775,104.71924,225.71747,230.1416,224.04865C378.44163,474.27985,478.77122,371.22943,477.10228,245.80725ZM279.7014,355.25171c-.55273,18.75751-14.28418,31.86163-33.40723,31.86163l-1.2539-.01971c-19.31543-.57276-32.93311-14.80261-32.38477-33.83173.53809-18.70318,14.48633-32.28131,33.165-32.28131l1.12061.01978C266.79466,321.58789,280.25951,335.67456,279.7014,355.25171ZM327.54076,225.8598c-4.54248,6.45331-14.53077,14.46686-27.1167,24.27271l-13.85938,9.56884c-7.60889,5.91511-12.20068,11.47968-13.92383,16.95533a33.84636,33.84636,0,0,0-1.74023,8.29767,9.09685,9.09685,0,0,1-9.04541,8.1491H226.32005a9.08225,9.08225,0,0,1-9.09863-9.1054c.05762-9.981,1.49219-25.62769,9.21924-33.55451,11.96875-14.05206,38.36914-31.05188,39.49023-31.77276a41.67276,41.67276,0,0,0,9.34668-9.559c5.55469-7.65808,8.01367-13.68677,8.01367-19.61176a38.221,38.221,0,0,0-7.26318-22.59393c-4.63623-6.53235-13.44482-9.84046-26.18359-9.84046-12.63526,0-21.28565,4.00928-26.46,12.23511-4.79395,6.28107-6.729,14.60956-7.50538,20.67114a9.1223,9.1223,0,0,1-9.03173,8.00092H170.6848a9.09147,9.09147,0,0,1-8.99463-10.2691,97.86779,97.86779,0,0,1,9.70605-30.458c12.08643-24.14411,35.29981-40.56055,61.96631-44.79395a156.26839,156.26839,0,0,1,24.42481-1.83807c20.68066,0,38.57324,6.41382,56.11621,19.06366,17.7749,12.81775,26.791,32.01471,26.791,57.05768C340.69456,200.7428,336.27025,213.90118,327.54076,225.8598Z"/>
</svg>
