<?xml version="1.0" encoding="utf-8"?>
<!-- Generator: Adobe Illustrator 21.0.0, SVG Export Plug-In . SVG Version: 6.00 Build 0)  -->
<svg version="1.1" id="Layer_1" xmlns="http://www.w3.org/2000/svg" xmlns:xlink="http://www.w3.org/1999/xlink" x="0px" y="0px"
	 viewBox="0 0 25 18.4" style="enable-background:new 0 0 25 18.4;" xml:space="preserve">
<style type="text/css">
	.st0{fill:#29ADE3;}
</style>
<title>icon6</title>
<path class="st0" d="M18.7,8c-0.3-0.8-0.9-1.4-1.7-1.7c-0.7-0.3-1.6-0.3-2.3,0c-0.4,0.2-0.7,0.4-1,0.7l-0.2,0.2l1,1L14.7,8
	c0.7-0.7,1.7-0.7,2.4,0c0.7,0.7,0.7,1.7,0,2.4c-0.7,0.7-1.7,0.7-2.4,0c0,0,0,0,0,0l-0.5-0.5L11.3,7c-0.3-0.3-0.6-0.5-1-0.7
	C9.6,6,8.7,6,8,6.3C7.2,6.7,6.6,7.3,6.3,8C6,8.8,6,9.6,6.3,10.4c0.3,0.8,0.9,1.4,1.7,1.7c0.7,0.3,1.6,0.3,2.3,0
	c0.4-0.2,0.7-0.4,1-0.7l0.2-0.2l-1-1l-0.2,0.2c-0.7,0.7-1.7,0.7-2.4,0C7.2,9.7,7.2,8.7,7.9,8s1.7-0.7,2.4,0c0,0,0,0,0,0l1.2,1.2
	l2.2,2.2c0.3,0.3,0.6,0.5,1,0.7c0.7,0.3,1.6,0.3,2.3,0c0.8-0.3,1.4-0.9,1.7-1.7C19,9.6,19,8.8,18.7,8z"/>
</svg>
