<svg id="b06a022c-257d-490b-b1ca-bc5289056206" data-name="Layer 1" xmlns="http://www.w3.org/2000/svg" viewBox="0 0 500 500">
  <defs>
    <style>
      .b4c642d7-15a3-4008-a3d6-d04877a5624c {
        fill: #008ecf;
      }
    </style>
  </defs>
  <title>Icons for Support Docs Home Page V01.02</title>
  <g>
    <path class="b4c642d7-15a3-4008-a3d6-d04877a5624c" d="M40.25019,110.99957h-.00005A23.25013,23.25013,0,0,0,17,134.2497v302.25A46.50032,46.50032,0,0,0,63.50032,483h302.25a23.25014,23.25014,0,0,0,23.25014-23.25014v0a23.25014,23.25014,0,0,0-23.25014-23.25014H86.75046a23.25013,23.25013,0,0,1-23.25013-23.25014V134.2497A23.25013,23.25013,0,0,0,40.25019,110.99957Z"/>
    <path class="b4c642d7-15a3-4008-a3d6-d04877a5624c" d="M435.49976,18H156.49988a46.48752,46.48752,0,0,0-46.50031,46.50031V343.50006a46.48753,46.48753,0,0,0,46.50031,46.50037H435.49976A46.48751,46.48751,0,0,0,482,343.50006V64.50031A46.4875,46.4875,0,0,0,435.49976,18ZM369.94348,218.29211l-91.86023,68.89515a17.86485,17.86485,0,0,1-28.58374-14.29194V135.105a17.86484,17.86484,0,0,1,28.58374-14.29187l91.86023,68.89514A17.86485,17.86485,0,0,1,369.94348,218.29211Z"/>
  </g>
</svg>
